<svg xmlns="http://www.w3.org/2000/svg" width="376.8318176269531" height="391.30780029296875" viewBox="-100.2218017578125 -91.71737670898438 376.8318176269531 391.30780029296875"><title>Neo4j Graph Visualization</title><desc>Created using Neo4j (http://www.neo4j.com/)</desc><g class="layer relationships"><g class="relationship" transform="translate(129.11355147839674 263.09042140936526) rotate(334.1869721651783)"><path class="outline" fill="#A5ABB6" stroke="none" d="M 31.26317983184346,8.894581878976458 L 31.52199887694598,7.92865605268739 A 94.7474094632021 94.7474094632021 0 0 0 33.06384392459064,8.327933266510215 L 32.82129809536157,9.298073215550332 A 95.7474094632021 95.7474094632021 0 0 1 31.26317983184346,8.894581878976458 Z M 79.4834751816239,9.24382717893765 L 79.2386743834312,8.274253783467131 A 94.7474094632021 94.7474094632021 0 0 0 80.77958692381267,7.871392780986556 L 79.99639440771746,4.975428436811643 L 87.66736914623668,6.526604300793521 L 81.82384361193964,11.732678573219772 L 81.04065109584442,8.83671422904486 A 95.7474094632021 95.7474094632021 0 0 1 79.4834751816239,9.24382717893765"/><text text-anchor="middle" pointer-events="none" font-size="8px" fill="#000000" x="56.15516052208018" y="14.657031379510514" font-family="sans-serif">DIRECTED</text></g><g class="relationship" transform="translate(129.11355147839674 263.09042140936526) rotate(334.1869721651783)"><path class="outline" fill="#A5ABB6" stroke="none" d="M 31.26317983184346,-8.894581878976458 L 31.52199887694598,-7.92865605268739 A 94.7474094632021 94.7474094632021 0 0 1 38.46422779117948,-9.511823673697663 L 38.278679656105695,-10.494458849930766 A 95.7474094632021 95.7474094632021 0 0 0 31.26317983184346,-8.894581878976458 Z M 74.0288900290556,-10.452898268279853 L 73.8410577189207,-9.470697156862542 A 94.7474094632021 94.7474094632021 0 0 1 80.77958692381267,-7.871392780986556 L 79.99639440771746,-4.975428436811643 L 87.66736914623668,-6.526604300793521 L 81.82384361193964,-11.732678573219772 L 81.04065109584442,-8.83671422904486 A 95.7474094632021 95.7474094632021 0 0 0 74.0288900290556,-10.452898268279853"/><text text-anchor="middle" pointer-events="none" font-size="8px" fill="#000000" x="56.15516052208019" y="-8.657031379510514" font-family="sans-serif">WROTE</text></g><g class="relationship" transform="translate(240.1100214602904 2.2923472582386304) rotate(525.3940995376373)"><path class="outline" fill="#A5ABB6" stroke="none" d="M 31.26317983184346,8.894581878976458 L 31.52199887694598,7.92865605268739 A 93.34603269021873 93.34603269021873 0 0 0 32.70901638260534,8.238371022521179 L 32.46291365196686,9.207614772035342 A 94.34603269021873 94.34603269021873 0 0 1 31.26317983184346,8.894581878976458 Z M 79.11449348322165,9.153024387614877 L 78.86612306537668,8.184359256860432 A 93.34603269021873 93.34603269021873 0 0 0 80.05241248152946,7.871867109111616 L 79.26917568429556,4.975914740812234 L 86.94017414043367,6.526973310282432 L 81.09672821117465,11.73313693351079 L 80.31349141394075,8.837184565211409 A 94.34603269021873 94.34603269021873 0 0 1 79.11449348322165,9.153024387614877"/><text text-anchor="middle" pointer-events="none" font-size="8px" fill="#000000" x="55.791545870547985" y="14.60928073403403" transform="rotate(180 55.791545870547985 11.60928073403403)" font-family="sans-serif">DIRECTED</text></g><g class="relationship" transform="translate(240.1100214602904 2.2923472582386304) rotate(525.3940995376373)"><path class="outline" fill="#A5ABB6" stroke="none" d="M 31.26317983184346,-8.894581878976458 L 31.52199887694598,-7.92865605268739 A 93.34603269021873 93.34603269021873 0 0 1 38.10509700868959,-9.439611274305136 L 37.916801562094896,-10.421723704117383 A 94.34603269021873 94.34603269021873 0 0 0 31.26317983184346,-8.894581878976458 Z M 73.66346193841,-10.379893953897792 L 73.47286852919358,-9.398224889312743 A 93.34603269021873 93.34603269021873 0 0 1 80.05241248152946,-7.871867109111616 L 79.26917568429556,-4.975914740812234 L 86.94017414043367,-6.526973310282432 L 81.09672821117465,-11.73313693351079 L 80.31349141394075,-8.837184565211409 A 94.34603269021873 94.34603269021873 0 0 0 73.66346193841,-10.379893953897792"/><text text-anchor="middle" pointer-events="none" font-size="8px" fill="#000000" x="55.79154587054796" y="-8.60928073403403" transform="rotate(180 55.79154587054796 -11.60928073403403)" font-family="sans-serif">WROTE</text></g><g class="relationship" transform="translate(61.74184057499905 -55.217379647843494) rotate(410.34547406571926)"><path class="outline" fill="#A5ABB6" stroke="none" d="M 31.26317983184346,8.894581878976458 L 31.52199887694598,7.92865605268739 A 93.35363518395891 93.35363518395891 0 0 0 32.710940373977806,8.23886020495803 L 32.46485721746376,9.208108924369142 A 94.35363518395891 94.35363518395891 0 0 1 31.26317983184346,8.894581878976458 Z M 79.11649596931153,9.153520418619436 L 78.86814519478634,8.184850251435208 A 93.35363518395891 93.35363518395891 0 0 0 80.05635747832183,7.871864519003799 L 79.27312092288872,4.975912085307197 L 86.94411924951942,6.526971295275964 L 81.10067288556598,11.733134430599268 L 80.31743633013288,8.837181996902666 A 94.35363518395891 94.35363518395891 0 0 1 79.11649596931153,9.153520418619436"/><text text-anchor="middle" pointer-events="none" font-size="8px" fill="#000000" x="55.79351851873501" y="14.60953978210621" font-family="sans-serif">DIRECTED</text></g><g class="relationship" transform="translate(61.74184057499905 -55.217379647843494) rotate(410.34547406571926)"><path class="outline" fill="#A5ABB6" stroke="none" d="M 31.26317983184346,-8.894581878976458 L 31.52199887694598,-7.92865605268739 A 93.35363518395891 93.35363518395891 0 0 1 38.10704484587014,-9.440004976229403 L 37.918764521150045,-10.422120305161442 A 94.35363518395891 94.35363518395891 0 0 0 31.26317983184346,-8.894581878976458 Z M 73.66544470026082,-10.380292024125694 L 73.47486648805847,-9.398620009125906 A 93.35363518395891 93.35363518395891 0 0 1 80.05635747832183,-7.871864519003799 L 79.27312092288872,-4.975912085307197 L 86.94411924951942,-6.526971295275964 L 81.10067288556598,-11.733134430599268 L 80.31743633013288,-8.837181996902666 A 94.35363518395891 94.35363518395891 0 0 0 73.66544470026082,-10.380292024125694"/><text text-anchor="middle" pointer-events="none" font-size="8px" fill="#000000" x="55.79351851873502" y="-8.60953978210621" font-family="sans-serif">WROTE</text></g><g class="relationship selected" transform="translate(-63.7217976069167 83.70939626813043) rotate(434.5260479021978)"><path class="outline" fill="#A5ABB6" stroke="none" d="M 31.26317983184346,8.894581878976458 L 31.52199887694598,7.92865605268739 A 93.6254755644815 93.6254755644815 0 0 0 32.779742978209775,8.256327799730002 L 32.53435771374955,9.225753439986008 A 94.6254755644815 94.6254755644815 0 0 1 31.26317983184346,8.894581878976458 Z M 79.18809284903882,9.171232033340843 L 78.94044243936395,8.202382574143044 A 93.6254755644815 93.6254755644815 0 0 0 80.19741724581016,7.8717720267714135 L 79.41418932503464,4.975817257767299 L 87.08518302694901,6.5268993397959125 L 81.2417211401775,11.733045052110231 L 80.45849321940199,8.837090283106118 A 94.6254755644815 94.6254755644815 0 0 1 79.18809284903882,9.171232033340843"/><text text-anchor="middle" pointer-events="none" font-size="8px" fill="#000000" x="55.864053751445674" y="14.618802496443521" font-family="sans-serif">DIRECTED</text></g><g class="relationship" transform="translate(-63.7217976069167 83.70939626813043) rotate(434.5260479021978)"><path class="outline" fill="#A5ABB6" stroke="none" d="M 31.26317983184346,-8.894581878976458 L 31.52199887694598,-7.92865605268739 A 93.6254755644815 93.6254755644815 0 0 1 38.176696453624714,-9.454068341233665 L 37.988955259251995,-10.436286872893248 A 94.6254755644815 94.6254755644815 0 0 0 31.26317983184346,-8.894581878976458 Z M 73.73633955337965,-10.394511060732654 L 73.54630315582082,-9.412734014961643 A 93.6254755644815 93.6254755644815 0 0 1 80.19741724581016,-7.8717720267714135 L 79.41418932503464,-4.975817257767299 L 87.08518302694901,-6.5268993397959125 L 81.2417211401775,-11.733045052110231 L 80.45849321940199,-8.837090283106118 A 94.6254755644815 94.6254755644815 0 0 0 73.73633955337965,-10.394511060732654"/><text text-anchor="middle" pointer-events="none" font-size="8px" fill="#000000" x="55.86405375144568" y="-8.618802496443521" font-family="sans-serif">WROTE</text></g></g><g class="layer nodes"><g class="node" transform="translate(129.11355147839674,263.09042140936526)"><circle class="outline" cx="0" cy="0" r="32.5" fill="#F79767" stroke="#f36924" stroke-width="2px"/><text text-anchor="middle" pointer-events="none" font-family="sans-serif" dy="2.03125" font-size="32.5" fill="#FFFFFF"/><text text-anchor="middle" pointer-events="none" font-family="sans-serif" dy="2.03125" font-size="32.5" fill="#FFFFFF"/><text text-anchor="middle" pointer-events="none" x="0" y="0" font-size="10px" fill="#FFFFFF" font-family="sans-serif"> Cameron</text><text text-anchor="middle" pointer-events="none" x="0" y="10" font-size="10px" fill="#FFFFFF" font-family="sans-serif"> Crowe</text></g><g class="node" transform="translate(229.7584884424713,214.40852231528507)"><circle class="outline" cx="0" cy="0" r="25" fill="#57C7E3" stroke="#23b3d7" stroke-width="2px"/><text text-anchor="middle" pointer-events="none" font-family="sans-serif" dy="1.5625" font-size="25" fill="#2A2C34"/><text text-anchor="middle" pointer-events="none" font-family="sans-serif" dy="1.5625" font-size="25" fill="#2A2C34"/><text text-anchor="middle" pointer-events="none" x="0" y="0" font-size="10px" fill="#2A2C34" font-family="sans-serif"> Jerry</text><text text-anchor="middle" pointer-events="none" x="0" y="10" font-size="10px" fill="#2A2C34" font-family="sans-serif"> Maguire</text></g><g class="node" transform="translate(240.1100214602904,2.2923472582386304)"><circle class="outline" cx="0" cy="0" r="32.5" fill="#F79767" stroke="#f36924" stroke-width="2px"/><text text-anchor="middle" pointer-events="none" font-family="sans-serif" dy="2.03125" font-size="32.5" fill="#FFFFFF"/><text text-anchor="middle" pointer-events="none" font-family="sans-serif" dy="2.03125" font-size="32.5" fill="#FFFFFF"/><text text-anchor="middle" pointer-events="none" x="0" y="0" font-size="10px" fill="#FFFFFF" font-family="sans-serif"> Andy</text><text text-anchor="middle" pointer-events="none" x="0" y="10" font-size="10px" fill="#FFFFFF" font-family="sans-serif"> Wachowski</text></g><g class="node" transform="translate(132.62643768096632,30.301544027061478)"><circle class="outline" cx="0" cy="0" r="25" fill="#57C7E3" stroke="#23b3d7" stroke-width="2px"/><text text-anchor="middle" pointer-events="none" font-family="sans-serif" dy="1.5625" font-size="25" fill="#2A2C34"/><text text-anchor="middle" pointer-events="none" font-family="sans-serif" dy="1.5625" font-size="25" fill="#2A2C34"/><text text-anchor="middle" pointer-events="none" x="0" y="0" font-size="10px" fill="#2A2C34" font-family="sans-serif"> Speed</text><text text-anchor="middle" pointer-events="none" x="0" y="10" font-size="10px" fill="#2A2C34" font-family="sans-serif"> Racer</text></g><g class="node" transform="translate(61.74184057499905,-55.217379647843494)"><circle class="outline" cx="0" cy="0" r="32.5" fill="#F79767" stroke="#f36924" stroke-width="2px"/><text text-anchor="middle" pointer-events="none" font-family="sans-serif" dy="2.03125" font-size="32.5" fill="#FFFFFF"/><text text-anchor="middle" pointer-events="none" font-family="sans-serif" dy="2.03125" font-size="32.5" fill="#FFFFFF"/><text text-anchor="middle" pointer-events="none" x="0" y="0" font-size="10px" fill="#FFFFFF" font-family="sans-serif"> Lana</text><text text-anchor="middle" pointer-events="none" x="0" y="10" font-size="10px" fill="#FFFFFF" font-family="sans-serif"> Wachowski</text></g><g class="node" transform="translate(-63.7217976069167,83.70939626813043)"><circle class="outline" cx="0" cy="0" r="32.5" fill="#F79767" stroke="#f36924" stroke-width="2px"/><text text-anchor="middle" pointer-events="none" font-family="sans-serif" dy="2.03125" font-size="32.5" fill="#FFFFFF"/><text text-anchor="middle" pointer-events="none" font-family="sans-serif" dy="2.03125" font-size="32.5" fill="#FFFFFF"/><text text-anchor="middle" pointer-events="none" x="0" y="0" font-size="10px" fill="#FFFFFF" font-family="sans-serif"> Nancy</text><text text-anchor="middle" pointer-events="none" x="0" y="10" font-size="10px" fill="#FFFFFF" font-family="sans-serif"> Meyers</text></g><g class="node" transform="translate(-34.04876895496869,190.89608345489916)"><circle class="outline" cx="0" cy="0" r="25" fill="#57C7E3" stroke="#23b3d7" stroke-width="2px"/><text text-anchor="middle" pointer-events="none" font-family="sans-serif" dy="1.5625" font-size="25" fill="#2A2C34"/><text text-anchor="middle" pointer-events="none" x="0" y="5" font-size="10px" fill="#2A2C34" font-family="sans-serif"> Somethi…</text></g></g></svg>