<svg xmlns="http://www.w3.org/2000/svg" width="770.7958984375" height="581.748779296875" viewBox="-420.92913818359375 -234.4559326171875 770.7958984375 581.748779296875"><title>Neo4j Graph Visualization</title><desc>Created using Neo4j (http://www.neo4j.com/)</desc><g class="layer relationships"><g class="relationship" transform="translate(69.06434526731064 71.33737523190507) rotate(439.29508819754994)"><path class="outline" fill="#A5ABB6" stroke="none" d="M 32.5 0.5 L 39.325757469487016 0.5 L 39.325757469487016 -0.5 L 32.5 -0.5 Z M 84.88825746948702 0.5 L 91.71401493897403 0.5 L 91.71401493897403 3.5 L 98.71401493897403 0 L 91.71401493897403 -3.5 L 91.71401493897403 -0.5 L 84.88825746948702 -0.5 Z"/><text text-anchor="middle" pointer-events="none" font-size="8px" fill="#000000" x="62.107007469487016" y="3" font-family="sans-serif">ACTED_IN</text></g><g class="relationship" transform="translate(40.199919004613115 303.34910840061633) rotate(295.1448665391388)"><path class="outline" fill="#A5ABB6" stroke="none" d="M 32.5 0.5 L 38.47531986696173 0.5 L 38.47531986696173 -0.5 L 32.5 -0.5 Z M 84.03781986696174 0.5 L 90.01313973392347 0.5 L 90.01313973392347 3.5 L 97.01313973392347 0 L 90.01313973392347 -3.5 L 90.01313973392347 -0.5 L 84.03781986696174 -0.5 Z"/><text text-anchor="middle" pointer-events="none" font-size="8px" fill="#000000" x="61.25656986696173" y="3" font-family="sans-serif">ACTED_IN</text></g><g class="relationship" transform="translate(139.7987159488243 310.792829470507) rotate(247.94907366452975)"><path class="outline" fill="#A5ABB6" stroke="none" d="M 32.5 0.5 L 41.0682443674116 0.5 L 41.0682443674116 -0.5 L 32.5 -0.5 Z M 86.63074436741161 0.5 L 95.1989887348232 0.5 L 95.1989887348232 3.5 L 102.1989887348232 0 L 95.1989887348232 -3.5 L 95.1989887348232 -0.5 L 86.63074436741161 -0.5 Z"/><text text-anchor="middle" pointer-events="none" font-size="8px" fill="#000000" x="63.8494943674116" y="3" transform="rotate(180 63.8494943674116 0)" font-family="sans-serif">ACTED_IN</text></g><g class="relationship" transform="translate(206.77124429738836 246.07695121025705) rotate(204.8688106201114)"><path class="outline" fill="#A5ABB6" stroke="none" d="M 32.5 0.5 L 40.69498185284977 0.5 L 40.69498185284977 -0.5 L 32.5 -0.5 Z M 86.25748185284976 0.5 L 94.45246370569954 0.5 L 94.45246370569954 3.5 L 101.45246370569954 0 L 94.45246370569954 -3.5 L 94.45246370569954 -0.5 L 86.25748185284976 -0.5 Z"/><text text-anchor="middle" pointer-events="none" font-size="8px" fill="#000000" x="63.47623185284977" y="3" transform="rotate(180 63.47623185284977 0)" font-family="sans-serif">ACTED_IN</text></g><g class="relationship" transform="translate(69.06434526731064 71.33737523190507) rotate(342.30515577731364)"><path class="outline" fill="#A5ABB6" stroke="none" d="M 32.5 0.5 L 39.214713376780985 0.5 L 39.214713376780985 -0.5 L 32.5 -0.5 Z M 84.77721337678099 0.5 L 91.49192675356197 0.5 L 91.49192675356197 3.5 L 98.49192675356197 0 L 91.49192675356197 -3.5 L 91.49192675356197 -0.5 L 84.77721337678099 -0.5 Z"/><text text-anchor="middle" pointer-events="none" font-size="8px" fill="#000000" x="61.995963376780985" y="3" font-family="sans-serif">ACTED_IN</text></g><g class="relationship" transform="translate(278.749142436257 118.18929737299258) rotate(222.51760606651396)"><path class="outline" fill="#A5ABB6" stroke="none" d="M 32.5 0.5 L 39.90206988834172 0.5 L 39.90206988834172 -0.5 L 32.5 -0.5 Z M 85.46456988834171 0.5 L 92.86663977668344 0.5 L 92.86663977668344 3.5 L 99.86663977668344 0 L 92.86663977668344 -3.5 L 92.86663977668344 -0.5 L 85.46456988834171 -0.5 Z"/><text text-anchor="middle" pointer-events="none" font-size="8px" fill="#000000" x="62.68331988834172" y="3" transform="rotate(180 62.68331988834172 0)" font-family="sans-serif">ACTED_IN</text></g><g class="relationship" transform="translate(313.36678206342884 31.781443968190466) rotate(539.0858601627875)"><path class="outline" fill="#A5ABB6" stroke="none" d="M 32.5 0.5 L 40.80333929415047 0.5 L 40.80333929415047 -0.5 L 32.5 -0.5 Z M 86.36583929415048 0.5 L 94.66917858830094 0.5 L 94.66917858830094 3.5 L 101.66917858830094 0 L 94.66917858830094 -3.5 L 94.66917858830094 -0.5 L 86.36583929415048 -0.5 Z"/><text text-anchor="middle" pointer-events="none" font-size="8px" fill="#000000" x="63.58458929415047" y="3" transform="rotate(180 63.58458929415047 0)" font-family="sans-serif">ACTED_IN</text></g><g class="relationship" transform="translate(270.7002974559561 -58.14206513959905) rotate(492.4101246775739)"><path class="outline" fill="#A5ABB6" stroke="none" d="M 32.5 0.5 L 39.73334010291176 0.5 L 39.73334010291176 -0.5 L 32.5 -0.5 Z M 85.29584010291177 0.5 L 92.52918020582352 0.5 L 92.52918020582352 3.5 L 99.52918020582352 0 L 92.52918020582352 -3.5 L 92.52918020582352 -0.5 L 85.29584010291177 -0.5 Z"/><text text-anchor="middle" pointer-events="none" font-size="8px" fill="#000000" x="62.51459010291176" y="3" transform="rotate(180 62.51459010291176 0)" font-family="sans-serif">ACTED_IN</text></g><g class="relationship" transform="translate(169.87038006393055 -85.34615015043141) rotate(441.95373652982516)"><path class="outline" fill="#A5ABB6" stroke="none" d="M 32.5 0.5 L 37.63530920220341 0.5 L 37.63530920220341 -0.5 L 32.5 -0.5 Z M 83.19780920220342 0.5 L 88.33311840440682 0.5 L 88.33311840440682 3.5 L 95.33311840440682 0 L 88.33311840440682 -3.5 L 88.33311840440682 -0.5 L 83.19780920220342 -0.5 Z"/><text text-anchor="middle" pointer-events="none" font-size="8px" fill="#000000" x="60.41655920220341" y="3" font-family="sans-serif">ACTED_IN</text></g><g class="relationship" transform="translate(69.06434526731064 71.33737523190507) rotate(227.9110931374945)"><path class="outline" fill="#A5ABB6" stroke="none" d="M 32.5 0.5 L 63.11899027070314 0.5 L 63.11899027070314 -0.5 L 32.5 -0.5 Z M 108.68149027070314 0.5 L 139.30048054140627 0.5 L 139.30048054140627 3.5 L 146.30048054140627 0 L 139.30048054140627 -3.5 L 139.30048054140627 -0.5 L 108.68149027070314 -0.5 Z"/><text text-anchor="middle" pointer-events="none" font-size="8px" fill="#000000" x="85.90024027070314" y="3" transform="rotate(180 85.90024027070314 0)" font-family="sans-serif">ACTED_IN</text></g><g class="relationship" transform="translate(-142.20535815711554 -197.95593605279194) rotate(415.8465877976467)"><path class="outline" fill="#A5ABB6" stroke="none" d="M 32.5 0.5 L 63.36835478320181 0.5 L 63.36835478320181 -0.5 L 32.5 -0.5 Z M 108.93085478320181 0.5 L 139.79920956640362 0.5 L 139.79920956640362 3.5 L 146.79920956640362 0 L 139.79920956640362 -3.5 L 139.79920956640362 -0.5 L 108.93085478320181 -0.5 Z"/><text text-anchor="middle" pointer-events="none" font-size="8px" fill="#000000" x="86.14960478320181" y="3" font-family="sans-serif">ACTED_IN</text></g><g class="relationship" transform="translate(-384.4291407308953 61.582034634361904) rotate(340.8861896581477)"><path class="outline" fill="#A5ABB6" stroke="none" d="M 32.5 0.5 L 156.6858325373693 0.5 L 156.6858325373693 -0.5 L 32.5 -0.5 Z M 202.2483325373693 0.5 L 326.4341650747386 0.5 L 326.4341650747386 3.5 L 333.4341650747386 0 L 326.4341650747386 -3.5 L 326.4341650747386 -0.5 L 202.2483325373693 -0.5 Z"/><text text-anchor="middle" pointer-events="none" font-size="8px" fill="#000000" x="179.4670825373693" y="3" font-family="sans-serif">ACTED_IN</text></g><g class="relationship" transform="translate(-317.7332748121082 -136.25839565468726) rotate(376.48241639394155)"><path class="outline" fill="#A5ABB6" stroke="none" d="M 32.5 0.5 L 119.28535500641331 0.5 L 119.28535500641331 -0.5 L 32.5 -0.5 Z M 164.8478550064133 0.5 L 251.63321001282662 0.5 L 251.63321001282662 3.5 L 258.6332100128266 0 L 251.63321001282662 -3.5 L 251.63321001282662 -0.5 L 164.8478550064133 -0.5 Z"/><text text-anchor="middle" pointer-events="none" font-size="8px" fill="#000000" x="142.0666050064133" y="3" font-family="sans-serif">ACTED_IN</text></g><g class="relationship" transform="translate(69.06434526731064 71.33737523190507) rotate(194.63747193216034)"><path class="outline" fill="#A5ABB6" stroke="none" d="M 32.5 0.5 L 75.41884340677507 0.5 L 75.41884340677507 -0.5 L 32.5 -0.5 Z M 120.98134340677507 0.5 L 163.90018681355014 0.5 L 163.90018681355014 3.5 L 170.90018681355014 0 L 163.90018681355014 -3.5 L 163.90018681355014 -0.5 L 120.98134340677507 -0.5 Z"/><text text-anchor="middle" pointer-events="none" font-size="8px" fill="#000000" x="98.20009340677507" y="3" transform="rotate(180 98.20009340677507 0)" font-family="sans-serif">ACTED_IN</text></g><g class="relationship" transform="translate(-142.20535815711554 -197.95593605279194) rotate(444.35426511430296)"><path class="outline" fill="#A5ABB6" stroke="none" d="M 32.5 0.5 L 87.89887767694906 0.5 L 87.89887767694906 -0.5 L 32.5 -0.5 Z M 133.46137767694904 0.5 L 188.8602553538981 0.5 L 188.8602553538981 3.5 L 195.8602553538981 0 L 188.8602553538981 -3.5 L 188.8602553538981 -0.5 L 133.46137767694904 -0.5 Z"/><text text-anchor="middle" pointer-events="none" font-size="8px" fill="#000000" x="110.68012767694906" y="3" font-family="sans-serif">ACTED_IN</text></g><g class="relationship" transform="translate(-384.4291407308953 61.582034634361904) rotate(351.4360443770229)"><path class="outline" fill="#A5ABB6" stroke="none" d="M 32.5 0.5 L 110.93254424565677 0.5 L 110.93254424565677 -0.5 L 32.5 -0.5 Z M 156.49504424565677 0.5 L 234.92758849131354 0.5 L 234.92758849131354 3.5 L 241.92758849131354 0 L 234.92758849131354 -3.5 L 234.92758849131354 -0.5 L 156.49504424565677 -0.5 Z"/><text text-anchor="middle" pointer-events="none" font-size="8px" fill="#000000" x="133.71379424565677" y="3" font-family="sans-serif">ACTED_IN</text></g><g class="relationship" transform="translate(-317.7332748121082 -136.25839565468726) rotate(398.7105902415922)"><path class="outline" fill="#A5ABB6" stroke="none" d="M 32.5 0.5 L 103.8635983406044 0.5 L 103.8635983406044 -0.5 L 32.5 -0.5 Z M 149.4260983406044 0.5 L 220.7896966812088 0.5 L 220.7896966812088 3.5 L 227.7896966812088 0 L 220.7896966812088 -3.5 L 220.7896966812088 -0.5 L 149.4260983406044 -0.5 Z"/><text text-anchor="middle" pointer-events="none" font-size="8px" fill="#000000" x="126.6448483406044" y="3" font-family="sans-serif">ACTED_IN</text></g><g class="relationship" transform="translate(69.06434526731064 71.33737523190507) rotate(523.6506028884506)"><path class="outline" fill="#A5ABB6" stroke="none" d="M 32.5 0.5 L 96.68227821282551 0.5 L 96.68227821282551 -0.5 L 32.5 -0.5 Z M 142.2447782128255 0.5 L 206.42705642565102 0.5 L 206.42705642565102 3.5 L 213.42705642565102 0 L 206.42705642565102 -3.5 L 206.42705642565102 -0.5 L 142.2447782128255 -0.5 Z"/><text text-anchor="middle" pointer-events="none" font-size="8px" fill="#000000" x="119.46352821282551" y="3" transform="rotate(180 119.46352821282551 0)" font-family="sans-serif">ACTED_IN</text></g><g class="relationship" transform="translate(-195.85495729631512 278.62216262189156) rotate(284.4553048081447)"><path class="outline" fill="#A5ABB6" stroke="none" d="M 32.5 0.5 L 49.84446206998051 0.5 L 49.84446206998051 -0.5 L 32.5 -0.5 Z M 95.40696206998051 0.5 L 112.75142413996102 0.5 L 112.75142413996102 3.5 L 119.75142413996102 0 L 112.75142413996102 -3.5 L 112.75142413996102 -0.5 L 95.40696206998051 -0.5 Z"/><text text-anchor="middle" pointer-events="none" font-size="8px" fill="#000000" x="72.62571206998051" y="3" font-family="sans-serif">ACTED_IN</text></g><g class="relationship" transform="translate(-142.20535815711554 -197.95593605279194) rotate(452.9805712547536)"><path class="outline" fill="#A5ABB6" stroke="none" d="M 32.5 0.5 L 145.90116094703936 0.5 L 145.90116094703936 -0.5 L 32.5 -0.5 Z M 191.46366094703936 0.5 L 304.8648218940787 0.5 L 304.8648218940787 3.5 L 311.8648218940787 0 L 304.8648218940787 -3.5 L 304.8648218940787 -0.5 L 191.46366094703936 -0.5 Z"/><text text-anchor="middle" pointer-events="none" font-size="8px" fill="#000000" x="168.68241094703936" y="3" transform="rotate(180 168.68241094703936 0)" font-family="sans-serif">ACTED_IN</text></g><g class="relationship" transform="translate(-384.4291407308953 61.582034634361904) rotate(378.88550690716903)"><path class="outline" fill="#A5ABB6" stroke="none" d="M 32.5 0.5 L 96.21504483431238 0.5 L 96.21504483431238 -0.5 L 32.5 -0.5 Z M 141.77754483431238 0.5 L 205.49258966862476 0.5 L 205.49258966862476 3.5 L 212.49258966862476 0 L 205.49258966862476 -3.5 L 205.49258966862476 -0.5 L 141.77754483431238 -0.5 Z"/><text text-anchor="middle" pointer-events="none" font-size="8px" fill="#000000" x="118.99629483431238" y="3" font-family="sans-serif">ACTED_IN</text></g><g class="relationship" transform="translate(-317.7332748121082 -136.25839565468726) rotate(420.0928400180596)"><path class="outline" fill="#A5ABB6" stroke="none" d="M 32.5 0.5 L 135.9255230305761 0.5 L 135.9255230305761 -0.5 L 32.5 -0.5 Z M 181.4880230305761 0.5 L 284.9135460611522 0.5 L 284.9135460611522 3.5 L 291.9135460611522 0 L 284.9135460611522 -3.5 L 284.9135460611522 -0.5 L 181.4880230305761 -0.5 Z"/><text text-anchor="middle" pointer-events="none" font-size="8px" fill="#000000" x="158.7067730305761" y="3" font-family="sans-serif">ACTED_IN</text></g></g><g class="layer nodes"><g class="node" transform="translate(69.06434526731064,71.33737523190507)"><circle class="outline" cx="0" cy="0" r="32.5" fill="#F79767" stroke="#f36924" stroke-width="2px"/><text text-anchor="middle" pointer-events="none" font-family="sans-serif" dy="2.03125" font-size="32.5" fill="#FFFFFF"/><text text-anchor="middle" pointer-events="none" font-family="sans-serif" dy="2.03125" font-size="32.5" fill="#FFFFFF"/><text text-anchor="middle" pointer-events="none" x="0" y="0" font-size="10px" fill="#FFFFFF" font-family="sans-serif"> Hugo</text><text text-anchor="middle" pointer-events="none" x="0" y="10" font-size="10px" fill="#FFFFFF" font-family="sans-serif"> Weaving</text></g><g class="node" transform="translate(92.0443288566538,192.89837986149098)"><circle class="outline" cx="0" cy="0" r="25" fill="#57C7E3" stroke="#23b3d7" stroke-width="2px"/><text text-anchor="middle" pointer-events="none" font-family="sans-serif" dy="1.5625" font-size="25" fill="#2A2C34"/><text text-anchor="middle" pointer-events="none" font-family="sans-serif" dy="1.5625" font-size="25" fill="#2A2C34"/><text text-anchor="middle" pointer-events="none" x="0" y="0" font-size="10px" fill="#2A2C34" font-family="sans-serif"> Cloud</text><text text-anchor="middle" pointer-events="none" x="0" y="10" font-size="10px" fill="#2A2C34" font-family="sans-serif"> Atlas</text></g><g class="node" transform="translate(40.199919004613115,303.34910840061633)"><circle class="outline" cx="0" cy="0" r="32.5" fill="#F79767" stroke="#f36924" stroke-width="2px"/><text text-anchor="middle" pointer-events="none" font-family="sans-serif" dy="2.03125" font-size="32.5" fill="#FFFFFF"/><text text-anchor="middle" pointer-events="none" x="0" y="5" font-size="10px" fill="#FFFFFF" font-family="sans-serif"> Tom Hanks</text></g><g class="node" transform="translate(139.7987159488243,310.792829470507)"><circle class="outline" cx="0" cy="0" r="32.5" fill="#F79767" stroke="#f36924" stroke-width="2px"/><text text-anchor="middle" pointer-events="none" font-family="sans-serif" dy="2.03125" font-size="32.5" fill="#FFFFFF"/><text text-anchor="middle" pointer-events="none" font-family="sans-serif" dy="2.03125" font-size="32.5" fill="#FFFFFF"/><text text-anchor="middle" pointer-events="none" x="0" y="0" font-size="10px" fill="#FFFFFF" font-family="sans-serif"> Jim</text><text text-anchor="middle" pointer-events="none" x="0" y="10" font-size="10px" fill="#FFFFFF" font-family="sans-serif"> Broadbent</text></g><g class="node" transform="translate(206.77124429738836,246.07695121025705)"><circle class="outline" cx="0" cy="0" r="32.5" fill="#F79767" stroke="#f36924" stroke-width="2px"/><text text-anchor="middle" pointer-events="none" font-family="sans-serif" dy="2.03125" font-size="32.5" fill="#FFFFFF"/><text text-anchor="middle" pointer-events="none" x="0" y="5" font-size="10px" fill="#FFFFFF" font-family="sans-serif"> Halle Berry</text></g><g class="node" transform="translate(186.71372520915702,33.80233330297965)"><circle class="outline" cx="0" cy="0" r="25" fill="#57C7E3" stroke="#23b3d7" stroke-width="2px"/><text text-anchor="middle" pointer-events="none" font-family="sans-serif" dy="1.5625" font-size="25" fill="#2A2C34"/><text text-anchor="middle" pointer-events="none" font-family="sans-serif" dy="1.5625" font-size="25" fill="#2A2C34"/><text text-anchor="middle" pointer-events="none" x="0" y="0" font-size="10px" fill="#2A2C34" font-family="sans-serif"> V for</text><text text-anchor="middle" pointer-events="none" x="0" y="10" font-size="10px" fill="#2A2C34" font-family="sans-serif"> Vendetta</text></g><g class="node" transform="translate(278.749142436257,118.18929737299258)"><circle class="outline" cx="0" cy="0" r="32.5" fill="#F79767" stroke="#f36924" stroke-width="2px"/><text text-anchor="middle" pointer-events="none" font-family="sans-serif" dy="2.03125" font-size="32.5" fill="#FFFFFF"/><text text-anchor="middle" pointer-events="none" x="0" y="5" font-size="10px" fill="#FFFFFF" font-family="sans-serif"> Ben Miles</text></g><g class="node" transform="translate(313.36678206342884,31.781443968190466)"><circle class="outline" cx="0" cy="0" r="32.5" fill="#F79767" stroke="#f36924" stroke-width="2px"/><text text-anchor="middle" pointer-events="none" font-family="sans-serif" dy="2.03125" font-size="32.5" fill="#FFFFFF"/><text text-anchor="middle" pointer-events="none" font-family="sans-serif" dy="2.03125" font-size="32.5" fill="#FFFFFF"/><text text-anchor="middle" pointer-events="none" x="0" y="0" font-size="10px" fill="#FFFFFF" font-family="sans-serif"> Natalie</text><text text-anchor="middle" pointer-events="none" x="0" y="10" font-size="10px" fill="#FFFFFF" font-family="sans-serif"> Portman</text></g><g class="node" transform="translate(270.7002974559561,-58.14206513959905)"><circle class="outline" cx="0" cy="0" r="32.5" fill="#F79767" stroke="#f36924" stroke-width="2px"/><text text-anchor="middle" pointer-events="none" font-family="sans-serif" dy="2.03125" font-size="32.5" fill="#FFFFFF"/><text text-anchor="middle" pointer-events="none" x="0" y="5" font-size="10px" fill="#FFFFFF" font-family="sans-serif"> John Hurt</text></g><g class="node" transform="translate(169.87038006393055,-85.34615015043141)"><circle class="outline" cx="0" cy="0" r="32.5" fill="#F79767" stroke="#f36924" stroke-width="2px"/><text text-anchor="middle" pointer-events="none" font-family="sans-serif" dy="2.03125" font-size="32.5" fill="#FFFFFF"/><text text-anchor="middle" pointer-events="none" x="0" y="5" font-size="10px" fill="#FFFFFF" font-family="sans-serif"> Stephen Rea</text></g><g class="node" transform="translate(-45.75544636090737,-55.7856757233379)"><circle class="outline" cx="0" cy="0" r="25" fill="#57C7E3" stroke="#23b3d7" stroke-width="2px"/><text text-anchor="middle" pointer-events="none" font-family="sans-serif" dy="1.5625" font-size="25" fill="#2A2C34"/><text text-anchor="middle" pointer-events="none" font-family="sans-serif" dy="1.5625" font-size="25" fill="#2A2C34"/><text text-anchor="middle" pointer-events="none" font-family="sans-serif" dy="1.5625" font-size="25" fill="#2A2C34"/><text text-anchor="middle" pointer-events="none" x="0" y="-5" font-size="10px" fill="#2A2C34" font-family="sans-serif"> The</text><text text-anchor="middle" pointer-events="none" x="0" y="5" font-size="10px" fill="#2A2C34" font-family="sans-serif"> Matrix</text><text text-anchor="middle" pointer-events="none" x="0" y="15" font-size="10px" fill="#2A2C34" font-family="sans-serif"> Revol…</text></g><g class="node" transform="translate(-142.20535815711554,-197.95593605279194)"><circle class="outline" cx="0" cy="0" r="32.5" fill="#F79767" stroke="#f36924" stroke-width="2px"/><text text-anchor="middle" pointer-events="none" font-family="sans-serif" dy="2.03125" font-size="32.5" fill="#FFFFFF"/><text text-anchor="middle" pointer-events="none" font-family="sans-serif" dy="2.03125" font-size="32.5" fill="#FFFFFF"/><text text-anchor="middle" pointer-events="none" x="0" y="0" font-size="10px" fill="#FFFFFF" font-family="sans-serif"> Laurence</text><text text-anchor="middle" pointer-events="none" x="0" y="10" font-size="10px" fill="#FFFFFF" font-family="sans-serif"> Fishburne</text></g><g class="node" transform="translate(-384.4291407308953,61.582034634361904)"><circle class="outline" cx="0" cy="0" r="32.5" fill="#F79767" stroke="#f36924" stroke-width="2px"/><text text-anchor="middle" pointer-events="none" font-family="sans-serif" dy="2.03125" font-size="32.5" fill="#FFFFFF"/><text text-anchor="middle" pointer-events="none" font-family="sans-serif" dy="2.03125" font-size="32.5" fill="#FFFFFF"/><text text-anchor="middle" pointer-events="none" x="0" y="0" font-size="10px" fill="#FFFFFF" font-family="sans-serif"> Carrie-Anne</text><text text-anchor="middle" pointer-events="none" x="0" y="10" font-size="10px" fill="#FFFFFF" font-family="sans-serif"> Moss</text></g><g class="node" transform="translate(-317.7332748121082,-136.25839565468726)"><circle class="outline" cx="0" cy="0" r="32.5" fill="#F79767" stroke="#f36924" stroke-width="2px"/><text text-anchor="middle" pointer-events="none" font-family="sans-serif" dy="2.03125" font-size="32.5" fill="#FFFFFF"/><text text-anchor="middle" pointer-events="none" font-family="sans-serif" dy="2.03125" font-size="32.5" fill="#FFFFFF"/><text text-anchor="middle" pointer-events="none" x="0" y="0" font-size="10px" fill="#FFFFFF" font-family="sans-serif"> Keanu</text><text text-anchor="middle" pointer-events="none" x="0" y="10" font-size="10px" fill="#FFFFFF" font-family="sans-serif"> Reeves</text></g><g class="node" transform="translate(-120.47772624211004,21.832968140197565)"><circle class="outline" cx="0" cy="0" r="25" fill="#57C7E3" stroke="#23b3d7" stroke-width="2px"/><text text-anchor="middle" pointer-events="none" font-family="sans-serif" dy="1.5625" font-size="25" fill="#2A2C34"/><text text-anchor="middle" pointer-events="none" font-family="sans-serif" dy="1.5625" font-size="25" fill="#2A2C34"/><text text-anchor="middle" pointer-events="none" font-family="sans-serif" dy="1.5625" font-size="25" fill="#2A2C34"/><text text-anchor="middle" pointer-events="none" x="0" y="-5" font-size="10px" fill="#2A2C34" font-family="sans-serif"> The</text><text text-anchor="middle" pointer-events="none" x="0" y="5" font-size="10px" fill="#2A2C34" font-family="sans-serif"> Matrix</text><text text-anchor="middle" pointer-events="none" x="0" y="15" font-size="10px" fill="#2A2C34" font-family="sans-serif"> Reloa…</text></g><g class="node" transform="translate(-159.7214269013429,138.453183272884)"><circle class="outline" cx="0" cy="0" r="25" fill="#57C7E3" stroke="#23b3d7" stroke-width="2px"/><text text-anchor="middle" pointer-events="none" font-family="sans-serif" dy="1.5625" font-size="25" fill="#2A2C34"/><text text-anchor="middle" pointer-events="none" font-family="sans-serif" dy="1.5625" font-size="25" fill="#2A2C34"/><text text-anchor="middle" pointer-events="none" x="0" y="0" font-size="10px" fill="#2A2C34" font-family="sans-serif"> The</text><text text-anchor="middle" pointer-events="none" x="0" y="10" font-size="10px" fill="#2A2C34" font-family="sans-serif"> Matrix</text></g><g class="node" transform="translate(-195.85495729631512,278.62216262189156)"><circle class="outline" cx="0" cy="0" r="32.5" fill="#F79767" stroke="#f36924" stroke-width="2px"/><text text-anchor="middle" pointer-events="none" font-family="sans-serif" dy="2.03125" font-size="32.5" fill="#FFFFFF"/><text text-anchor="middle" pointer-events="none" x="0" y="5" font-size="10px" fill="#FFFFFF" font-family="sans-serif"> Emil Eifrem</text></g></g></svg>