<svg xmlns="http://www.w3.org/2000/svg" width="274.50164794921875" height="279.823486328125" viewBox="-34.72843933105469 -32.775733947753906 274.50164794921875 279.823486328125"><title>Neo4j Graph Visualization</title><desc>Created using Neo4j (http://www.neo4j.com/)</desc><g class="layer relationships"><g class="relationship" transform="translate(203.27321294467632 190.28158118920993) rotate(221.17960624457078)"><path class="outline" fill="#A5ABB6" stroke="none" d="M 32.5 0.5 L 34.274334541398304 0.5 L 34.274334541398304 -0.5 L 32.5 -0.5 Z M 81.1649595413983 0.5 L 82.93929408279661 0.5 L 82.93929408279661 3.5 L 89.93929408279661 0 L 82.93929408279661 -3.5 L 82.93929408279661 -0.5 L 81.1649595413983 -0.5 Z"/><text text-anchor="middle" pointer-events="none" font-size="8px" fill="#000000" x="57.719647041398304" y="3" transform="rotate(180 57.719647041398304 0)" font-family="sans-serif">DIRECTED</text></g><g class="relationship" transform="translate(202.93016355967833 34.89489829916549) rotate(497.2294969767521)"><path class="outline" fill="#A5ABB6" stroke="none" d="M 32.5 0.5 L 36.158527324179566 0.5 L 36.158527324179566 -0.5 L 32.5 -0.5 Z M 81.72102732417957 0.5 L 85.37955464835913 0.5 L 85.37955464835913 3.5 L 92.37955464835913 0 L 85.37955464835913 -3.5 L 85.37955464835913 -0.5 L 81.72102732417957 -0.5 Z"/><text text-anchor="middle" pointer-events="none" font-size="8px" fill="#000000" x="58.939777324179566" y="3" transform="rotate(180 58.939777324179566 0)" font-family="sans-serif">ACTED_IN</text></g><g class="relationship" transform="translate(78.18798616417172 3.724266646652129) rotate(430.8165175265094)"><path class="outline" fill="#A5ABB6" stroke="none" d="M 32.5 0.5 L 36.16763211754336 0.5 L 36.16763211754336 -0.5 L 32.5 -0.5 Z M 81.73013211754336 0.5 L 85.39776423508673 0.5 L 85.39776423508673 3.5 L 92.39776423508673 0 L 85.39776423508673 -3.5 L 85.39776423508673 -0.5 L 81.73013211754336 -0.5 Z"/><text text-anchor="middle" pointer-events="none" font-size="8px" fill="#000000" x="58.94888211754336" y="3" font-family="sans-serif">ACTED_IN</text></g><g class="relationship" transform="translate(1.7715600584144573 91.0396211650196) rotate(371.58031954298093)"><path class="outline" fill="#A5ABB6" stroke="none" d="M 32.5 0.5 L 36.15978549362489 0.5 L 36.15978549362489 -0.5 L 32.5 -0.5 Z M 81.7222854936249 0.5 L 85.38207098724978 0.5 L 85.38207098724978 3.5 L 92.38207098724978 0 L 85.38207098724978 -3.5 L 85.38207098724978 -0.5 L 81.7222854936249 -0.5 Z"/><text text-anchor="middle" pointer-events="none" font-size="8px" fill="#000000" x="58.94103549362489" y="3" font-family="sans-serif">ACTED_IN</text></g><g class="relationship" transform="translate(49.20627206926402 210.54775029456073) rotate(305.1506970402828)"><path class="outline" fill="#A5ABB6" stroke="none" d="M 32.5 0.5 L 41.03495303188126 0.5 L 41.03495303188126 -0.5 L 32.5 -0.5 Z M 76.80839053188126 0.5 L 85.34334356376252 0.5 L 85.34334356376252 3.5 L 92.34334356376252 0 L 85.34334356376252 -3.5 L 85.34334356376252 -0.5 L 76.80839053188126 -0.5 Z"/><text text-anchor="middle" pointer-events="none" font-size="8px" fill="#000000" x="58.92167178188126" y="3" font-family="sans-serif">WROTE</text></g></g><g class="layer nodes"><g class="node" transform="translate(116.76423210675043,114.60306667792361)"><circle class="outline" cx="0" cy="0" r="25" fill="#57C7E3" stroke="#23b3d7" stroke-width="2px"/><text text-anchor="middle" pointer-events="none" font-family="sans-serif" dy="1.5625" font-size="25" fill="#2A2C34"/><text text-anchor="middle" pointer-events="none" font-family="sans-serif" dy="1.5625" font-size="25" fill="#2A2C34"/><text text-anchor="middle" pointer-events="none" font-family="sans-serif" dy="1.5625" font-size="25" fill="#2A2C34"/><text text-anchor="middle" pointer-events="none" x="0" y="-5" font-size="10px" fill="#2A2C34" font-family="sans-serif"> Captain</text><text text-anchor="middle" pointer-events="none" x="0" y="5" font-size="10px" fill="#2A2C34" font-family="sans-serif"> America:</text><text text-anchor="middle" pointer-events="none" x="0" y="15" font-size="10px" fill="#2A2C34" font-family="sans-serif"> The Fi…</text></g><g class="node" transform="translate(203.27321294467632,190.28158118920993)"><circle class="outline" cx="0" cy="0" r="32.5" fill="#F79767" stroke="#f36924" stroke-width="2px"/><text text-anchor="middle" pointer-events="none" font-family="sans-serif" dy="2.03125" font-size="32.5" fill="#FFFFFF"/><text text-anchor="middle" pointer-events="none" x="0" y="5" font-size="10px" fill="#FFFFFF" font-family="sans-serif"> Joe Johnston</text></g><g class="node" transform="translate(202.93016355967833,34.89489829916549)"><circle class="outline" cx="0" cy="0" r="32.5" fill="#F79767" stroke="#f36924" stroke-width="2px"/><text text-anchor="middle" pointer-events="none" font-family="sans-serif" dy="2.03125" font-size="32.5" fill="#FFFFFF"/><text text-anchor="middle" pointer-events="none" x="0" y="5" font-size="10px" fill="#FFFFFF" font-family="sans-serif"> Chris Evans</text></g><g class="node" transform="translate(78.18798616417172,3.724266646652129)"><circle class="outline" cx="0" cy="0" r="32.5" fill="#F79767" stroke="#f36924" stroke-width="2px"/><text text-anchor="middle" pointer-events="none" font-family="sans-serif" dy="2.03125" font-size="32.5" fill="#FFFFFF"/><text text-anchor="middle" pointer-events="none" font-family="sans-serif" dy="2.03125" font-size="32.5" fill="#FFFFFF"/><text text-anchor="middle" pointer-events="none" x="0" y="0" font-size="10px" fill="#FFFFFF" font-family="sans-serif"> Samuel L.</text><text text-anchor="middle" pointer-events="none" x="0" y="10" font-size="10px" fill="#FFFFFF" font-family="sans-serif"> Jackson</text></g><g class="node" transform="translate(1.7715600584144573,91.0396211650196)"><circle class="outline" cx="0" cy="0" r="32.5" fill="#F79767" stroke="#f36924" stroke-width="2px"/><text text-anchor="middle" pointer-events="none" font-family="sans-serif" dy="2.03125" font-size="32.5" fill="#FFFFFF"/><text text-anchor="middle" pointer-events="none" font-family="sans-serif" dy="2.03125" font-size="32.5" fill="#FFFFFF"/><text text-anchor="middle" pointer-events="none" x="0" y="0" font-size="10px" fill="#FFFFFF" font-family="sans-serif"> Hugo</text><text text-anchor="middle" pointer-events="none" x="0" y="10" font-size="10px" fill="#FFFFFF" font-family="sans-serif"> Weaving</text></g><g class="node" transform="translate(49.20627206926402,210.54775029456073)"><circle class="outline" cx="0" cy="0" r="32.5" fill="#F79767" stroke="#f36924" stroke-width="2px"/><text text-anchor="middle" pointer-events="none" font-family="sans-serif" dy="2.03125" font-size="32.5" fill="#FFFFFF"/><text text-anchor="middle" pointer-events="none" font-family="sans-serif" dy="2.03125" font-size="32.5" fill="#FFFFFF"/><text text-anchor="middle" pointer-events="none" x="0" y="0" font-size="10px" fill="#FFFFFF" font-family="sans-serif"> Christopher</text><text text-anchor="middle" pointer-events="none" x="0" y="10" font-size="10px" fill="#FFFFFF" font-family="sans-serif"> Markus</text></g></g></svg>