<svg xmlns="http://www.w3.org/2000/svg" width="696.4905395507812" height="623.2891235351562" viewBox="-480.34185791015625 -242.6121826171875 696.4905395507812 623.2891235351562"><title>Neo4j Graph Visualization</title><desc>Created using Neo4j (http://www.neo4j.com/)</desc><g class="layer relationships"><g class="relationship" transform="translate(-207.26193272492532 66.49990128860765) rotate(448.6094098531315)"><path class="outline" fill="#A5ABB6" stroke="none" d="M 32.5 0.5 L 48.807830907741035 0.5 L 48.807830907741035 -0.5 L 32.5 -0.5 Z M 94.37033090774104 0.5 L 110.67816181548207 0.5 L 110.67816181548207 3.5 L 117.67816181548207 0 L 110.67816181548207 -3.5 L 110.67816181548207 -0.5 L 94.37033090774104 -0.5 Z"/><text text-anchor="middle" pointer-events="none" font-size="8px" fill="#000000" x="71.58908090774104" y="3" font-family="sans-serif">ACTED_IN</text></g><g class="relationship" transform="translate(-202.81666136593324 344.1769559171845) rotate(269.5830380260473)"><path class="outline" fill="#A5ABB6" stroke="none" d="M 32.5 0.5 L 44.32693203983921 0.5 L 44.32693203983921 -0.5 L 32.5 -0.5 Z M 91.2175570398392 0.5 L 103.04448907967841 0.5 L 103.04448907967841 3.5 L 110.04448907967841 0 L 103.04448907967841 -3.5 L 103.04448907967841 -0.5 L 91.2175570398392 -0.5 Z"/><text text-anchor="middle" pointer-events="none" font-size="8px" fill="#000000" x="67.7722445398392" y="3" transform="rotate(180 67.7722445398392 0)" font-family="sans-serif">DIRECTED</text></g><g class="relationship" transform="translate(179.64868277963916 64.50185882977362) rotate(519.3338438037227)"><path class="outline" fill="#A5ABB6" stroke="none" d="M 32.5 0.5 L 181.71411545936883 0.5 L 181.71411545936883 -0.5 L 32.5 -0.5 Z M 228.60474045936883 0.5 L 377.81885591873765 0.5 L 377.81885591873765 3.5 L 384.81885591873765 0 L 377.81885591873765 -3.5 L 377.81885591873765 -0.5 L 228.60474045936883 -0.5 Z"/><text text-anchor="middle" pointer-events="none" font-size="8px" fill="#000000" x="205.15942795936883" y="3" transform="rotate(180 205.15942795936883 0)" font-family="sans-serif">DIRECTED</text></g><g class="relationship" transform="translate(57.79499633795763 -206.1121764577859) rotate(482.2097461715244)"><path class="outline" fill="#A5ABB6" stroke="none" d="M 32.5 0.5 L 222.19352293906604 0.5 L 222.19352293906604 -0.5 L 32.5 -0.5 Z M 269.08414793906604 0.5 L 458.7776708781321 0.5 L 458.7776708781321 3.5 L 465.7776708781321 0 L 458.7776708781321 -3.5 L 458.7776708781321 -0.5 L 269.08414793906604 -0.5 Z"/><text text-anchor="middle" pointer-events="none" font-size="8px" fill="#000000" x="245.63883543906604" y="3" transform="rotate(180 245.63883543906604 0)" font-family="sans-serif">DIRECTED</text></g><g class="relationship" transform="translate(-207.26193272492532 66.49990128860765) rotate(538.7666945037145)"><path class="outline" fill="#A5ABB6" stroke="none" d="M 32.5 0.5 L 38.374633425998844 0.5 L 38.374633425998844 -0.5 L 32.5 -0.5 Z M 83.93713342599884 0.5 L 89.81176685199769 0.5 L 89.81176685199769 3.5 L 96.81176685199769 0 L 89.81176685199769 -3.5 L 89.81176685199769 -0.5 L 83.93713342599884 -0.5 Z"/><text text-anchor="middle" pointer-events="none" font-size="8px" fill="#000000" x="61.155883425998844" y="3" transform="rotate(180 61.155883425998844 0)" font-family="sans-serif">ACTED_IN</text></g><g class="relationship" transform="translate(-443.8418557498891 69.35009454962278) rotate(359.88601986078083)"><path class="outline" fill="#A5ABB6" stroke="none" d="M 32.5 0.5 L 34.20298856147519 0.5 L 34.20298856147519 -0.5 L 32.5 -0.5 Z M 81.0936135614752 0.5 L 82.79660212295038 0.5 L 82.79660212295038 3.5 L 89.79660212295038 0 L 82.79660212295038 -3.5 L 82.79660212295038 -0.5 L 81.0936135614752 -0.5 Z"/><text text-anchor="middle" pointer-events="none" font-size="8px" fill="#000000" x="57.64830106147519" y="3" font-family="sans-serif">DIRECTED</text></g><g class="relationship" transform="translate(-207.26193272492532 66.49990128860765) rotate(360.0861170731433)"><path class="outline" fill="#A5ABB6" stroke="none" d="M 32.5 0.5 L 63.72960862131207 0.5 L 63.72960862131207 -0.5 L 32.5 -0.5 Z M 109.29210862131207 0.5 L 140.52171724262413 0.5 L 140.52171724262413 3.5 L 147.52171724262413 0 L 140.52171724262413 -3.5 L 140.52171724262413 -0.5 L 109.29210862131207 -0.5 Z"/><text text-anchor="middle" pointer-events="none" font-size="8px" fill="#000000" x="86.51085862131207" y="3" font-family="sans-serif">ACTED_IN</text></g><g class="relationship" transform="translate(179.64868277963916 64.50185882977362) rotate(539.3967431889293)"><path class="outline" fill="#A5ABB6" stroke="none" d="M 32.5 0.5 L 84.00517592018214 0.5 L 84.00517592018214 -0.5 L 32.5 -0.5 Z M 130.89580092018213 0.5 L 182.40097684036428 0.5 L 182.40097684036428 3.5 L 189.40097684036428 0 L 182.40097684036428 -3.5 L 182.40097684036428 -0.5 L 130.89580092018213 -0.5 Z"/><text text-anchor="middle" pointer-events="none" font-size="8px" fill="#000000" x="107.45048842018214" y="3" transform="rotate(180 107.45048842018214 0)" font-family="sans-serif">DIRECTED</text></g><g class="relationship" transform="translate(57.79499633795763 -206.1121764577859) rotate(468.73268674623523)"><path class="outline" fill="#A5ABB6" stroke="none" d="M 32.5 0.5 L 120.87202661652577 0.5 L 120.87202661652577 -0.5 L 32.5 -0.5 Z M 167.76265161652577 0.5 L 256.13467823305155 0.5 L 256.13467823305155 3.5 L 263.13467823305155 0 L 256.13467823305155 -3.5 L 256.13467823305155 -0.5 L 167.76265161652577 -0.5 Z"/><text text-anchor="middle" pointer-events="none" font-size="8px" fill="#000000" x="144.31733911652577" y="3" transform="rotate(180 144.31733911652577 0)" font-family="sans-serif">DIRECTED</text></g><g class="relationship" transform="translate(-207.26193272492532 66.49990128860765) rotate(268.6179442071482)"><path class="outline" fill="#A5ABB6" stroke="none" d="M 32.5 0.5 L 60.96578155908996 0.5 L 60.96578155908996 -0.5 L 32.5 -0.5 Z M 106.52828155908996 0.5 L 134.99406311817992 0.5 L 134.99406311817992 3.5 L 141.99406311817992 0 L 134.99406311817992 -3.5 L 134.99406311817992 -0.5 L 106.52828155908996 -0.5 Z"/><text text-anchor="middle" pointer-events="none" font-size="8px" fill="#000000" x="83.74703155908996" y="3" transform="rotate(180 83.74703155908996 0)" font-family="sans-serif">ACTED_IN</text></g><g class="relationship" transform="translate(179.64868277963916 64.50185882977362) rotate(202.87619333445343)"><path class="outline" fill="#A5ABB6" stroke="none" d="M 32.5 0.5 L 188.96056131033444 0.5 L 188.96056131033444 -0.5 L 32.5 -0.5 Z M 235.85118631033444 0.5 L 392.3117476206689 0.5 L 392.3117476206689 3.5 L 399.3117476206689 0 L 392.3117476206689 -3.5 L 392.3117476206689 -0.5 L 235.85118631033444 -0.5 Z"/><text text-anchor="middle" pointer-events="none" font-size="8px" fill="#000000" x="212.40587381033444" y="3" transform="rotate(180 212.40587381033444 0)" font-family="sans-serif">DIRECTED</text></g><g class="relationship" transform="translate(57.79499633795763 -206.1121764577859) rotate(518.560609358851)"><path class="outline" fill="#A5ABB6" stroke="none" d="M 32.5 0.5 L 121.34879016075621 0.5 L 121.34879016075621 -0.5 L 32.5 -0.5 Z M 168.2394151607562 0.5 L 257.0882053215124 0.5 L 257.0882053215124 3.5 L 264.0882053215124 0 L 257.0882053215124 -3.5 L 257.0882053215124 -0.5 L 168.2394151607562 -0.5 Z"/><text text-anchor="middle" pointer-events="none" font-size="8px" fill="#000000" x="144.7941026607562" y="3" transform="rotate(180 144.7941026607562 0)" font-family="sans-serif">DIRECTED</text></g><g class="relationship" transform="translate(-207.26193272492532 66.49990128860765) rotate(400.4484797789547)"><path class="outline" fill="#A5ABB6" stroke="none" d="M 32.5 0.5 L 118.5371801443097 0.5 L 118.5371801443097 -0.5 L 32.5 -0.5 Z M 164.0996801443097 0.5 L 250.1368602886194 0.5 L 250.1368602886194 3.5 L 257.1368602886194 0 L 250.1368602886194 -3.5 L 250.1368602886194 -0.5 L 164.0996801443097 -0.5 Z"/><text text-anchor="middle" pointer-events="none" font-size="8px" fill="#000000" x="141.3184301443097" y="3" font-family="sans-serif">ACTED_IN</text></g><g class="relationship" transform="translate(179.64868277963916 64.50185882977362) rotate(492.94303841489955)"><path class="outline" fill="#A5ABB6" stroke="none" d="M 32.5 0.5 L 103.19154682364628 0.5 L 103.19154682364628 -0.5 L 32.5 -0.5 Z M 150.08217182364626 0.5 L 220.77371864729255 0.5 L 220.77371864729255 3.5 L 227.77371864729255 0 L 220.77371864729255 -3.5 L 220.77371864729255 -0.5 L 150.08217182364626 -0.5 Z"/><text text-anchor="middle" pointer-events="none" font-size="8px" fill="#000000" x="126.63685932364628" y="3" transform="rotate(180 126.63685932364628 0)" font-family="sans-serif">DIRECTED</text></g><g class="relationship" transform="translate(57.79499633795763 -206.1121764577859) rotate(456.306114089689)"><path class="outline" fill="#A5ABB6" stroke="none" d="M 32.5 0.5 L 206.0177630455137 0.5 L 206.0177630455137 -0.5 L 32.5 -0.5 Z M 252.9083880455137 0.5 L 426.4261510910274 0.5 L 426.4261510910274 3.5 L 433.4261510910274 0 L 426.4261510910274 -3.5 L 426.4261510910274 -0.5 L 252.9083880455137 -0.5 Z"/><text text-anchor="middle" pointer-events="none" font-size="8px" fill="#000000" x="229.4630755455137" y="3" transform="rotate(180 229.4630755455137 0)" font-family="sans-serif">DIRECTED</text></g></g><g class="layer nodes"><g class="node" transform="translate(-207.26193272492532,66.49990128860765)"><circle class="outline" cx="0" cy="0" r="32.5" fill="#F79767" stroke="#f36924" stroke-width="2px"/><text text-anchor="middle" pointer-events="none" font-family="sans-serif" dy="2.03125" font-size="32.5" fill="#FFFFFF"/><text text-anchor="middle" pointer-events="none" font-family="sans-serif" dy="2.03125" font-size="32.5" fill="#FFFFFF"/><text text-anchor="middle" pointer-events="none" x="0" y="0" font-size="10px" fill="#FFFFFF" font-family="sans-serif"> Hugo</text><text text-anchor="middle" pointer-events="none" x="0" y="10" font-size="10px" fill="#FFFFFF" font-family="sans-serif"> Weaving</text></g><g class="node" transform="translate(-203.7994199600688,209.13604279698586)"><circle class="outline" cx="0" cy="0" r="25" fill="#57C7E3" stroke="#23b3d7" stroke-width="2px"/><text text-anchor="middle" pointer-events="none" font-family="sans-serif" dy="1.5625" font-size="25" fill="#2A2C34"/><text text-anchor="middle" pointer-events="none" font-family="sans-serif" dy="1.5625" font-size="25" fill="#2A2C34"/><text text-anchor="middle" pointer-events="none" x="0" y="0" font-size="10px" fill="#2A2C34" font-family="sans-serif"> Cloud</text><text text-anchor="middle" pointer-events="none" x="0" y="10" font-size="10px" fill="#2A2C34" font-family="sans-serif"> Atlas</text></g><g class="node" transform="translate(-202.81666136593324,344.1769559171845)"><circle class="outline" cx="0" cy="0" r="32.5" fill="#F79767" stroke="#f36924" stroke-width="2px"/><text text-anchor="middle" pointer-events="none" font-family="sans-serif" dy="2.03125" font-size="32.5" fill="#FFFFFF"/><text text-anchor="middle" pointer-events="none" x="0" y="5" font-size="10px" fill="#FFFFFF" font-family="sans-serif"> Tom Tykwer</text></g><g class="node" transform="translate(179.64868277963916,64.50185882977362)"><circle class="outline" cx="0" cy="0" r="32.5" fill="#F79767" stroke="#f36924" stroke-width="2px"/><text text-anchor="middle" pointer-events="none" font-family="sans-serif" dy="2.03125" font-size="32.5" fill="#FFFFFF"/><text text-anchor="middle" pointer-events="none" font-family="sans-serif" dy="2.03125" font-size="32.5" fill="#FFFFFF"/><text text-anchor="middle" pointer-events="none" x="0" y="0" font-size="10px" fill="#FFFFFF" font-family="sans-serif"> Lana</text><text text-anchor="middle" pointer-events="none" x="0" y="10" font-size="10px" fill="#FFFFFF" font-family="sans-serif"> Wachowski</text></g><g class="node" transform="translate(57.79499633795763,-206.1121764577859)"><circle class="outline" cx="0" cy="0" r="32.5" fill="#F79767" stroke="#f36924" stroke-width="2px"/><text text-anchor="middle" pointer-events="none" font-family="sans-serif" dy="2.03125" font-size="32.5" fill="#FFFFFF"/><text text-anchor="middle" pointer-events="none" font-family="sans-serif" dy="2.03125" font-size="32.5" fill="#FFFFFF"/><text text-anchor="middle" pointer-events="none" x="0" y="0" font-size="10px" fill="#FFFFFF" font-family="sans-serif"> Andy</text><text text-anchor="middle" pointer-events="none" x="0" y="10" font-size="10px" fill="#FFFFFF" font-family="sans-serif"> Wachowski</text></g><g class="node" transform="translate(-329.04548077654897,69.12172652369011)"><circle class="outline" cx="0" cy="0" r="25" fill="#57C7E3" stroke="#23b3d7" stroke-width="2px"/><text text-anchor="middle" pointer-events="none" font-family="sans-serif" dy="1.5625" font-size="25" fill="#2A2C34"/><text text-anchor="middle" pointer-events="none" font-family="sans-serif" dy="1.5625" font-size="25" fill="#2A2C34"/><text text-anchor="middle" pointer-events="none" x="0" y="0" font-size="10px" fill="#2A2C34" font-family="sans-serif"> V for</text><text text-anchor="middle" pointer-events="none" x="0" y="10" font-size="10px" fill="#2A2C34" font-family="sans-serif"> Vendetta</text></g><g class="node" transform="translate(-443.8418557498891,69.35009454962278)"><circle class="outline" cx="0" cy="0" r="32.5" fill="#F79767" stroke="#f36924" stroke-width="2px"/><text text-anchor="middle" pointer-events="none" font-family="sans-serif" dy="2.03125" font-size="32.5" fill="#FFFFFF"/><text text-anchor="middle" pointer-events="none" font-family="sans-serif" dy="2.03125" font-size="32.5" fill="#FFFFFF"/><text text-anchor="middle" pointer-events="none" x="0" y="0" font-size="10px" fill="#FFFFFF" font-family="sans-serif"> James</text><text text-anchor="middle" pointer-events="none" x="0" y="10" font-size="10px" fill="#FFFFFF" font-family="sans-serif"> Marshall</text></g><g class="node" transform="translate(-34.74041035318382,66.7592058983879)"><circle class="outline" cx="0" cy="0" r="25" fill="#57C7E3" stroke="#23b3d7" stroke-width="2px"/><text text-anchor="middle" pointer-events="none" font-family="sans-serif" dy="1.5625" font-size="25" fill="#2A2C34"/><text text-anchor="middle" pointer-events="none" font-family="sans-serif" dy="1.5625" font-size="25" fill="#2A2C34"/><text text-anchor="middle" pointer-events="none" font-family="sans-serif" dy="1.5625" font-size="25" fill="#2A2C34"/><text text-anchor="middle" pointer-events="none" x="0" y="-5" font-size="10px" fill="#2A2C34" font-family="sans-serif"> The</text><text text-anchor="middle" pointer-events="none" x="0" y="5" font-size="10px" fill="#2A2C34" font-family="sans-serif"> Matrix</text><text text-anchor="middle" pointer-events="none" x="0" y="15" font-size="10px" fill="#2A2C34" font-family="sans-serif"> Revol…</text></g><g class="node" transform="translate(-211.2896767197907,-100.44558201366826)"><circle class="outline" cx="0" cy="0" r="25" fill="#57C7E3" stroke="#23b3d7" stroke-width="2px"/><text text-anchor="middle" pointer-events="none" font-family="sans-serif" dy="1.5625" font-size="25" fill="#2A2C34"/><text text-anchor="middle" pointer-events="none" font-family="sans-serif" dy="1.5625" font-size="25" fill="#2A2C34"/><text text-anchor="middle" pointer-events="none" font-family="sans-serif" dy="1.5625" font-size="25" fill="#2A2C34"/><text text-anchor="middle" pointer-events="none" x="0" y="-5" font-size="10px" fill="#2A2C34" font-family="sans-serif"> The</text><text text-anchor="middle" pointer-events="none" x="0" y="5" font-size="10px" fill="#2A2C34" font-family="sans-serif"> Matrix</text><text text-anchor="middle" pointer-events="none" x="0" y="15" font-size="10px" fill="#2A2C34" font-family="sans-serif"> Reloa…</text></g><g class="node" transform="translate(7.441295061965491,249.5401479870057)"><circle class="outline" cx="0" cy="0" r="25" fill="#57C7E3" stroke="#23b3d7" stroke-width="2px"/><text text-anchor="middle" pointer-events="none" font-family="sans-serif" dy="1.5625" font-size="25" fill="#2A2C34"/><text text-anchor="middle" pointer-events="none" font-family="sans-serif" dy="1.5625" font-size="25" fill="#2A2C34"/><text text-anchor="middle" pointer-events="none" x="0" y="0" font-size="10px" fill="#2A2C34" font-family="sans-serif"> The</text><text text-anchor="middle" pointer-events="none" x="0" y="10" font-size="10px" fill="#2A2C34" font-family="sans-serif"> Matrix</text></g></g></svg>