<svg xmlns="http://www.w3.org/2000/svg" width="246.1857452392578" height="258.1064453125" viewBox="-14.05451774597168 -14.931693077087402 246.1857452392578 258.1064453125"><title>Neo4j Graph Visualization</title><desc>Created using Neo4j (http://www.neo4j.com/)</desc><g class="layer relationships"><g class="relationship" transform="translate(124.57913771146467 129.1881444564144) rotate(408.68291836461873)"><path class="outline" fill="#A5ABB6" stroke="none" d="M 32.5 0.5 L 34.045979587967096 0.5 L 34.045979587967096 -0.5 L 32.5 -0.5 Z M 79.6084795879671 0.5 L 81.15445917593419 0.5 L 81.15445917593419 3.5 L 88.15445917593419 0 L 81.15445917593419 -3.5 L 81.15445917593419 -0.5 L 79.6084795879671 -0.5 Z"/><text text-anchor="middle" pointer-events="none" font-size="8px" fill="#000000" x="56.827229587967096" y="3" font-family="sans-serif">ACTED_IN</text></g><g class="relationship" transform="translate(124.57913771146467 129.1881444564144) rotate(311.54669442695706)"><path class="outline" fill="#A5ABB6" stroke="none" d="M 32.5 0.5 L 36.68808324557272 0.5 L 36.68808324557272 -0.5 L 32.5 -0.5 Z M 82.25058324557273 0.5 L 86.43866649114544 0.5 L 86.43866649114544 3.5 L 93.43866649114544 0 L 86.43866649114544 -3.5 L 86.43866649114544 -0.5 L 82.25058324557273 -0.5 Z"/><text text-anchor="middle" pointer-events="none" font-size="8px" fill="#000000" x="59.46933324557272" y="3" font-family="sans-serif">ACTED_IN</text></g><g class="relationship" transform="translate(124.57913771146467 129.1881444564144) rotate(255.49064993054276)"><path class="outline" fill="#A5ABB6" stroke="none" d="M 32.5 0.5 L 36.92491824412256 0.5 L 36.92491824412256 -0.5 L 32.5 -0.5 Z M 82.48741824412255 0.5 L 86.91233648824512 0.5 L 86.91233648824512 3.5 L 93.91233648824512 0 L 86.91233648824512 -3.5 L 86.91233648824512 -0.5 L 82.48741824412255 -0.5 Z"/><text text-anchor="middle" pointer-events="none" font-size="8px" fill="#000000" x="59.70616824412256" y="3" transform="rotate(180 59.70616824412256 0)" font-family="sans-serif">ACTED_IN</text></g><g class="relationship" transform="translate(124.57913771146467 129.1881444564144) rotate(202.740252738609)"><path class="outline" fill="#A5ABB6" stroke="none" d="M 32.5 0.5 L 36.9058140142386 0.5 L 36.9058140142386 -0.5 L 32.5 -0.5 Z M 82.4683140142386 0.5 L 86.8741280284772 0.5 L 86.8741280284772 3.5 L 93.8741280284772 0 L 86.8741280284772 -3.5 L 86.8741280284772 -0.5 L 82.4683140142386 -0.5 Z"/><text text-anchor="middle" pointer-events="none" font-size="8px" fill="#000000" x="59.6870640142386" y="3" transform="rotate(180 59.6870640142386 0)" font-family="sans-serif">ACTED_IN</text></g><g class="relationship" transform="translate(124.57913771146467 129.1881444564144) rotate(506.5488036646018)"><path class="outline" fill="#A5ABB6" stroke="none" d="M 32.5 0.5 L 36.62704633760558 0.5 L 36.62704633760558 -0.5 L 32.5 -0.5 Z M 82.18954633760558 0.5 L 86.31659267521115 0.5 L 86.31659267521115 3.5 L 93.31659267521115 0 L 86.31659267521115 -3.5 L 86.31659267521115 -0.5 L 82.18954633760558 -0.5 Z"/><text text-anchor="middle" pointer-events="none" font-size="8px" fill="#000000" x="59.40829633760558" y="3" transform="rotate(180 59.40829633760558 0)" font-family="sans-serif">ACTED_IN</text></g></g><g class="layer nodes"><g class="node" transform="translate(124.57913771146467,129.1881444564144)"><circle class="outline" cx="0" cy="0" r="32.5" fill="#F79767" stroke="#f36924" stroke-width="2px"/><text text-anchor="middle" pointer-events="none" font-family="sans-serif" dy="2.03125" font-size="32.5" fill="#FFFFFF"/><text text-anchor="middle" pointer-events="none" font-family="sans-serif" dy="2.03125" font-size="32.5" fill="#FFFFFF"/><text text-anchor="middle" pointer-events="none" x="0" y="0" font-size="10px" fill="#FFFFFF" font-family="sans-serif"> Hugo</text><text text-anchor="middle" pointer-events="none" x="0" y="10" font-size="10px" fill="#FFFFFF" font-family="sans-serif"> Weaving</text></g><g class="node" transform="translate(199.28660995109996,214.17476236160155)"><circle class="outline" cx="0" cy="0" r="25" fill="#57C7E3" stroke="#23b3d7" stroke-width="2px"/><text text-anchor="middle" pointer-events="none" font-family="sans-serif" dy="1.5625" font-size="25" fill="#2A2C34"/><text text-anchor="middle" pointer-events="none" font-family="sans-serif" dy="1.5625" font-size="25" fill="#2A2C34"/><text text-anchor="middle" pointer-events="none" x="0" y="0" font-size="10px" fill="#2A2C34" font-family="sans-serif"> Cloud</text><text text-anchor="middle" pointer-events="none" x="0" y="10" font-size="10px" fill="#2A2C34" font-family="sans-serif"> Atlas</text></g><g class="node" transform="translate(203.13123884659439,40.54681590445093)"><circle class="outline" cx="0" cy="0" r="25" fill="#57C7E3" stroke="#23b3d7" stroke-width="2px"/><text text-anchor="middle" pointer-events="none" font-family="sans-serif" dy="1.5625" font-size="25" fill="#2A2C34"/><text text-anchor="middle" pointer-events="none" font-family="sans-serif" dy="1.5625" font-size="25" fill="#2A2C34"/><text text-anchor="middle" pointer-events="none" x="0" y="0" font-size="10px" fill="#2A2C34" font-family="sans-serif"> V for</text><text text-anchor="middle" pointer-events="none" x="0" y="10" font-size="10px" fill="#2A2C34" font-family="sans-serif"> Vendetta</text></g><g class="node" transform="translate(94.78707967434848,14.068306691558531)"><circle class="outline" cx="0" cy="0" r="25" fill="#57C7E3" stroke="#23b3d7" stroke-width="2px"/><text text-anchor="middle" pointer-events="none" font-family="sans-serif" dy="1.5625" font-size="25" fill="#2A2C34"/><text text-anchor="middle" pointer-events="none" font-family="sans-serif" dy="1.5625" font-size="25" fill="#2A2C34"/><text text-anchor="middle" pointer-events="none" font-family="sans-serif" dy="1.5625" font-size="25" fill="#2A2C34"/><text text-anchor="middle" pointer-events="none" x="0" y="-5" font-size="10px" fill="#2A2C34" font-family="sans-serif"> The</text><text text-anchor="middle" pointer-events="none" x="0" y="5" font-size="10px" fill="#2A2C34" font-family="sans-serif"> Matrix</text><text text-anchor="middle" pointer-events="none" x="0" y="15" font-size="10px" fill="#2A2C34" font-family="sans-serif"> Revol…</text></g><g class="node" transform="translate(14.945482436369199,83.23686650299592)"><circle class="outline" cx="0" cy="0" r="25" fill="#57C7E3" stroke="#23b3d7" stroke-width="2px"/><text text-anchor="middle" pointer-events="none" font-family="sans-serif" dy="1.5625" font-size="25" fill="#2A2C34"/><text text-anchor="middle" pointer-events="none" font-family="sans-serif" dy="1.5625" font-size="25" fill="#2A2C34"/><text text-anchor="middle" pointer-events="none" font-family="sans-serif" dy="1.5625" font-size="25" fill="#2A2C34"/><text text-anchor="middle" pointer-events="none" x="0" y="-5" font-size="10px" fill="#2A2C34" font-family="sans-serif"> The</text><text text-anchor="middle" pointer-events="none" x="0" y="5" font-size="10px" fill="#2A2C34" font-family="sans-serif"> Matrix</text><text text-anchor="middle" pointer-events="none" x="0" y="15" font-size="10px" fill="#2A2C34" font-family="sans-serif"> Reloa…</text></g><g class="node" transform="translate(25.861020012224387,194.40738502383263)"><circle class="outline" cx="0" cy="0" r="25" fill="#57C7E3" stroke="#23b3d7" stroke-width="2px"/><text text-anchor="middle" pointer-events="none" font-family="sans-serif" dy="1.5625" font-size="25" fill="#2A2C34"/><text text-anchor="middle" pointer-events="none" font-family="sans-serif" dy="1.5625" font-size="25" fill="#2A2C34"/><text text-anchor="middle" pointer-events="none" x="0" y="0" font-size="10px" fill="#2A2C34" font-family="sans-serif"> The</text><text text-anchor="middle" pointer-events="none" x="0" y="10" font-size="10px" fill="#2A2C34" font-family="sans-serif"> Matrix</text></g></g></svg>