<svg xmlns="http://www.w3.org/2000/svg" width="192.94700622558594" height="287.94598388671875" viewBox="2.402719497680664 -69.13838195800781 192.94700622558594 287.94598388671875"><title>Neo4j Graph Visualization</title><desc>Created using Neo4j (http://www.neo4j.com/)</desc><g class="layer relationships"><g class="relationship" transform="translate(63.45795039873684 182.30760372109296) rotate(321.01188222019186)"><path class="outline" fill="#A5ABB6" stroke="none" d="M 32.5 0.5 L 43.65612305918114 0.5 L 43.65612305918114 -0.5 L 32.5 -0.5 Z M 89.21862305918114 0.5 L 100.37474611836228 0.5 L 100.37474611836228 3.5 L 107.37474611836228 0 L 100.37474611836228 -3.5 L 100.37474611836228 -0.5 L 89.21862305918114 -0.5 Z"/><text text-anchor="middle" pointer-events="none" font-size="8px" fill="#000000" x="66.43737305918114" y="3" font-family="sans-serif">ACTED_IN</text></g><g class="relationship" transform="translate(131.25499839673725 -32.638384925886776) rotate(435.0746477274428)"><path class="outline" fill="#A5ABB6" stroke="none" d="M 32.5 0.5 L 45.59787520373824 0.5 L 45.59787520373824 -0.5 L 32.5 -0.5 Z M 91.16037520373824 0.5 L 104.25825040747648 0.5 L 104.25825040747648 3.5 L 111.25825040747648 0 L 104.25825040747648 -3.5 L 104.25825040747648 -0.5 L 91.16037520373824 -0.5 Z"/><text text-anchor="middle" pointer-events="none" font-size="8px" fill="#000000" x="68.37912520373824" y="3" font-family="sans-serif">ACTED_IN</text></g><g class="relationship" transform="translate(63.45795039873684 182.30760372109296) rotate(289.72504586862124)"><path class="outline" fill="#A5ABB6" stroke="none" d="M 32.5 0.5 L 33.16725469815979 0.5 L 33.16725469815979 -0.5 L 32.5 -0.5 Z M 78.72975469815978 0.5 L 79.39700939631958 0.5 L 79.39700939631958 3.5 L 86.39700939631958 0 L 79.39700939631958 -3.5 L 79.39700939631958 -0.5 L 78.72975469815978 -0.5 Z"/><text text-anchor="middle" pointer-events="none" font-size="8px" fill="#000000" x="55.94850469815979" y="3" font-family="sans-serif">ACTED_IN</text></g><g class="relationship" transform="translate(131.25499839673725 -32.638384925886776) rotate(465.34059084609856)"><path class="outline" fill="#A5ABB6" stroke="none" d="M 32.5 0.5 L 34.54507102807978 0.5 L 34.54507102807978 -0.5 L 32.5 -0.5 Z M 80.10757102807978 0.5 L 82.15264205615956 0.5 L 82.15264205615956 3.5 L 89.15264205615956 0 L 82.15264205615956 -3.5 L 82.15264205615956 -0.5 L 80.10757102807978 -0.5 Z"/><text text-anchor="middle" pointer-events="none" font-size="8px" fill="#000000" x="57.32632102807978" y="3" transform="rotate(180 57.32632102807978 0)" font-family="sans-serif">ACTED_IN</text></g><g class="relationship" transform="translate(63.45795039873684 182.30760372109296) rotate(255.71986115943008)"><path class="outline" fill="#A5ABB6" stroke="none" d="M 32.5 0.5 L 42.44651126219922 0.5 L 42.44651126219922 -0.5 L 32.5 -0.5 Z M 88.00901126219922 0.5 L 97.95552252439845 0.5 L 97.95552252439845 3.5 L 104.95552252439845 0 L 97.95552252439845 -3.5 L 97.95552252439845 -0.5 L 88.00901126219922 -0.5 Z"/><text text-anchor="middle" pointer-events="none" font-size="8px" fill="#000000" x="65.22776126219922" y="3" transform="rotate(180 65.22776126219922 0)" font-family="sans-serif">ACTED_IN</text></g><g class="relationship" transform="translate(131.25499839673725 -32.638384925886776) rotate(498.28695549508103)"><path class="outline" fill="#A5ABB6" stroke="none" d="M 32.5 0.5 L 44.35023504351611 0.5 L 44.35023504351611 -0.5 L 32.5 -0.5 Z M 89.91273504351611 0.5 L 101.76297008703222 0.5 L 101.76297008703222 3.5 L 108.76297008703222 0 L 101.76297008703222 -3.5 L 101.76297008703222 -0.5 L 89.91273504351611 -0.5 Z"/><text text-anchor="middle" pointer-events="none" font-size="8px" fill="#000000" x="67.13148504351611" y="3" transform="rotate(180 67.13148504351611 0)" font-family="sans-serif">ACTED_IN</text></g></g><g class="layer nodes"><g class="node" transform="translate(63.45795039873684,182.30760372109296)"><circle class="outline" cx="0" cy="0" r="32.5" fill="#F79767" stroke="#f36924" stroke-width="2px"/><text text-anchor="middle" pointer-events="none" font-family="sans-serif" dy="2.03125" font-size="32.5" fill="#FFFFFF"/><text text-anchor="middle" pointer-events="none" font-family="sans-serif" dy="2.03125" font-size="32.5" fill="#FFFFFF"/><text text-anchor="middle" pointer-events="none" x="0" y="0" font-size="10px" fill="#FFFFFF" font-family="sans-serif"> Hugo</text><text text-anchor="middle" pointer-events="none" x="0" y="10" font-size="10px" fill="#FFFFFF" font-family="sans-serif"> Weaving</text></g><g class="node" transform="translate(166.3497238777502,99.02281303129007)"><circle class="outline" cx="0" cy="0" r="25" fill="#57C7E3" stroke="#23b3d7" stroke-width="2px"/><text text-anchor="middle" pointer-events="none" font-family="sans-serif" dy="1.5625" font-size="25" fill="#2A2C34"/><text text-anchor="middle" pointer-events="none" font-family="sans-serif" dy="1.5625" font-size="25" fill="#2A2C34"/><text text-anchor="middle" pointer-events="none" font-family="sans-serif" dy="1.5625" font-size="25" fill="#2A2C34"/><text text-anchor="middle" pointer-events="none" x="0" y="-5" font-size="10px" fill="#2A2C34" font-family="sans-serif"> The</text><text text-anchor="middle" pointer-events="none" x="0" y="5" font-size="10px" fill="#2A2C34" font-family="sans-serif"> Matrix</text><text text-anchor="middle" pointer-events="none" x="0" y="15" font-size="10px" fill="#2A2C34" font-family="sans-serif"> Revol…</text></g><g class="node" transform="translate(131.25499839673725,-32.638384925886776)"><circle class="outline" cx="0" cy="0" r="32.5" fill="#F79767" stroke="#f36924" stroke-width="2px"/><text text-anchor="middle" pointer-events="none" font-family="sans-serif" dy="2.03125" font-size="32.5" fill="#FFFFFF"/><text text-anchor="middle" pointer-events="none" font-family="sans-serif" dy="2.03125" font-size="32.5" fill="#FFFFFF"/><text text-anchor="middle" pointer-events="none" x="0" y="0" font-size="10px" fill="#FFFFFF" font-family="sans-serif"> Keanu</text><text text-anchor="middle" pointer-events="none" x="0" y="10" font-size="10px" fill="#FFFFFF" font-family="sans-serif"> Reeves</text></g><g class="node" transform="translate(101.05519566505711,77.44702556691783)"><circle class="outline" cx="0" cy="0" r="25" fill="#57C7E3" stroke="#23b3d7" stroke-width="2px"/><text text-anchor="middle" pointer-events="none" font-family="sans-serif" dy="1.5625" font-size="25" fill="#2A2C34"/><text text-anchor="middle" pointer-events="none" font-family="sans-serif" dy="1.5625" font-size="25" fill="#2A2C34"/><text text-anchor="middle" pointer-events="none" font-family="sans-serif" dy="1.5625" font-size="25" fill="#2A2C34"/><text text-anchor="middle" pointer-events="none" x="0" y="-5" font-size="10px" fill="#2A2C34" font-family="sans-serif"> The</text><text text-anchor="middle" pointer-events="none" x="0" y="5" font-size="10px" fill="#2A2C34" font-family="sans-serif"> Matrix</text><text text-anchor="middle" pointer-events="none" x="0" y="15" font-size="10px" fill="#2A2C34" font-family="sans-serif"> Reloa…</text></g><g class="node" transform="translate(31.402718905331184,56.367538735824645)"><circle class="outline" cx="0" cy="0" r="25" fill="#57C7E3" stroke="#23b3d7" stroke-width="2px"/><text text-anchor="middle" pointer-events="none" font-family="sans-serif" dy="1.5625" font-size="25" fill="#2A2C34"/><text text-anchor="middle" pointer-events="none" font-family="sans-serif" dy="1.5625" font-size="25" fill="#2A2C34"/><text text-anchor="middle" pointer-events="none" x="0" y="0" font-size="10px" fill="#2A2C34" font-family="sans-serif"> The</text><text text-anchor="middle" pointer-events="none" x="0" y="10" font-size="10px" fill="#2A2C34" font-family="sans-serif"> Matrix</text></g></g></svg>