<svg xmlns="http://www.w3.org/2000/svg" width="565.92041015625" height="511.615234375" viewBox="-187.6851806640625 -273.0009765625 565.92041015625 511.615234375"><title>Neo4j Graph Visualization</title><desc>Created using Neo4j (http://www.neo4j.com/)</desc><g class="layer relationships"><g class="relationship" transform="translate(-37.80811362414505 -103.6142578562521) rotate(361.0492789393822)"><path class="outline" fill="#A5ABB6" stroke="none" d="M 32.5 0.5 L 68.68906203738067 0.5 L 68.68906203738067 -0.5 L 32.5 -0.5 Z M 114.25156203738067 0.5 L 150.44062407476133 0.5 L 150.44062407476133 3.5 L 157.44062407476133 0 L 150.44062407476133 -3.5 L 150.44062407476133 -0.5 L 114.25156203738067 -0.5 Z"/><text text-anchor="middle" pointer-events="none" font-size="8px" fill="#000000" x="91.47031203738067" y="3" font-family="sans-serif">ACTED_IN</text></g><g class="relationship" transform="translate(-37.80811362414505 -103.6142578562521) rotate(539.5071394520306)"><path class="outline" fill="#A5ABB6" stroke="none" d="M 32.5 0.5 L 37.909518539824 0.5 L 37.909518539824 -0.5 L 32.5 -0.5 Z M 83.472018539824 0.5 L 88.881537079648 0.5 L 88.881537079648 3.5 L 95.881537079648 0 L 88.881537079648 -3.5 L 88.881537079648 -0.5 L 83.472018539824 -0.5 Z"/><text text-anchor="middle" pointer-events="none" font-size="8px" fill="#000000" x="60.690768539824" y="3" transform="rotate(180 60.690768539824 0)" font-family="sans-serif">ACTED_IN</text></g><g class="relationship" transform="translate(-37.80811362414505 -103.6142578562521) rotate(502.1075807238002)"><path class="outline" fill="#A5ABB6" stroke="none" d="M 32.5 0.5 L 43.917390633948315 0.5 L 43.917390633948315 -0.5 L 32.5 -0.5 Z M 89.47989063394832 0.5 L 100.89728126789663 0.5 L 100.89728126789663 3.5 L 107.89728126789663 0 L 100.89728126789663 -3.5 L 100.89728126789663 -0.5 L 89.47989063394832 -0.5 Z"/><text text-anchor="middle" pointer-events="none" font-size="8px" fill="#000000" x="66.69864063394832" y="3" transform="rotate(180 66.69864063394832 0)" font-family="sans-serif">ACTED_IN</text></g><g class="relationship" transform="translate(-37.80811362414505 -103.6142578562521) rotate(384.42024664590684)"><path class="outline" fill="#A5ABB6" stroke="none" d="M 32.5 0.5 L 190.00436925880933 0.5 L 190.00436925880933 -0.5 L 32.5 -0.5 Z M 235.56686925880933 0.5 L 393.07123851761867 0.5 L 393.07123851761867 3.5 L 400.07123851761867 0 L 393.07123851761867 -3.5 L 393.07123851761867 -0.5 L 235.56686925880933 -0.5 Z"/><text text-anchor="middle" pointer-events="none" font-size="8px" fill="#000000" x="212.78561925880933" y="3" font-family="sans-serif">ACTED_IN</text></g><g class="relationship" transform="translate(-37.80811362414505 -103.6142578562521) rotate(261.86173701114706)"><path class="outline" fill="#A5ABB6" stroke="none" d="M 32.5 0.5 L 47.694339365202524 0.5 L 47.694339365202524 -0.5 L 32.5 -0.5 Z M 93.25683936520252 0.5 L 108.45117873040505 0.5 L 108.45117873040505 3.5 L 115.45117873040505 0 L 108.45117873040505 -3.5 L 108.45117873040505 -0.5 L 93.25683936520252 -0.5 Z"/><text text-anchor="middle" pointer-events="none" font-size="8px" fill="#000000" x="70.47558936520252" y="3" transform="rotate(180 70.47558936520252 0)" font-family="sans-serif">ACTED_IN</text></g><g class="relationship" transform="translate(142.03137495050896 -236.5009538127377) rotate(448.9189872621421)"><path class="outline" fill="#A5ABB6" stroke="none" d="M 32.5 0.5 L 45.594681250849234 0.5 L 45.594681250849234 -0.5 L 32.5 -0.5 Z M 91.15718125084923 0.5 L 104.25186250169847 0.5 L 104.25186250169847 3.5 L 111.25186250169847 0 L 104.25186250169847 -3.5 L 104.25186250169847 -0.5 L 91.15718125084923 -0.5 Z"/><text text-anchor="middle" pointer-events="none" font-size="8px" fill="#000000" x="68.37593125084923" y="3" font-family="sans-serif">ACTED_IN</text></g><g class="relationship" transform="translate(142.03137495050896 -236.5009538127377) rotate(416.12324591856145)"><path class="outline" fill="#A5ABB6" stroke="none" d="M 32.5 0.5 L 163.33238247010146 0.5 L 163.33238247010146 -0.5 L 32.5 -0.5 Z M 208.89488247010146 0.5 L 339.72726494020293 0.5 L 339.72726494020293 3.5 L 346.72726494020293 0 L 339.72726494020293 -3.5 L 339.72726494020293 -0.5 L 208.89488247010146 -0.5 Z"/><text text-anchor="middle" pointer-events="none" font-size="8px" fill="#000000" x="186.11363247010146" y="3" font-family="sans-serif">ACTED_IN</text></g><g class="relationship" transform="translate(142.03137495050896 -236.5009538127377) rotate(181.76375292672077)"><path class="outline" fill="#A5ABB6" stroke="none" d="M 32.5 0.5 L 77.37712739211081 0.5 L 77.37712739211081 -0.5 L 32.5 -0.5 Z M 122.93962739211081 0.5 L 167.81675478422162 0.5 L 167.81675478422162 3.5 L 174.81675478422162 0 L 167.81675478422162 -3.5 L 167.81675478422162 -0.5 L 122.93962739211081 -0.5 Z"/><text text-anchor="middle" pointer-events="none" font-size="8px" fill="#000000" x="100.15837739211081" y="3" transform="rotate(180 100.15837739211081 0)" font-family="sans-serif">ACTED_IN</text></g><g class="relationship" transform="translate(322.07073327753494 -96.3388002356375) rotate(181.27005799060953)"><path class="outline" fill="#A5ABB6" stroke="none" d="M 32.5 0.5 L 66.22496253778351 0.5 L 66.22496253778351 -0.5 L 32.5 -0.5 Z M 111.78746253778351 0.5 L 145.51242507556702 0.5 L 145.51242507556702 3.5 L 152.51242507556702 0 L 145.51242507556702 -3.5 L 145.51242507556702 -0.5 L 111.78746253778351 -0.5 Z"/><text text-anchor="middle" pointer-events="none" font-size="8px" fill="#000000" x="89.00621253778351" y="3" transform="rotate(180 89.00621253778351 0)" font-family="sans-serif">ACTED_IN</text></g><g class="relationship" transform="translate(322.07073327753494 -96.3388002356375) rotate(440.8398011653747)"><path class="outline" fill="#A5ABB6" stroke="none" d="M 32.5 0.5 L 62.78687167556896 0.5 L 62.78687167556896 -0.5 L 32.5 -0.5 Z M 108.34937167556896 0.5 L 138.63624335113792 0.5 L 138.63624335113792 3.5 L 145.63624335113792 0 L 138.63624335113792 -3.5 L 138.63624335113792 -0.5 L 108.34937167556896 -0.5 Z"/><text text-anchor="middle" pointer-events="none" font-size="8px" fill="#000000" x="85.56812167556896" y="3" font-family="sans-serif">ACTED_IN</text></g><g class="relationship" transform="translate(322.07073327753494 -96.3388002356375) rotate(201.0703753304523)"><path class="outline" fill="#A5ABB6" stroke="none" d="M 32.5 0.5 L 180.95463161892485 0.5 L 180.95463161892485 -0.5 L 32.5 -0.5 Z M 226.51713161892485 0.5 L 374.9717632378497 0.5 L 374.9717632378497 3.5 L 381.9717632378497 0 L 374.9717632378497 -3.5 L 374.9717632378497 -0.5 L 226.51713161892485 -0.5 Z"/><text text-anchor="middle" pointer-events="none" font-size="8px" fill="#000000" x="203.73588161892485" y="3" transform="rotate(180 203.73588161892485 0)" font-family="sans-serif">ACTED_IN</text></g><g class="relationship" transform="translate(153.27266436980352 80.92502748921945) rotate(267.26035886790504)"><path class="outline" fill="#A5ABB6" stroke="none" d="M 32.5 0.5 L 68.17160384889941 0.5 L 68.17160384889941 -0.5 L 32.5 -0.5 Z M 113.73410384889941 0.5 L 149.40570769779882 0.5 L 149.40570769779882 3.5 L 156.40570769779882 0 L 149.40570769779882 -3.5 L 149.40570769779882 -0.5 L 113.73410384889941 -0.5 Z"/><text text-anchor="middle" pointer-events="none" font-size="8px" fill="#000000" x="90.95285384889941" y="3" transform="rotate(180 90.95285384889941 0)" font-family="sans-serif">ACTED_IN</text></g><g class="relationship" transform="translate(153.27266436980352 80.92502748921945) rotate(480.45015768835873)"><path class="outline" fill="#A5ABB6" stroke="none" d="M 32.5 0.5 L 43.017959138456234 0.5 L 43.017959138456234 -0.5 L 32.5 -0.5 Z M 88.58045913845623 0.5 L 99.09841827691247 0.5 L 99.09841827691247 3.5 L 106.09841827691247 0 L 99.09841827691247 -3.5 L 99.09841827691247 -0.5 L 88.58045913845623 -0.5 Z"/><text text-anchor="middle" pointer-events="none" font-size="8px" fill="#000000" x="65.79920913845623" y="3" transform="rotate(180 65.79920913845623 0)" font-family="sans-serif">ACTED_IN</text></g><g class="relationship" transform="translate(153.27266436980352 80.92502748921945) rotate(519.3586071545719)"><path class="outline" fill="#A5ABB6" stroke="none" d="M 32.5 0.5 L 38.507729997135556 0.5 L 38.507729997135556 -0.5 L 32.5 -0.5 Z M 84.07022999713556 0.5 L 90.07795999427111 0.5 L 90.07795999427111 3.5 L 97.07795999427111 0 L 90.07795999427111 -3.5 L 90.07795999427111 -0.5 L 84.07022999713556 -0.5 Z"/><text text-anchor="middle" pointer-events="none" font-size="8px" fill="#000000" x="61.288979997135556" y="3" transform="rotate(180 61.288979997135556 0)" font-family="sans-serif">ACTED_IN</text></g><g class="relationship" transform="translate(153.27266436980352 80.92502748921945) rotate(402.32189130494254)"><path class="outline" fill="#A5ABB6" stroke="none" d="M 32.5 0.5 L 37.949003204646225 0.5 L 37.949003204646225 -0.5 L 32.5 -0.5 Z M 83.51150320464623 0.5 L 88.96050640929245 0.5 L 88.96050640929245 3.5 L 95.96050640929245 0 L 88.96050640929245 -3.5 L 88.96050640929245 -0.5 L 83.51150320464623 -0.5 Z"/><text text-anchor="middle" pointer-events="none" font-size="8px" fill="#000000" x="60.730253204646225" y="3" font-family="sans-serif">ACTED_IN</text></g><g class="relationship" transform="translate(153.27266436980352 80.92502748921945) rotate(443.6293042521521)"><path class="outline" fill="#A5ABB6" stroke="none" d="M 32.5 0.5 L 42.213185215585355 0.5 L 42.213185215585355 -0.5 L 32.5 -0.5 Z M 87.77568521558536 0.5 L 97.48887043117071 0.5 L 97.48887043117071 3.5 L 104.48887043117071 0 L 97.48887043117071 -3.5 L 97.48887043117071 -0.5 L 87.77568521558536 -0.5 Z"/><text text-anchor="middle" pointer-events="none" font-size="8px" fill="#000000" x="64.99443521558536" y="3" font-family="sans-serif">ACTED_IN</text></g><g class="relationship" transform="translate(153.27266436980352 80.92502748921945) rotate(357.427695037602)"><path class="outline" fill="#A5ABB6" stroke="none" d="M 32.5 0.5 L 75.54886645546004 0.5 L 75.54886645546004 -0.5 L 32.5 -0.5 Z M 121.11136645546004 0.5 L 164.1602329109201 0.5 L 164.1602329109201 3.5 L 171.1602329109201 0 L 164.1602329109201 -3.5 L 164.1602329109201 -0.5 L 121.11136645546004 -0.5 Z"/><text text-anchor="middle" pointer-events="none" font-size="8px" fill="#000000" x="98.33011645546004" y="3" font-family="sans-serif">ACTED_IN</text></g><g class="relationship" transform="translate(153.27266436980352 80.92502748921945) rotate(236.89666759020076)"><path class="outline" fill="#A5ABB6" stroke="none" d="M 32.5 0.5 L 170.60535488330117 0.5 L 170.60535488330117 -0.5 L 32.5 -0.5 Z M 216.16785488330117 0.5 L 354.27320976660235 0.5 L 354.27320976660235 3.5 L 361.27320976660235 0 L 354.27320976660235 -3.5 L 354.27320976660235 -0.5 L 216.16785488330117 -0.5 Z"/><text text-anchor="middle" pointer-events="none" font-size="8px" fill="#000000" x="193.38660488330117" y="3" transform="rotate(180 193.38660488330117 0)" font-family="sans-serif">ACTED_IN</text></g></g><g class="layer nodes"><g class="node" transform="translate(144.6019178735423,-100.27334154465677)"><circle class="outline" cx="0" cy="0" r="25" fill="#57C7E3" stroke="#23b3d7" stroke-width="2px"/><text text-anchor="middle" pointer-events="none" font-family="sans-serif" dy="1.5625" font-size="25" fill="#2A2C34"/><text text-anchor="middle" pointer-events="none" font-family="sans-serif" dy="1.5625" font-size="25" fill="#2A2C34"/><text text-anchor="middle" pointer-events="none" x="0" y="0" font-size="10px" fill="#2A2C34" font-family="sans-serif"> The</text><text text-anchor="middle" pointer-events="none" x="0" y="10" font-size="10px" fill="#2A2C34" font-family="sans-serif"> Matrix</text></g><g class="node" transform="translate(-37.80811362414505,-103.6142578562521)"><circle class="outline" cx="0" cy="0" r="32.5" fill="#F79767" stroke="#f36924" stroke-width="2px"/><text text-anchor="middle" pointer-events="none" font-family="sans-serif" dy="2.03125" font-size="32.5" fill="#FFFFFF"/><text text-anchor="middle" pointer-events="none" font-family="sans-serif" dy="2.03125" font-size="32.5" fill="#FFFFFF"/><text text-anchor="middle" pointer-events="none" x="0" y="0" font-size="10px" fill="#FFFFFF" font-family="sans-serif"> Hugo</text><text text-anchor="middle" pointer-events="none" x="0" y="10" font-size="10px" fill="#FFFFFF" font-family="sans-serif"> Weaving</text></g><g class="node" transform="translate(-158.68517841184405,-102.57444294544716)"><circle class="outline" cx="0" cy="0" r="25" fill="#57C7E3" stroke="#23b3d7" stroke-width="2px"/><text text-anchor="middle" pointer-events="none" font-family="sans-serif" dy="1.5625" font-size="25" fill="#2A2C34"/><text text-anchor="middle" pointer-events="none" font-family="sans-serif" dy="1.5625" font-size="25" fill="#2A2C34"/><text text-anchor="middle" pointer-events="none" x="0" y="0" font-size="10px" fill="#2A2C34" font-family="sans-serif"> Cloud</text><text text-anchor="middle" pointer-events="none" x="0" y="10" font-size="10px" fill="#2A2C34" font-family="sans-serif"> Atlas</text></g><g class="node" transform="translate(-142.68604352679944,-21.991300376555593)"><circle class="outline" cx="0" cy="0" r="25" fill="#57C7E3" stroke="#23b3d7" stroke-width="2px"/><text text-anchor="middle" pointer-events="none" font-family="sans-serif" dy="1.5625" font-size="25" fill="#2A2C34"/><text text-anchor="middle" pointer-events="none" font-family="sans-serif" dy="1.5625" font-size="25" fill="#2A2C34"/><text text-anchor="middle" pointer-events="none" x="0" y="0" font-size="10px" fill="#2A2C34" font-family="sans-serif"> V for</text><text text-anchor="middle" pointer-events="none" x="0" y="10" font-size="10px" fill="#2A2C34" font-family="sans-serif"> Vendetta</text></g><g class="node" transform="translate(349.2352423413885,72.12133449156903)"><circle class="outline" cx="0" cy="0" r="25" fill="#57C7E3" stroke="#23b3d7" stroke-width="2px"/><text text-anchor="middle" pointer-events="none" font-family="sans-serif" dy="1.5625" font-size="25" fill="#2A2C34"/><text text-anchor="middle" pointer-events="none" font-family="sans-serif" dy="1.5625" font-size="25" fill="#2A2C34"/><text text-anchor="middle" pointer-events="none" font-family="sans-serif" dy="1.5625" font-size="25" fill="#2A2C34"/><text text-anchor="middle" pointer-events="none" x="0" y="-5" font-size="10px" fill="#2A2C34" font-family="sans-serif"> The</text><text text-anchor="middle" pointer-events="none" x="0" y="5" font-size="10px" fill="#2A2C34" font-family="sans-serif"> Matrix</text><text text-anchor="middle" pointer-events="none" x="0" y="15" font-size="10px" fill="#2A2C34" font-family="sans-serif"> Revol…</text></g><g class="node" transform="translate(-57.6907130024955,-242.65100065728365)"><circle class="outline" cx="0" cy="0" r="25" fill="#57C7E3" stroke="#23b3d7" stroke-width="2px"/><text text-anchor="middle" pointer-events="none" font-family="sans-serif" dy="1.5625" font-size="25" fill="#2A2C34"/><text text-anchor="middle" pointer-events="none" font-family="sans-serif" dy="1.5625" font-size="25" fill="#2A2C34"/><text text-anchor="middle" pointer-events="none" font-family="sans-serif" dy="1.5625" font-size="25" fill="#2A2C34"/><text text-anchor="middle" pointer-events="none" x="0" y="-5" font-size="10px" fill="#2A2C34" font-family="sans-serif"> The</text><text text-anchor="middle" pointer-events="none" x="0" y="5" font-size="10px" fill="#2A2C34" font-family="sans-serif"> Matrix</text><text text-anchor="middle" pointer-events="none" x="0" y="15" font-size="10px" fill="#2A2C34" font-family="sans-serif"> Reloa…</text></g><g class="node" transform="translate(142.03137495050896,-236.5009538127377)"><circle class="outline" cx="0" cy="0" r="32.5" fill="#F79767" stroke="#f36924" stroke-width="2px"/><text text-anchor="middle" pointer-events="none" font-family="sans-serif" dy="2.03125" font-size="32.5" fill="#FFFFFF"/><text text-anchor="middle" pointer-events="none" font-family="sans-serif" dy="2.03125" font-size="32.5" fill="#FFFFFF"/><text text-anchor="middle" pointer-events="none" x="0" y="0" font-size="10px" fill="#FFFFFF" font-family="sans-serif"> Laurence</text><text text-anchor="middle" pointer-events="none" x="0" y="10" font-size="10px" fill="#FFFFFF" font-family="sans-serif"> Fishburne</text></g><g class="node" transform="translate(322.07073327753494,-96.3388002356375)"><circle class="outline" cx="0" cy="0" r="32.5" fill="#F79767" stroke="#f36924" stroke-width="2px"/><text text-anchor="middle" pointer-events="none" font-family="sans-serif" dy="2.03125" font-size="32.5" fill="#FFFFFF"/><text text-anchor="middle" pointer-events="none" font-family="sans-serif" dy="2.03125" font-size="32.5" fill="#FFFFFF"/><text text-anchor="middle" pointer-events="none" x="0" y="0" font-size="10px" fill="#FFFFFF" font-family="sans-serif"> Carrie-Anne</text><text text-anchor="middle" pointer-events="none" x="0" y="10" font-size="10px" fill="#FFFFFF" font-family="sans-serif"> Moss</text></g><g class="node" transform="translate(153.27266436980352,80.92502748921945)"><circle class="outline" cx="0" cy="0" r="32.5" fill="#F79767" stroke="#f36924" stroke-width="2px"/><text text-anchor="middle" pointer-events="none" font-family="sans-serif" dy="2.03125" font-size="32.5" fill="#FFFFFF"/><text text-anchor="middle" pointer-events="none" font-family="sans-serif" dy="2.03125" font-size="32.5" fill="#FFFFFF"/><text text-anchor="middle" pointer-events="none" x="0" y="0" font-size="10px" fill="#FFFFFF" font-family="sans-serif"> Keanu</text><text text-anchor="middle" pointer-events="none" x="0" y="10" font-size="10px" fill="#FFFFFF" font-family="sans-serif"> Reeves</text></g><g class="node" transform="translate(86.83347669584877,193.94108659558412)"><circle class="outline" cx="0" cy="0" r="25" fill="#57C7E3" stroke="#23b3d7" stroke-width="2px"/><text text-anchor="middle" pointer-events="none" font-family="sans-serif" dy="1.5625" font-size="25" fill="#2A2C34"/><text text-anchor="middle" pointer-events="none" font-family="sans-serif" dy="1.5625" font-size="25" fill="#2A2C34"/><text text-anchor="middle" pointer-events="none" x="0" y="0" font-size="10px" fill="#2A2C34" font-family="sans-serif"> The</text><text text-anchor="middle" pointer-events="none" x="0" y="10" font-size="10px" fill="#2A2C34" font-family="sans-serif"> Replac…</text></g><g class="node" transform="translate(39.03148601614885,123.95968195200469)"><circle class="outline" cx="0" cy="0" r="25" fill="#57C7E3" stroke="#23b3d7" stroke-width="2px"/><text text-anchor="middle" pointer-events="none" font-family="sans-serif" dy="1.5625" font-size="25" fill="#2A2C34"/><text text-anchor="middle" pointer-events="none" font-family="sans-serif" dy="1.5625" font-size="25" fill="#2A2C34"/><text text-anchor="middle" pointer-events="none" x="0" y="0" font-size="10px" fill="#2A2C34" font-family="sans-serif"> Johnny</text><text text-anchor="middle" pointer-events="none" x="0" y="10" font-size="10px" fill="#2A2C34" font-family="sans-serif"> Mnemo…</text></g><g class="node" transform="translate(242.70770568007572,162.3671388114487)"><circle class="outline" cx="0" cy="0" r="25" fill="#57C7E3" stroke="#23b3d7" stroke-width="2px"/><text text-anchor="middle" pointer-events="none" font-family="sans-serif" dy="1.5625" font-size="25" fill="#2A2C34"/><text text-anchor="middle" pointer-events="none" x="0" y="5" font-size="10px" fill="#2A2C34" font-family="sans-serif"> Somethi…</text></g><g class="node" transform="translate(167.64083352257722,209.61427832524615)"><circle class="outline" cx="0" cy="0" r="25" fill="#57C7E3" stroke="#23b3d7" stroke-width="2px"/><text text-anchor="middle" pointer-events="none" font-family="sans-serif" dy="1.5625" font-size="25" fill="#2A2C34"/><text text-anchor="middle" pointer-events="none" font-family="sans-serif" dy="1.5625" font-size="25" fill="#2A2C34"/><text text-anchor="middle" pointer-events="none" font-family="sans-serif" dy="1.5625" font-size="25" fill="#2A2C34"/><text text-anchor="middle" pointer-events="none" x="0" y="-5" font-size="10px" fill="#2A2C34" font-family="sans-serif"> The</text><text text-anchor="middle" pointer-events="none" x="0" y="5" font-size="10px" fill="#2A2C34" font-family="sans-serif"> Devil's</text><text text-anchor="middle" pointer-events="none" x="0" y="15" font-size="10px" fill="#2A2C34" font-family="sans-serif"> Advoc…</text></g></g></svg>