<svg xmlns="http://www.w3.org/2000/svg" width="995.0196533203125" height="787.4514770507812" viewBox="-490.3165588378906 -338.7676696777344 995.0196533203125 787.4514770507812"><title>Neo4j Graph Visualization</title><desc>Created using Neo4j (http://www.neo4j.com/)</desc><g class="layer relationships"><g class="relationship" transform="translate(183.84066104348017 155.52409172419382) rotate(398.61939188460246)"><path class="outline" fill="#A5ABB6" stroke="none" d="M 25 0.5 L 46.61433427830977 0.5 L 46.61433427830977 -0.5 L 25 -0.5 Z M 106.39167802830977 0.5 L 128.00601230661954 0.5 L 128.00601230661954 3.5 L 135.00601230661954 0 L 128.00601230661954 -3.5 L 128.00601230661954 -0.5 L 106.39167802830977 -0.5 Z"/><text text-anchor="middle" pointer-events="none" font-size="8px" fill="#000000" x="76.50300615330977" y="3" font-family="sans-serif">CONNECTION</text></g><g class="relationship" transform="translate(308.8548423892408 255.39089520120194) rotate(345.6033117204612)"><path class="outline" fill="#A5ABB6" stroke="none" d="M 25 0.5 L 52.74013860788155 0.5 L 52.74013860788155 -0.5 L 25 -0.5 Z M 112.51748235788155 0.5 L 140.2576209657631 0.5 L 140.2576209657631 3.5 L 147.2576209657631 0 L 140.2576209657631 -3.5 L 140.2576209657631 -0.5 L 112.51748235788155 -0.5 Z"/><text text-anchor="middle" pointer-events="none" font-size="8px" fill="#000000" x="82.62881048288155" y="3" font-family="sans-serif">CONNECTION</text></g><g class="relationship" transform="translate(475.70314925079333 212.56181071159722) rotate(200.77981554064223)"><path class="outline" fill="#A5ABB6" stroke="none" d="M 25 0.5 L 27.381822495778657 0.5 L 27.381822495778657 -0.5 L 25 -0.5 Z M 76.04979124577866 0.5 L 78.43161374155731 0.5 L 78.43161374155731 3.5 L 85.43161374155731 0 L 78.43161374155731 -3.5 L 78.43161374155731 -0.5 L 76.04979124577866 -0.5 Z"/><text text-anchor="middle" pointer-events="none" font-size="8px" fill="#000000" x="51.71580687077866" y="3" transform="rotate(180 51.71580687077866 0)" font-family="sans-serif">CONNEC…</text></g><g class="relationship" transform="translate(372.4550327662672 173.38314616107644) rotate(185.4089561311946)"><path class="outline" fill="#A5ABB6" stroke="none" d="M 25 0.5 L 61.34031925992292 0.5 L 61.34031925992292 -0.5 L 25 -0.5 Z M 121.11766300992292 0.5 L 157.45798226984584 0.5 L 157.45798226984584 3.5 L 164.45798226984584 0 L 157.45798226984584 -3.5 L 157.45798226984584 -0.5 L 121.11766300992292 -0.5 Z"/><text text-anchor="middle" pointer-events="none" font-size="8px" fill="#000000" x="91.22899113492292" y="3" transform="rotate(180 91.22899113492292 0)" font-family="sans-serif">CONNECTION</text></g><g class="relationship" transform="translate(183.84066104348017 155.52409172419382) rotate(486.30907106074443)"><path class="outline" fill="#A5ABB6" stroke="none" d="M 25 0.5 L 49.20422620327366 0.5 L 49.20422620327366 -0.5 L 25 -0.5 Z M 108.98156995327366 0.5 L 133.18579615654733 0.5 L 133.18579615654733 3.5 L 140.18579615654733 0 L 133.18579615654733 -3.5 L 133.18579615654733 -0.5 L 108.98156995327366 -0.5 Z"/><text text-anchor="middle" pointer-events="none" font-size="8px" fill="#000000" x="79.09289807827366" y="3" transform="rotate(180 79.09289807827366 0)" font-family="sans-serif">CONNECTION</text></g><g class="relationship" transform="translate(86.0274172005515 288.636512560103) rotate(471.1752625577341)"><path class="outline" fill="#A5ABB6" stroke="none" d="M 25 0.5 L 36.87949714352847 0.5 L 36.87949714352847 -0.5 L 25 -0.5 Z M 96.65684089352847 0.5 L 108.53633803705694 0.5 L 108.53633803705694 3.5 L 115.53633803705694 0 L 108.53633803705694 -3.5 L 108.53633803705694 -0.5 L 96.65684089352847 -0.5 Z"/><text text-anchor="middle" pointer-events="none" font-size="8px" fill="#000000" x="66.76816901852847" y="3" transform="rotate(180 66.76816901852847 0)" font-family="sans-serif">CONNECTION</text></g><g class="relationship" transform="translate(183.84066104348017 155.52409172419382) rotate(352.5155195933115)"><path class="outline" fill="#A5ABB6" stroke="none" d="M 25 0.5 L 37.84840438523648 0.5 L 37.84840438523648 -0.5 L 25 -0.5 Z M 97.62574813523648 0.5 L 110.47415252047296 0.5 L 110.47415252047296 3.5 L 117.47415252047296 0 L 110.47415252047296 -3.5 L 110.47415252047296 -0.5 L 97.62574813523648 -0.5 Z"/><text text-anchor="middle" pointer-events="none" font-size="8px" fill="#000000" x="67.73707626023648" y="3" font-family="sans-serif">CONNECTION</text></g><g class="relationship" transform="translate(325.10095948273545 136.96574531942144) rotate(386.65475675792726)"><path class="outline" fill="#A5ABB6" stroke="none" d="M 25 0.5 L 50.86657227293455 0.5 L 50.86657227293455 -0.5 L 25 -0.5 Z M 110.64391602293455 0.5 L 136.5104882958691 0.5 L 136.5104882958691 3.5 L 143.5104882958691 0 L 136.5104882958691 -3.5 L 136.5104882958691 -0.5 L 110.64391602293455 -0.5 Z"/><text text-anchor="middle" pointer-events="none" font-size="8px" fill="#000000" x="80.75524414793455" y="3" font-family="sans-serif">CONNECTION</text></g><g class="relationship" transform="translate(183.84066104348017 155.52409172419382) rotate(509.9126944232247)"><path class="outline" fill="#A5ABB6" stroke="none" d="M 25 0.5 L 82.29736659345521 0.5 L 82.29736659345521 -0.5 L 25 -0.5 Z M 142.0747103434552 0.5 L 199.37207693691042 0.5 L 199.37207693691042 3.5 L 206.37207693691042 0 L 199.37207693691042 -3.5 L 199.37207693691042 -0.5 L 142.0747103434552 -0.5 Z"/><text text-anchor="middle" pointer-events="none" font-size="8px" fill="#000000" x="112.18603846845521" y="3" transform="rotate(180 112.18603846845521 0)" font-family="sans-serif">CONNECTION</text></g><g class="relationship" transform="translate(-16.356923868540775 271.51531976103183) rotate(430.79248426432997)"><path class="outline" fill="#A5ABB6" stroke="none" d="M 25 0.5 L 45.06271157365056 0.5 L 45.06271157365056 -0.5 L 25 -0.5 Z M 104.84005532365056 0.5 L 124.90276689730112 0.5 L 124.90276689730112 3.5 L 131.90276689730112 0 L 124.90276689730112 -3.5 L 124.90276689730112 -0.5 L 104.84005532365056 -0.5 Z"/><text text-anchor="middle" pointer-events="none" font-size="8px" fill="#000000" x="74.95138344865056" y="3" font-family="sans-serif">CONNECTION</text></g><g class="relationship" transform="translate(183.84066104348017 155.52409172419382) rotate(212.7162061671587)"><path class="outline" fill="#A5ABB6" stroke="none" d="M 25 0.5 L 59.64577301801593 0.5 L 59.64577301801593 -0.5 L 25 -0.5 Z M 119.42311676801593 0.5 L 154.06888978603186 0.5 L 154.06888978603186 3.5 L 161.06888978603186 0 L 154.06888978603186 -3.5 L 154.06888978603186 -0.5 L 119.42311676801593 -0.5 Z"/><text text-anchor="middle" pointer-events="none" font-size="8px" fill="#000000" x="89.53444489301593" y="3" transform="rotate(180 89.53444489301593 0)" font-family="sans-serif">CONNECTION</text></g><g class="relationship" transform="translate(27.290123089325714 54.95789058051275) rotate(249.3845043702354)"><path class="outline" fill="#A5ABB6" stroke="none" d="M 25 0.5 L 47.65800989627064 0.5 L 47.65800989627064 -0.5 L 25 -0.5 Z M 107.43535364627064 0.5 L 130.09336354254128 0.5 L 130.09336354254128 3.5 L 137.09336354254128 0 L 130.09336354254128 -3.5 L 130.09336354254128 -0.5 L 107.43535364627064 -0.5 Z"/><text text-anchor="middle" pointer-events="none" font-size="8px" fill="#000000" x="77.54668177127064" y="3" transform="rotate(180 77.54668177127064 0)" font-family="sans-serif">CONNECTION</text></g><g class="relationship" transform="translate(183.84066104348017 155.52409172419382) rotate(479.302955682997)"><path class="outline" fill="#A5ABB6" stroke="none" d="M 25 0.5 L 76.61140134736404 0.5 L 76.61140134736404 -0.5 L 25 -0.5 Z M 136.38874509736405 0.5 L 188.00014644472807 0.5 L 188.00014644472807 3.5 L 195.00014644472807 0 L 188.00014644472807 -3.5 L 188.00014644472807 -0.5 L 136.38874509736405 -0.5 Z"/><text text-anchor="middle" pointer-events="none" font-size="8px" fill="#000000" x="106.50007322236404" y="3" transform="rotate(180 106.50007322236404 0)" font-family="sans-serif">CONNECTION</text></g><g class="relationship" transform="translate(76.16655300678744 347.3739051048808) rotate(479.49578314071067)"><path class="outline" fill="#A5ABB6" stroke="none" d="M 25 0.5 L 25.03870650019308 0.5 L 25.03870650019308 -0.5 L 25 -0.5 Z M 51.03870650019308 0.5 L 51.07741300038616 0.5 L 51.07741300038616 3.5 L 58.07741300038616 0 L 51.07741300038616 -3.5 L 51.07741300038616 -0.5 L 51.03870650019308 -0.5 Z"/><text text-anchor="middle" pointer-events="none" font-size="8px" fill="#000000" x="38.03870650019308" y="3" transform="rotate(180 38.03870650019308 0)" font-family="sans-serif">CO…</text></g><g class="relationship" transform="translate(183.84066104348017 155.52409172419382) rotate(229.86955820939716)"><path class="outline" fill="#A5ABB6" stroke="none" d="M 25 0.5 L 43.47128453631237 0.5 L 43.47128453631237 -0.5 L 25 -0.5 Z M 103.24862828631237 0.5 L 121.71991282262474 0.5 L 121.71991282262474 3.5 L 128.71991282262474 0 L 121.71991282262474 -3.5 L 121.71991282262474 -0.5 L 103.24862828631237 -0.5 Z"/><text text-anchor="middle" pointer-events="none" font-size="8px" fill="#000000" x="73.35995641131237" y="3" transform="rotate(180 73.35995641131237 0)" font-family="sans-serif">CONNECTION</text></g><g class="relationship" transform="translate(84.76357349985406 37.993064662962034) rotate(229.633188997204)"><path class="outline" fill="#A5ABB6" stroke="none" d="M 25 0.5 L 55.039190341530485 0.5 L 55.039190341530485 -0.5 L 25 -0.5 Z M 114.81653409153049 0.5 L 144.85572443306097 0.5 L 144.85572443306097 3.5 L 151.85572443306097 0 L 144.85572443306097 -3.5 L 144.85572443306097 -0.5 L 114.81653409153049 -0.5 Z"/><text text-anchor="middle" pointer-events="none" font-size="8px" fill="#000000" x="84.92786221653049" y="3" transform="rotate(180 84.92786221653049 0)" font-family="sans-serif">CONNECTION</text></g><g class="relationship" transform="translate(183.84066104348017 155.52409172419382) rotate(470.3613872037805)"><path class="outline" fill="#A5ABB6" stroke="none" d="M 25 0.5 L 26.615176385207505 0.5 L 26.615176385207505 -0.5 L 25 -0.5 Z M 86.3925201352075 0.5 L 88.00769652041501 0.5 L 88.00769652041501 3.5 L 95.00769652041501 0 L 88.00769652041501 -3.5 L 88.00769652041501 -0.5 L 86.3925201352075 -0.5 Z"/><text text-anchor="middle" pointer-events="none" font-size="8px" fill="#000000" x="56.503848260207505" y="3" transform="rotate(180 56.503848260207505 0)" font-family="sans-serif">CONNECTION</text></g><g class="relationship" transform="translate(142.08514534549846 268.0333097151284) rotate(485.1608485672975)"><path class="outline" fill="#A5ABB6" stroke="none" d="M 25 0.5 L 59.35955210820735 0.5 L 59.35955210820735 -0.5 L 25 -0.5 Z M 119.13689585820735 0.5 L 153.4964479664147 0.5 L 153.4964479664147 3.5 L 160.4964479664147 0 L 153.4964479664147 -3.5 L 153.4964479664147 -0.5 L 119.13689585820735 -0.5 Z"/><text text-anchor="middle" pointer-events="none" font-size="8px" fill="#000000" x="89.24822398320735" y="3" transform="rotate(180 89.24822398320735 0)" font-family="sans-serif">CONNECTION</text></g><g class="relationship" transform="translate(183.84066104348017 155.52409172419382) rotate(244.2088727829052)"><path class="outline" fill="#A5ABB6" stroke="none" d="M 25 0.5 L 64.23712247979509 0.5 L 64.23712247979509 -0.5 L 25 -0.5 Z M 124.01446622979509 0.5 L 163.25158870959018 0.5 L 163.25158870959018 3.5 L 170.25158870959018 0 L 163.25158870959018 -3.5 L 163.25158870959018 -0.5 L 124.01446622979509 -0.5 Z"/><text text-anchor="middle" pointer-events="none" font-size="8px" fill="#000000" x="94.12579435479509" y="3" transform="rotate(180 94.12579435479509 0)" font-family="sans-serif">CONNECTION</text></g><g class="relationship" transform="translate(98.88832096021765 -20.27773650292295) rotate(210.72602574432437)"><path class="outline" fill="#A5ABB6" stroke="none" d="M 25 0.5 L 41.452761379043835 0.5 L 41.452761379043835 -0.5 L 25 -0.5 Z M 101.23010512904384 0.5 L 117.68286650808767 0.5 L 117.68286650808767 3.5 L 124.68286650808767 0 L 117.68286650808767 -3.5 L 117.68286650808767 -0.5 L 101.23010512904384 -0.5 Z"/><text text-anchor="middle" pointer-events="none" font-size="8px" fill="#000000" x="71.34143325404384" y="3" transform="rotate(180 71.34143325404384 0)" font-family="sans-serif">CONNECTION</text></g><g class="relationship" transform="translate(183.84066104348017 155.52409172419382) rotate(376.9237590773214)"><path class="outline" fill="#A5ABB6" stroke="none" d="M 25 0.5 L 36.231277686335474 0.5 L 36.231277686335474 -0.5 L 25 -0.5 Z M 96.00862143633547 0.5 L 107.23989912267095 0.5 L 107.23989912267095 3.5 L 114.23989912267095 0 L 107.23989912267095 -3.5 L 107.23989912267095 -0.5 L 96.00862143633547 -0.5 Z"/><text text-anchor="middle" pointer-events="none" font-size="8px" fill="#000000" x="66.11994956133547" y="3" font-family="sans-serif">CONNECTION</text></g><g class="relationship" transform="translate(317.0504916055639 196.0566779889824) rotate(365.93929404984897)"><path class="outline" fill="#A5ABB6" stroke="none" d="M 25 0.5 L 46.365771863398535 0.5 L 46.365771863398535 -0.5 L 25 -0.5 Z M 106.14311561339854 0.5 L 127.50888747679707 0.5 L 127.50888747679707 3.5 L 134.50888747679707 0 L 127.50888747679707 -3.5 L 127.50888747679707 -0.5 L 106.14311561339854 -0.5 Z"/><text text-anchor="middle" pointer-events="none" font-size="8px" fill="#000000" x="76.25444373839854" y="3" font-family="sans-serif">CONNECTION</text></g><g class="relationship" transform="translate(183.84066104348017 155.52409172419382) rotate(186.7207084466433)"><path class="outline" fill="#A5ABB6" stroke="none" d="M 25 0.5 L 66.49665110437476 0.5 L 66.49665110437476 -0.5 L 25 -0.5 Z M 126.27399485437476 0.5 L 167.77064595874953 0.5 L 167.77064595874953 3.5 L 174.77064595874953 0 L 167.77064595874953 -3.5 L 167.77064595874953 -0.5 L 126.27399485437476 -0.5 Z"/><text text-anchor="middle" pointer-events="none" font-size="8px" fill="#000000" x="96.38532297937476" y="3" transform="rotate(180 96.38532297937476 0)" font-family="sans-serif">CONNECTION</text></g><g class="relationship" transform="translate(-14.557244200285893 132.14499461456018) rotate(187.22302750901054)"><path class="outline" fill="#A5ABB6" stroke="none" d="M 25 0.5 L 58.22957753794728 0.5 L 58.22957753794728 -0.5 L 25 -0.5 Z M 118.00692128794728 0.5 L 151.23649882589456 0.5 L 151.23649882589456 3.5 L 158.23649882589456 0 L 151.23649882589456 -3.5 L 151.23649882589456 -0.5 L 118.00692128794728 -0.5 Z"/><text text-anchor="middle" pointer-events="none" font-size="8px" fill="#000000" x="88.11824941294728" y="3" transform="rotate(180 88.11824941294728 0)" font-family="sans-serif">CONNECTION</text></g><g class="relationship" transform="translate(183.84066104348017 155.52409172419382) rotate(264.65746272430437)"><path class="outline" fill="#A5ABB6" stroke="none" d="M 25 0.5 L 60.74066674082957 0.5 L 60.74066674082957 -0.5 L 25 -0.5 Z M 120.51801049082957 0.5 L 156.25867723165914 0.5 L 156.25867723165914 3.5 L 163.25867723165914 0 L 156.25867723165914 -3.5 L 156.25867723165914 -0.5 L 120.51801049082957 -0.5 Z"/><text text-anchor="middle" pointer-events="none" font-size="8px" fill="#000000" x="90.62933861582957" y="3" transform="rotate(180 90.62933861582957 0)" font-family="sans-serif">CONNECTION</text></g><g class="relationship" transform="translate(166.3119326204455 -31.916760901069047) rotate(299.566094616695)"><path class="outline" fill="#A5ABB6" stroke="none" d="M 25 0.5 L 41.4534941425124 0.5 L 41.4534941425124 -0.5 L 25 -0.5 Z M 101.2308378925124 0.5 L 117.6843320350248 0.5 L 117.6843320350248 3.5 L 124.6843320350248 0 L 117.6843320350248 -3.5 L 117.6843320350248 -0.5 L 101.2308378925124 -0.5 Z"/><text text-anchor="middle" pointer-events="none" font-size="8px" fill="#000000" x="71.3421660175124" y="3" font-family="sans-serif">CONNECTION</text></g><g class="relationship" transform="translate(183.84066104348017 155.52409172419382) rotate(228.11931593867405)"><path class="outline" fill="#A5ABB6" stroke="none" d="M 25 0.5 L 73.16528896892088 0.5 L 73.16528896892088 -0.5 L 25 -0.5 Z M 132.9426327189209 0.5 L 181.10792168784175 0.5 L 181.10792168784175 3.5 L 188.10792168784175 0 L 181.10792168784175 -3.5 L 181.10792168784175 -0.5 L 132.9426327189209 -0.5 Z"/><text text-anchor="middle" pointer-events="none" font-size="8px" fill="#000000" x="103.05396084392088" y="3" transform="rotate(180 103.05396084392088 0)" font-family="sans-serif">CONNECTION</text></g><g class="relationship" transform="translate(41.57373579706932 -3.142565980074499) rotate(232.6838416537471)"><path class="outline" fill="#A5ABB6" stroke="none" d="M 25 0.5 L 25.465126828279978 0.5 L 25.465126828279978 -0.5 L 25 -0.5 Z M 85.24247057827998 0.5 L 85.70759740655996 0.5 L 85.70759740655996 3.5 L 92.70759740655996 0 L 85.70759740655996 -3.5 L 85.70759740655996 -0.5 L 85.24247057827998 -0.5 Z"/><text text-anchor="middle" pointer-events="none" font-size="8px" fill="#000000" x="55.35379870327998" y="3" transform="rotate(180 55.35379870327998 0)" font-family="sans-serif">CONNECTION</text></g><g class="relationship" transform="translate(183.84066104348017 155.52409172419382) rotate(495.0497238860856)"><path class="outline" fill="#A5ABB6" stroke="none" d="M 25 0.5 L 75.3845748955818 0.5 L 75.3845748955818 -0.5 L 25 -0.5 Z M 135.1619186455818 0.5 L 185.5464935411636 0.5 L 185.5464935411636 3.5 L 192.5464935411636 0 L 185.5464935411636 -3.5 L 185.5464935411636 -0.5 L 135.1619186455818 -0.5 Z"/><text text-anchor="middle" pointer-events="none" font-size="8px" fill="#000000" x="105.2732467705818" y="3" transform="rotate(180 105.2732467705818 0)" font-family="sans-serif">CONNECTION</text></g><g class="relationship" transform="translate(29.878618718923725 309.21913515535664) rotate(447.2096470676438)"><path class="outline" fill="#A5ABB6" stroke="none" d="M 25 0.5 L 25.0205604145457 0.5 L 25.0205604145457 -0.5 L 25 -0.5 Z M 78.5752479145457 0.5 L 78.5958083290914 0.5 L 78.5958083290914 3.5 L 85.5958083290914 0 L 78.5958083290914 -3.5 L 78.5958083290914 -0.5 L 78.5752479145457 -0.5 Z"/><text text-anchor="middle" pointer-events="none" font-size="8px" fill="#000000" x="51.7979041645457" y="3" font-family="sans-serif">CONNECT…</text></g><g class="relationship" transform="translate(183.84066104348017 155.52409172419382) rotate(383.145255706791)"><path class="outline" fill="#A5ABB6" stroke="none" d="M 25 0.5 L 64.70210554427345 0.5 L 64.70210554427345 -0.5 L 25 -0.5 Z M 124.47944929427345 0.5 L 164.1815548385469 0.5 L 164.1815548385469 3.5 L 171.1815548385469 0 L 164.1815548385469 -3.5 L 164.1815548385469 -0.5 L 124.47944929427345 -0.5 Z"/><text text-anchor="middle" pointer-events="none" font-size="8px" fill="#000000" x="94.59077741927345" y="3" font-family="sans-serif">CONNECTION</text></g><g class="relationship" transform="translate(364.2318212185619 232.63590527800534) rotate(349.79141834665074)"><path class="outline" fill="#A5ABB6" stroke="none" d="M 25 0.5 L 25.24353240386072 0.5 L 25.24353240386072 -0.5 L 25 -0.5 Z M 81.02087615386071 0.5 L 81.26440855772144 0.5 L 81.26440855772144 3.5 L 88.26440855772144 0 L 81.26440855772144 -3.5 L 81.26440855772144 -0.5 L 81.02087615386071 -0.5 Z"/><text text-anchor="middle" pointer-events="none" font-size="8px" fill="#000000" x="53.13220427886072" y="3" font-family="sans-serif">CONNECTI…</text></g><g class="relationship" transform="translate(183.84066104348017 155.52409172419382) rotate(460.93466360920183)"><path class="outline" fill="#A5ABB6" stroke="none" d="M 25 0.5 L 84.04716369660999 0.5 L 84.04716369660999 -0.5 L 25 -0.5 Z M 143.82450744660997 0.5 L 202.87167114321997 0.5 L 202.87167114321997 3.5 L 209.87167114321997 0 L 202.87167114321997 -3.5 L 202.87167114321997 -0.5 L 143.82450744660997 -0.5 Z"/><text text-anchor="middle" pointer-events="none" font-size="8px" fill="#000000" x="113.93583557160999" y="3" transform="rotate(180 113.93583557160999 0)" font-family="sans-serif">CONNECTION</text></g><g class="relationship" transform="translate(139.28797409582822 386.1314636604643) rotate(522.1234090866262)"><path class="outline" fill="#A5ABB6" stroke="none" d="M 25 0.5 L 26.817271117547236 0.5 L 26.817271117547236 -0.5 L 25 -0.5 Z M 75.48523986754724 0.5 L 77.30251098509447 0.5 L 77.30251098509447 3.5 L 84.30251098509447 0 L 77.30251098509447 -3.5 L 77.30251098509447 -0.5 L 75.48523986754724 -0.5 Z"/><text text-anchor="middle" pointer-events="none" font-size="8px" fill="#000000" x="51.151255492547236" y="3" transform="rotate(180 51.151255492547236 0)" font-family="sans-serif">CONNEC…</text></g><g class="relationship" transform="translate(183.84066104348017 155.52409172419382) rotate(280.91260693011975)"><path class="outline" fill="#A5ABB6" stroke="none" d="M 25 0.5 L 42.79355513803455 0.5 L 42.79355513803455 -0.5 L 25 -0.5 Z M 102.57089888803455 0.5 L 120.3644540260691 0.5 L 120.3644540260691 3.5 L 127.3644540260691 0 L 120.3644540260691 -3.5 L 120.3644540260691 -0.5 L 102.57089888803455 -0.5 Z"/><text text-anchor="middle" pointer-events="none" font-size="8px" fill="#000000" x="72.68222701303455" y="3" font-family="sans-serif">CONNECTION</text></g><g class="relationship" transform="translate(212.68500456183912 5.91483165765574) rotate(279.2900676886848)"><path class="outline" fill="#A5ABB6" stroke="none" d="M 25 0.5 L 51.74045065007623 0.5 L 51.74045065007623 -0.5 L 25 -0.5 Z M 111.51779440007623 0.5 L 138.25824505015245 0.5 L 138.25824505015245 3.5 L 145.25824505015245 0 L 138.25824505015245 -3.5 L 138.25824505015245 -0.5 L 111.51779440007623 -0.5 Z"/><text text-anchor="middle" pointer-events="none" font-size="8px" fill="#000000" x="81.62912252507623" y="3" font-family="sans-serif">CONNECTION</text></g><g class="relationship" transform="translate(183.84066104348017 155.52409172419382) rotate(448.3344393269528)"><path class="outline" fill="#A5ABB6" stroke="none" d="M 25 0.5 L 41.97974093068839 0.5 L 41.97974093068839 -0.5 L 25 -0.5 Z M 101.7570846806884 0.5 L 118.73682561137679 0.5 L 118.73682561137679 3.5 L 125.73682561137679 0 L 118.73682561137679 -3.5 L 118.73682561137679 -0.5 L 101.7570846806884 -0.5 Z"/><text text-anchor="middle" pointer-events="none" font-size="8px" fill="#000000" x="71.8684128056884" y="3" font-family="sans-serif">CONNECTION</text></g><g class="relationship" transform="translate(188.22189074311217 306.1972327338432) rotate(503.4268103646516)"><path class="outline" fill="#A5ABB6" stroke="none" d="M 25 0.5 L 61.84229640428646 0.5 L 61.84229640428646 -0.5 L 25 -0.5 Z M 121.61964015428646 0.5 L 158.46193655857292 0.5 L 158.46193655857292 3.5 L 165.46193655857292 0 L 158.46193655857292 -3.5 L 158.46193655857292 -0.5 L 121.61964015428646 -0.5 Z"/><text text-anchor="middle" pointer-events="none" font-size="8px" fill="#000000" x="91.73096827928646" y="3" transform="rotate(180 91.73096827928646 0)" font-family="sans-serif">CONNECTION</text></g><g class="relationship" transform="translate(475.70314925079333 212.56181071159722) rotate(506.4424721057169)"><path class="outline" fill="#A5ABB6" stroke="none" d="M 25 0.5 L 38.42422456843235 0.5 L 38.42422456843235 -0.5 L 25 -0.5 Z M 98.20156831843235 0.5 L 111.6257928868647 0.5 L 111.6257928868647 3.5 L 118.6257928868647 0 L 111.6257928868647 -3.5 L 111.6257928868647 -0.5 L 98.20156831843235 -0.5 Z"/><text text-anchor="middle" pointer-events="none" font-size="8px" fill="#000000" x="68.31289644343235" y="3" transform="rotate(180 68.31289644343235 0)" font-family="sans-serif">CONNECTION</text></g><g class="relationship" transform="translate(356.0152907686563 291.95441058299895) rotate(218.39312979043348)"><path class="outline" fill="#A5ABB6" stroke="none" d="M 25 0.5 L 76.44908919208105 0.5 L 76.44908919208105 -0.5 L 25 -0.5 Z M 136.22643294208103 0.5 L 187.6755221341621 0.5 L 187.6755221341621 3.5 L 194.6755221341621 0 L 187.6755221341621 -3.5 L 187.6755221341621 -0.5 L 136.22643294208103 -0.5 Z"/><text text-anchor="middle" pointer-events="none" font-size="8px" fill="#000000" x="106.33776106708105" y="3" transform="rotate(180 106.33776106708105 0)" font-family="sans-serif">CONNECTION</text></g><g class="relationship" transform="translate(475.70314925079333 212.56181071159722) rotate(231.5891947062405)"><path class="outline" fill="#A5ABB6" stroke="none" d="M 25 0.5 L 25.443452911249636 0.5 L 25.443452911249636 -0.5 L 25 -0.5 Z M 81.22079666124964 0.5 L 81.66424957249927 0.5 L 81.66424957249927 3.5 L 88.66424957249927 0 L 81.66424957249927 -3.5 L 81.66424957249927 -0.5 L 81.22079666124964 -0.5 Z"/><text text-anchor="middle" pointer-events="none" font-size="8px" fill="#000000" x="53.332124786249636" y="3" transform="rotate(180 53.332124786249636 0)" font-family="sans-serif">CONNECTI…</text></g><g class="relationship" transform="translate(405.0840551632224 123.49719831626815) rotate(531.763157235214)"><path class="outline" fill="#A5ABB6" stroke="none" d="M 25 0.5 L 78.38605843443334 0.5 L 78.38605843443334 -0.5 L 25 -0.5 Z M 138.16340218443332 0.5 L 191.54946061886668 0.5 L 191.54946061886668 3.5 L 198.54946061886668 0 L 191.54946061886668 -3.5 L 191.54946061886668 -0.5 L 138.16340218443332 -0.5 Z"/><text text-anchor="middle" pointer-events="none" font-size="8px" fill="#000000" x="108.27473030943334" y="3" transform="rotate(180 108.27473030943334 0)" font-family="sans-serif">CONNECTION</text></g><g class="relationship" transform="translate(475.70314925079333 212.56181071159722) rotate(226.84109273217751)"><path class="outline" fill="#A5ABB6" stroke="none" d="M 25 0.5 L 52.65982661190603 0.5 L 52.65982661190603 -0.5 L 25 -0.5 Z M 112.43717036190603 0.5 L 140.09699697381205 0.5 L 140.09699697381205 3.5 L 147.09699697381205 0 L 140.09699697381205 -3.5 L 140.09699697381205 -0.5 L 112.43717036190603 -0.5 Z"/><text text-anchor="middle" pointer-events="none" font-size="8px" fill="#000000" x="82.54849848690603" y="3" transform="rotate(180 82.54849848690603 0)" font-family="sans-serif">CONNECTION</text></g><g class="relationship" transform="translate(357.9846538759495 87.02403865040779) rotate(518.527658386339)"><path class="outline" fill="#A5ABB6" stroke="none" d="M 25 0.5 L 60.17733091280033 0.5 L 60.17733091280033 -0.5 L 25 -0.5 Z M 119.95467466280033 0.5 L 155.13200557560066 0.5 L 155.13200557560066 3.5 L 162.13200557560066 0 L 155.13200557560066 -3.5 L 155.13200557560066 -0.5 L 119.95467466280033 -0.5 Z"/><text text-anchor="middle" pointer-events="none" font-size="8px" fill="#000000" x="90.06600278780033" y="3" transform="rotate(180 90.06600278780033 0)" font-family="sans-serif">CONNECTION</text></g><g class="relationship" transform="translate(-196.3396238026385 109.10631044904757) rotate(218.64250251104795)"><path class="outline" fill="#A5ABB6" stroke="none" d="M 25 0.5 L 33.511636502367395 0.5 L 33.511636502367395 -0.5 L 25 -0.5 Z M 93.2889802523674 0.5 L 101.80061675473479 0.5 L 101.80061675473479 3.5 L 108.80061675473479 0 L 101.80061675473479 -3.5 L 101.80061675473479 -0.5 L 93.2889802523674 -0.5 Z"/><text text-anchor="middle" pointer-events="none" font-size="8px" fill="#000000" x="63.400308377367395" y="3" transform="rotate(180 63.400308377367395 0)" font-family="sans-serif">CONNECTION</text></g><g class="relationship" transform="translate(-300.84559341526585 25.55328920342163) rotate(262.3973364551762)"><path class="outline" fill="#A5ABB6" stroke="none" d="M 25 0.5 L 29.272601916386378 0.5 L 29.272601916386378 -0.5 L 25 -0.5 Z M 89.04994566638638 0.5 L 93.32254758277276 0.5 L 93.32254758277276 3.5 L 100.32254758277276 0 L 93.32254758277276 -3.5 L 93.32254758277276 -0.5 L 89.04994566638638 -0.5 Z"/><text text-anchor="middle" pointer-events="none" font-size="8px" fill="#000000" x="59.16127379138638" y="3" transform="rotate(180 59.16127379138638 0)" font-family="sans-serif">CONNECTION</text></g><g class="relationship" transform="translate(240.1702605422665 -162.1102578714028) rotate(438.99064293543927)"><path class="outline" fill="#A5ABB6" stroke="none" d="M 25 0.5 L 41.427166448417 0.5 L 41.427166448417 -0.5 L 25 -0.5 Z M 101.204510198417 0.5 L 117.631676646834 0.5 L 117.631676646834 3.5 L 124.631676646834 0 L 117.631676646834 -3.5 L 117.631676646834 -0.5 L 101.204510198417 -0.5 Z"/><text text-anchor="middle" pointer-events="none" font-size="8px" fill="#000000" x="71.315838323417" y="3" font-family="sans-serif">CONNECTION</text></g><g class="relationship" transform="translate(268.745317676261 -15.232401249202477) rotate(476.4377832007409)"><path class="outline" fill="#A5ABB6" stroke="none" d="M 25 0.5 L 61.96144691163806 0.5 L 61.96144691163806 -0.5 L 25 -0.5 Z M 121.73879066163806 0.5 L 158.70023757327613 0.5 L 158.70023757327613 3.5 L 165.70023757327613 0 L 158.70023757327613 -3.5 L 158.70023757327613 -0.5 L 121.73879066163806 -0.5 Z"/><text text-anchor="middle" pointer-events="none" font-size="8px" fill="#000000" x="91.85011878663806" y="3" transform="rotate(180 91.85011878663806 0)" font-family="sans-serif">CONNECTION</text></g><g class="relationship" transform="translate(240.1702605422665 -162.1102578714028) rotate(459.27992883315625)"><path class="outline" fill="#A5ABB6" stroke="none" d="M 25 0.5 L 25.01256642583256 0.5 L 25.01256642583256 -0.5 L 25 -0.5 Z M 78.56725392583256 0.5 L 78.57982035166512 0.5 L 78.57982035166512 3.5 L 85.57982035166512 0 L 78.57982035166512 -3.5 L 78.57982035166512 -0.5 L 78.56725392583256 -0.5 Z"/><text text-anchor="middle" pointer-events="none" font-size="8px" fill="#000000" x="51.78991017583256" y="3" transform="rotate(180 51.78991017583256 0)" font-family="sans-serif">CONNECT…</text></g><g class="relationship" transform="translate(222.33836795197735 -52.9776766884448) rotate(460.4612571189517)"><path class="outline" fill="#A5ABB6" stroke="none" d="M 25 0.5 L 72.62437079948668 0.5 L 72.62437079948668 -0.5 L 25 -0.5 Z M 132.40171454948668 0.5 L 180.02608534897337 0.5 L 180.02608534897337 3.5 L 187.02608534897337 0 L 180.02608534897337 -3.5 L 180.02608534897337 -0.5 L 132.40171454948668 -0.5 Z"/><text text-anchor="middle" pointer-events="none" font-size="8px" fill="#000000" x="102.51304267448668" y="3" transform="rotate(180 102.51304267448668 0)" font-family="sans-serif">CONNECTION</text></g><g class="relationship" transform="translate(35.26259929263003 419.68381536195966) rotate(341.271676882469)"><path class="outline" fill="#A5ABB6" stroke="none" d="M 25 0.5 L 51.08798057991383 0.5 L 51.08798057991383 -0.5 L 25 -0.5 Z M 110.86532432991383 0.5 L 136.95330490982766 0.5 L 136.95330490982766 3.5 L 143.95330490982766 0 L 136.95330490982766 -3.5 L 136.95330490982766 -0.5 L 110.86532432991383 -0.5 Z"/><text text-anchor="middle" pointer-events="none" font-size="8px" fill="#000000" x="80.97665245491383" y="3" font-family="sans-serif">CONNECTION</text></g><g class="relationship" transform="translate(195.27010934442796 365.4360876033062) rotate(266.88339320869056)"><path class="outline" fill="#A5ABB6" stroke="none" d="M 25 0.5 L 71.72279075208046 0.5 L 71.72279075208046 -0.5 L 25 -0.5 Z M 131.50013450208047 0.5 L 178.2229252541609 0.5 L 178.2229252541609 3.5 L 185.2229252541609 0 L 178.2229252541609 -3.5 L 178.2229252541609 -0.5 L 131.50013450208047 -0.5 Z"/><text text-anchor="middle" pointer-events="none" font-size="8px" fill="#000000" x="101.61146262708046" y="3" transform="rotate(180 101.61146262708046 0)" font-family="sans-serif">CONNECTION</text></g><g class="relationship" transform="translate(35.26259929263003 419.68381536195966) rotate(316.22204826137215)"><path class="outline" fill="#A5ABB6" stroke="none" d="M 25 0.5 L 33.71927707874444 0.5 L 33.71927707874444 -0.5 L 25 -0.5 Z M 93.49662082874444 0.5 L 102.21589790748888 0.5 L 102.21589790748888 3.5 L 109.21589790748888 0 L 102.21589790748888 -3.5 L 102.21589790748888 -0.5 L 93.49662082874444 -0.5 Z"/><text text-anchor="middle" pointer-events="none" font-size="8px" fill="#000000" x="63.60794895374444" y="3" font-family="sans-serif">CONNECTION</text></g><g class="relationship" transform="translate(132.1700371965407 326.8244823360695) rotate(286.78528117248703)"><path class="outline" fill="#A5ABB6" stroke="none" d="M 25 0.5 L 56.07315964061493 0.5 L 56.07315964061493 -0.5 L 25 -0.5 Z M 115.85050339061493 0.5 L 146.92366303122986 0.5 L 146.92366303122986 3.5 L 153.92366303122986 0 L 146.92366303122986 -3.5 L 146.92366303122986 -0.5 L 115.85050339061493 -0.5 Z"/><text text-anchor="middle" pointer-events="none" font-size="8px" fill="#000000" x="85.96183151561493" y="3" font-family="sans-serif">CONNECTION</text></g><g class="relationship" transform="translate(35.26259929263003 419.68381536195966) rotate(287.6444505831725)"><path class="outline" fill="#A5ABB6" stroke="none" d="M 25 0.5 L 66.11497476214663 0.5 L 66.11497476214663 -0.5 L 25 -0.5 Z M 125.89231851214663 0.5 L 167.00729327429326 0.5 L 167.00729327429326 3.5 L 174.00729327429326 0 L 167.00729327429326 -3.5 L 167.00729327429326 -0.5 L 125.89231851214663 -0.5 Z"/><text text-anchor="middle" pointer-events="none" font-size="8px" fill="#000000" x="96.00364663714663" y="3" font-family="sans-serif">CONNECTION</text></g><g class="relationship" transform="translate(95.58355938009309 230.03866105927978) rotate(319.82593922250805)"><path class="outline" fill="#A5ABB6" stroke="none" d="M 25 0.5 L 26.364546730578112 0.5 L 26.364546730578112 -0.5 L 25 -0.5 Z M 82.14189048057811 0.5 L 83.50643721115622 0.5 L 83.50643721115622 3.5 L 90.50643721115622 0 L 83.50643721115622 -3.5 L 83.50643721115622 -0.5 L 82.14189048057811 -0.5 Z"/><text text-anchor="middle" pointer-events="none" font-size="8px" fill="#000000" x="54.25321860557811" y="3" font-family="sans-serif">CONNECTI…</text></g><g class="relationship" transform="translate(35.26259929263003 419.68381536195966) rotate(271.392131293548)"><path class="outline" fill="#A5ABB6" stroke="none" d="M 25 0.5 L 51.43100380102814 0.5 L 51.43100380102814 -0.5 L 25 -0.5 Z M 111.20834755102814 0.5 L 137.63935135205628 0.5 L 137.63935135205628 3.5 L 144.63935135205628 0 L 137.63935135205628 -3.5 L 137.63935135205628 -0.5 L 111.20834755102814 -0.5 Z"/><text text-anchor="middle" pointer-events="none" font-size="8px" fill="#000000" x="81.31967567602814" y="3" font-family="sans-serif">CONNECTION</text></g><g class="relationship" transform="translate(39.38396766965538 250.0945354830497) rotate(326.78871742898866)"><path class="outline" fill="#A5ABB6" stroke="none" d="M 25 0.5 L 52.941081242401765 0.5 L 52.941081242401765 -0.5 L 25 -0.5 Z M 112.71842499240176 0.5 L 140.65950623480353 0.5 L 140.65950623480353 3.5 L 147.65950623480353 0 L 140.65950623480353 -3.5 L 140.65950623480353 -0.5 L 112.71842499240176 -0.5 Z"/><text text-anchor="middle" pointer-events="none" font-size="8px" fill="#000000" x="82.82975311740176" y="3" font-family="sans-serif">CONNECTION</text></g><g class="relationship" transform="translate(-29.782106130664456 -96.75571842143324) rotate(196.71934745315048)"><path class="outline" fill="#A5ABB6" stroke="none" d="M 25 0.5 L 43.20661221298383 0.5 L 43.20661221298383 -0.5 L 25 -0.5 Z M 102.98395596298383 0.5 L 121.19056817596766 0.5 L 121.19056817596766 3.5 L 128.19056817596766 0 L 121.19056817596766 -3.5 L 121.19056817596766 -0.5 L 102.98395596298383 -0.5 Z"/><text text-anchor="middle" pointer-events="none" font-size="8px" fill="#000000" x="73.09528408798383" y="3" transform="rotate(180 73.09528408798383 0)" font-family="sans-serif">CONNECTION</text></g><g class="relationship" transform="translate(-176.49660512052117 -140.8261843167597) rotate(523.3456194524983)"><path class="outline" fill="#A5ABB6" stroke="none" d="M 25 0.5 L 40.1614169068784 0.5 L 40.1614169068784 -0.5 L 25 -0.5 Z M 99.9387606568784 0.5 L 115.1001775637568 0.5 L 115.1001775637568 3.5 L 122.1001775637568 0 L 115.1001775637568 -3.5 L 115.1001775637568 -0.5 L 99.9387606568784 -0.5 Z"/><text text-anchor="middle" pointer-events="none" font-size="8px" fill="#000000" x="70.0500887818784" y="3" transform="rotate(180 70.0500887818784 0)" font-family="sans-serif">CONNECTION</text></g><g class="relationship" transform="translate(183.84066104348017 155.52409172419382) rotate(314.89896252233615)"><path class="outline" fill="#A5ABB6" stroke="none" d="M 25 0.5 L 57.16496441750401 0.5 L 57.16496441750401 -0.5 L 25 -0.5 Z M 116.94230816750401 0.5 L 149.10727258500802 0.5 L 149.10727258500802 3.5 L 156.10727258500802 0 L 149.10727258500802 -3.5 L 149.10727258500802 -0.5 L 116.94230816750401 -0.5 Z"/><text text-anchor="middle" pointer-events="none" font-size="8px" fill="#000000" x="87.05363629250401" y="3" font-family="sans-serif">CONNECTION</text></g><g class="relationship" transform="translate(311.676813066495 27.23628084907978) rotate(311.3911489745477)"><path class="outline" fill="#A5ABB6" stroke="none" d="M 25 0.5 L 52.33180733525357 0.5 L 52.33180733525357 -0.5 L 25 -0.5 Z M 112.10915108525357 0.5 L 139.44095842050714 0.5 L 139.44095842050714 3.5 L 146.44095842050714 0 L 139.44095842050714 -3.5 L 139.44095842050714 -0.5 L 112.10915108525357 -0.5 Z"/><text text-anchor="middle" pointer-events="none" font-size="8px" fill="#000000" x="82.22047921025357" y="3" font-family="sans-serif">CONNECTION</text></g><g class="relationship" transform="translate(-317.4260759285141 -98.66759685147741) rotate(248.99657607163243)"><path class="outline" fill="#A5ABB6" stroke="none" d="M 25 0.5 L 26.062540308449833 0.5 L 26.062540308449833 -0.5 L 25 -0.5 Z M 81.83988405844983 0.5 L 82.90242436689967 0.5 L 82.90242436689967 3.5 L 89.90242436689967 0 L 82.90242436689967 -3.5 L 82.90242436689967 -0.5 L 81.83988405844983 -0.5 Z"/><text text-anchor="middle" pointer-events="none" font-size="8px" fill="#000000" x="53.95121218344983" y="3" transform="rotate(180 53.95121218344983 0)" font-family="sans-serif">CONNECTI…</text></g><g class="relationship" transform="translate(-358.60983244122093 -205.93579029619417) rotate(294.4754000660378)"><path class="outline" fill="#A5ABB6" stroke="none" d="M 25 0.5 L 25.653081418924906 0.5 L 25.653081418924906 -0.5 L 25 -0.5 Z M 81.4304251689249 0.5 L 82.08350658784981 0.5 L 82.08350658784981 3.5 L 89.08350658784981 0 L 82.08350658784981 -3.5 L 82.08350658784981 -0.5 L 81.4304251689249 -0.5 Z"/><text text-anchor="middle" pointer-events="none" font-size="8px" fill="#000000" x="53.541753293924906" y="3" font-family="sans-serif">CONNECTI…</text></g><g class="relationship" transform="translate(-317.4260759285141 -98.66759685147741) rotate(503.11715602042966)"><path class="outline" fill="#A5ABB6" stroke="none" d="M 25 0.5 L 29.711508502796526 0.5 L 29.711508502796526 -0.5 L 25 -0.5 Z M 89.48885225279653 0.5 L 94.20036075559305 0.5 L 94.20036075559305 3.5 L 101.20036075559305 0 L 94.20036075559305 -3.5 L 94.20036075559305 -0.5 L 89.48885225279653 -0.5 Z"/><text text-anchor="middle" pointer-events="none" font-size="8px" fill="#000000" x="59.600180377796526" y="3" transform="rotate(180 59.600180377796526 0)" font-family="sans-serif">CONNECTION</text></g><g class="relationship" transform="translate(-418.36925250725506 -22.92456973323406) rotate(470.51507799345825)"><path class="outline" fill="#A5ABB6" stroke="none" d="M 25 0.5 L 27.885175251253962 0.5 L 27.885175251253962 -0.5 L 25 -0.5 Z M 87.66251900125397 0.5 L 90.54769425250792 0.5 L 90.54769425250792 3.5 L 97.54769425250792 0 L 90.54769425250792 -3.5 L 90.54769425250792 -0.5 L 87.66251900125397 -0.5 Z"/><text text-anchor="middle" pointer-events="none" font-size="8px" fill="#000000" x="57.77384712625396" y="3" transform="rotate(180 57.77384712625396 0)" font-family="sans-serif">CONNECTION</text></g></g><g class="layer nodes"><g class="node" transform="translate(183.84066104348017,155.52409172419382)"><circle class="outline" cx="0" cy="0" r="25" fill="#4C8EDA" stroke="#2870c2" stroke-width="2px"/><text text-anchor="middle" pointer-events="none" font-family="sans-serif" dy="1.5625" font-size="25" fill="#FFFFFF"/><text text-anchor="middle" pointer-events="none" x="0" y="5" font-size="10px" fill="#FFFFFF" font-family="sans-serif"> LAX</text></g><g class="node" transform="translate(475.70314925079333,212.56181071159722)"><circle class="outline" cx="0" cy="0" r="25" fill="#4C8EDA" stroke="#2870c2" stroke-width="2px"/><text text-anchor="middle" pointer-events="none" font-family="sans-serif" dy="1.5625" font-size="25" fill="#FFFFFF"/><text text-anchor="middle" pointer-events="none" x="0" y="5" font-size="10px" fill="#FFFFFF" font-family="sans-serif"> FAT</text></g><g class="node" transform="translate(372.4550327662672,173.38314616107644)"><circle class="outline" cx="0" cy="0" r="25" fill="#FFC454" stroke="#d7a013" stroke-width="2px"/><text text-anchor="middle" pointer-events="none" font-family="sans-serif" dy="1.5625" font-size="25" fill="#2A2C34"/><text text-anchor="middle" pointer-events="none" x="0" y="5" font-size="10px" fill="#2A2C34" font-family="sans-serif"> 11/4/2015</text></g><g class="node" transform="translate(35.26259929263003,419.68381536195966)"><circle class="outline" cx="0" cy="0" r="25" fill="#4C8EDA" stroke="#2870c2" stroke-width="2px"/><text text-anchor="middle" pointer-events="none" font-family="sans-serif" dy="1.5625" font-size="25" fill="#FFFFFF"/><text text-anchor="middle" pointer-events="none" x="0" y="5" font-size="10px" fill="#FFFFFF" font-family="sans-serif"> ABQ</text></g><g class="node" transform="translate(325.10095948273545,136.96574531942144)"><circle class="outline" cx="0" cy="0" r="25" fill="#FFC454" stroke="#d7a013" stroke-width="2px"/><text text-anchor="middle" pointer-events="none" font-family="sans-serif" dy="1.5625" font-size="25" fill="#2A2C34"/><text text-anchor="middle" pointer-events="none" x="0" y="5" font-size="10px" fill="#2A2C34" font-family="sans-serif"> 11/2/2015</text></g><g class="node" transform="translate(-29.782106130664456,-96.75571842143324)"><circle class="outline" cx="0" cy="0" r="25" fill="#4C8EDA" stroke="#2870c2" stroke-width="2px"/><text text-anchor="middle" pointer-events="none" font-family="sans-serif" dy="1.5625" font-size="25" fill="#FFFFFF"/><text text-anchor="middle" pointer-events="none" x="0" y="5" font-size="10px" fill="#FFFFFF" font-family="sans-serif"> SMF</text></g><g class="node" transform="translate(317.0504916055639,196.0566779889824)"><circle class="outline" cx="0" cy="0" r="25" fill="#FFC454" stroke="#d7a013" stroke-width="2px"/><text text-anchor="middle" pointer-events="none" font-family="sans-serif" dy="1.5625" font-size="25" fill="#2A2C34"/><text text-anchor="middle" pointer-events="none" x="0" y="5" font-size="10px" fill="#2A2C34" font-family="sans-serif"> 11/1/2015</text></g><g class="node" transform="translate(-196.3396238026385,109.10631044904757)"><circle class="outline" cx="0" cy="0" r="25" fill="#4C8EDA" stroke="#2870c2" stroke-width="2px"/><text text-anchor="middle" pointer-events="none" font-family="sans-serif" dy="1.5625" font-size="25" fill="#FFFFFF"/><text text-anchor="middle" pointer-events="none" x="0" y="5" font-size="10px" fill="#FFFFFF" font-family="sans-serif"> LAS</text></g><g class="node" transform="translate(240.1702605422665,-162.1102578714028)"><circle class="outline" cx="0" cy="0" r="25" fill="#4C8EDA" stroke="#2870c2" stroke-width="2px"/><text text-anchor="middle" pointer-events="none" font-family="sans-serif" dy="1.5625" font-size="25" fill="#FFFFFF"/><text text-anchor="middle" pointer-events="none" x="0" y="5" font-size="10px" fill="#FFFFFF" font-family="sans-serif"> TUS</text></g><g class="node" transform="translate(364.2318212185619,232.63590527800534)"><circle class="outline" cx="0" cy="0" r="25" fill="#FFC454" stroke="#d7a013" stroke-width="2px"/><text text-anchor="middle" pointer-events="none" font-family="sans-serif" dy="1.5625" font-size="25" fill="#2A2C34"/><text text-anchor="middle" pointer-events="none" x="0" y="5" font-size="10px" fill="#2A2C34" font-family="sans-serif"> 11/3/2015</text></g><g class="node" transform="translate(356.0152907686563,291.95441058299895)"><circle class="outline" cx="0" cy="0" r="25" fill="#FFC454" stroke="#d7a013" stroke-width="2px"/><text text-anchor="middle" pointer-events="none" font-family="sans-serif" dy="1.5625" font-size="25" fill="#2A2C34"/><text text-anchor="middle" pointer-events="none" x="0" y="5" font-size="10px" fill="#2A2C34" font-family="sans-serif"> 11/3/2015</text></g><g class="node" transform="translate(405.0840551632224,123.49719831626815)"><circle class="outline" cx="0" cy="0" r="25" fill="#FFC454" stroke="#d7a013" stroke-width="2px"/><text text-anchor="middle" pointer-events="none" font-family="sans-serif" dy="1.5625" font-size="25" fill="#2A2C34"/><text text-anchor="middle" pointer-events="none" x="0" y="5" font-size="10px" fill="#2A2C34" font-family="sans-serif"> 11/1/2015</text></g><g class="node" transform="translate(357.9846538759495,87.02403865040779)"><circle class="outline" cx="0" cy="0" r="25" fill="#FFC454" stroke="#d7a013" stroke-width="2px"/><text text-anchor="middle" pointer-events="none" font-family="sans-serif" dy="1.5625" font-size="25" fill="#2A2C34"/><text text-anchor="middle" pointer-events="none" x="0" y="5" font-size="10px" fill="#2A2C34" font-family="sans-serif"> 11/2/2015</text></g><g class="node" transform="translate(-317.4260759285141,-98.66759685147741)"><circle class="outline" cx="0" cy="0" r="25" fill="#4C8EDA" stroke="#2870c2" stroke-width="2px"/><text text-anchor="middle" pointer-events="none" font-family="sans-serif" dy="1.5625" font-size="25" fill="#FFFFFF"/><text text-anchor="middle" pointer-events="none" x="0" y="5" font-size="10px" fill="#FFFFFF" font-family="sans-serif"> DEN</text></g><g class="node" transform="translate(268.745317676261,-15.232401249202477)"><circle class="outline" cx="0" cy="0" r="25" fill="#FFC454" stroke="#d7a013" stroke-width="2px"/><text text-anchor="middle" pointer-events="none" font-family="sans-serif" dy="1.5625" font-size="25" fill="#2A2C34"/><text text-anchor="middle" pointer-events="none" x="0" y="5" font-size="10px" fill="#2A2C34" font-family="sans-serif"> 11/1/2015</text></g><g class="node" transform="translate(222.33836795197735,-52.9776766884448)"><circle class="outline" cx="0" cy="0" r="25" fill="#FFC454" stroke="#d7a013" stroke-width="2px"/><text text-anchor="middle" pointer-events="none" font-family="sans-serif" dy="1.5625" font-size="25" fill="#2A2C34"/><text text-anchor="middle" pointer-events="none" x="0" y="5" font-size="10px" fill="#2A2C34" font-family="sans-serif"> 11/2/2015</text></g><g class="node" transform="translate(195.27010934442796,365.4360876033062)"><circle class="outline" cx="0" cy="0" r="25" fill="#FFC454" stroke="#d7a013" stroke-width="2px"/><text text-anchor="middle" pointer-events="none" font-family="sans-serif" dy="1.5625" font-size="25" fill="#2A2C34"/><text text-anchor="middle" pointer-events="none" x="0" y="5" font-size="10px" fill="#2A2C34" font-family="sans-serif"> 11/1/2015</text></g><g class="node" transform="translate(132.1700371965407,326.8244823360695)"><circle class="outline" cx="0" cy="0" r="25" fill="#FFC454" stroke="#d7a013" stroke-width="2px"/><text text-anchor="middle" pointer-events="none" font-family="sans-serif" dy="1.5625" font-size="25" fill="#2A2C34"/><text text-anchor="middle" pointer-events="none" x="0" y="5" font-size="10px" fill="#2A2C34" font-family="sans-serif"> 11/2/2015</text></g><g class="node" transform="translate(95.58355938009309,230.03866105927978)"><circle class="outline" cx="0" cy="0" r="25" fill="#FFC454" stroke="#d7a013" stroke-width="2px"/><text text-anchor="middle" pointer-events="none" font-family="sans-serif" dy="1.5625" font-size="25" fill="#2A2C34"/><text text-anchor="middle" pointer-events="none" x="0" y="5" font-size="10px" fill="#2A2C34" font-family="sans-serif"> 11/3/2015</text></g><g class="node" transform="translate(39.38396766965538,250.0945354830497)"><circle class="outline" cx="0" cy="0" r="25" fill="#FFC454" stroke="#d7a013" stroke-width="2px"/><text text-anchor="middle" pointer-events="none" font-family="sans-serif" dy="1.5625" font-size="25" fill="#2A2C34"/><text text-anchor="middle" pointer-events="none" x="0" y="5" font-size="10px" fill="#2A2C34" font-family="sans-serif"> 11/4/2015</text></g><g class="node" transform="translate(308.8548423892408,255.39089520120194)"><circle class="outline" cx="0" cy="0" r="25" fill="#FFC454" stroke="#d7a013" stroke-width="2px"/><text text-anchor="middle" pointer-events="none" font-family="sans-serif" dy="1.5625" font-size="25" fill="#2A2C34"/><text text-anchor="middle" pointer-events="none" x="0" y="5" font-size="10px" fill="#2A2C34" font-family="sans-serif"> 11/4/2015</text></g><g class="node" transform="translate(425.032885688313,-101.38099257832259)"><circle class="outline" cx="0" cy="0" r="25" fill="#4C8EDA" stroke="#2870c2" stroke-width="2px"/><text text-anchor="middle" pointer-events="none" font-family="sans-serif" dy="1.5625" font-size="25" fill="#FFFFFF"/><text text-anchor="middle" pointer-events="none" x="0" y="5" font-size="10px" fill="#FFFFFF" font-family="sans-serif"> IAH</text></g><g class="node" transform="translate(-311.34474900236114,-309.76766576272706)"><circle class="outline" cx="0" cy="0" r="25" fill="#4C8EDA" stroke="#2870c2" stroke-width="2px"/><text text-anchor="middle" pointer-events="none" font-family="sans-serif" dy="1.5625" font-size="25" fill="#FFFFFF"/><text text-anchor="middle" pointer-events="none" x="0" y="5" font-size="10px" fill="#FFFFFF" font-family="sans-serif"> BZN</text></g><g class="node" transform="translate(-461.31656552815946,91.85114926207706)"><circle class="outline" cx="0" cy="0" r="25" fill="#4C8EDA" stroke="#2870c2" stroke-width="2px"/><text text-anchor="middle" pointer-events="none" font-family="sans-serif" dy="1.5625" font-size="25" fill="#FFFFFF"/><text text-anchor="middle" pointer-events="none" x="0" y="5" font-size="10px" fill="#FFFFFF" font-family="sans-serif"> OKC</text></g><g class="node" transform="translate(212.68500456183912,5.91483165765574)"><circle class="outline" cx="0" cy="0" r="25" fill="#FFC454" stroke="#d7a013" stroke-width="2px"/><text text-anchor="middle" pointer-events="none" font-family="sans-serif" dy="1.5625" font-size="25" fill="#2A2C34"/><text text-anchor="middle" pointer-events="none" x="0" y="5" font-size="10px" fill="#2A2C34" font-family="sans-serif"> 11/1/2015</text></g><g class="node" transform="translate(166.3119326204455,-31.916760901069047)"><circle class="outline" cx="0" cy="0" r="25" fill="#FFC454" stroke="#d7a013" stroke-width="2px"/><text text-anchor="middle" pointer-events="none" font-family="sans-serif" dy="1.5625" font-size="25" fill="#2A2C34"/><text text-anchor="middle" pointer-events="none" x="0" y="5" font-size="10px" fill="#2A2C34" font-family="sans-serif"> 11/2/2015</text></g><g class="node" transform="translate(86.0274172005515,288.636512560103)"><circle class="outline" cx="0" cy="0" r="25" fill="#FFC454" stroke="#d7a013" stroke-width="2px"/><text text-anchor="middle" pointer-events="none" font-family="sans-serif" dy="1.5625" font-size="25" fill="#2A2C34"/><text text-anchor="middle" pointer-events="none" x="0" y="5" font-size="10px" fill="#2A2C34" font-family="sans-serif"> 11/3/2015</text></g><g class="node" transform="translate(-16.356923868540775,271.51531976103183)"><circle class="outline" cx="0" cy="0" r="25" fill="#FFC454" stroke="#d7a013" stroke-width="2px"/><text text-anchor="middle" pointer-events="none" font-family="sans-serif" dy="1.5625" font-size="25" fill="#2A2C34"/><text text-anchor="middle" pointer-events="none" x="0" y="5" font-size="10px" fill="#2A2C34" font-family="sans-serif"> 11/3/2015</text></g><g class="node" transform="translate(27.290123089325714,54.95789058051275)"><circle class="outline" cx="0" cy="0" r="25" fill="#FFC454" stroke="#d7a013" stroke-width="2px"/><text text-anchor="middle" pointer-events="none" font-family="sans-serif" dy="1.5625" font-size="25" fill="#2A2C34"/><text text-anchor="middle" pointer-events="none" x="0" y="5" font-size="10px" fill="#2A2C34" font-family="sans-serif"> 11/2/2015</text></g><g class="node" transform="translate(76.16655300678744,347.3739051048808)"><circle class="outline" cx="0" cy="0" r="25" fill="#FFC454" stroke="#d7a013" stroke-width="2px"/><text text-anchor="middle" pointer-events="none" font-family="sans-serif" dy="1.5625" font-size="25" fill="#2A2C34"/><text text-anchor="middle" pointer-events="none" x="0" y="5" font-size="10px" fill="#2A2C34" font-family="sans-serif"> 11/2/2015</text></g><g class="node" transform="translate(84.76357349985406,37.993064662962034)"><circle class="outline" cx="0" cy="0" r="25" fill="#FFC454" stroke="#d7a013" stroke-width="2px"/><text text-anchor="middle" pointer-events="none" font-family="sans-serif" dy="1.5625" font-size="25" fill="#2A2C34"/><text text-anchor="middle" pointer-events="none" x="0" y="5" font-size="10px" fill="#2A2C34" font-family="sans-serif"> 11/3/2015</text></g><g class="node" transform="translate(142.08514534549846,268.0333097151284)"><circle class="outline" cx="0" cy="0" r="25" fill="#FFC454" stroke="#d7a013" stroke-width="2px"/><text text-anchor="middle" pointer-events="none" font-family="sans-serif" dy="1.5625" font-size="25" fill="#2A2C34"/><text text-anchor="middle" pointer-events="none" x="0" y="5" font-size="10px" fill="#2A2C34" font-family="sans-serif"> 11/1/2015</text></g><g class="node" transform="translate(98.88832096021765,-20.27773650292295)"><circle class="outline" cx="0" cy="0" r="25" fill="#FFC454" stroke="#d7a013" stroke-width="2px"/><text text-anchor="middle" pointer-events="none" font-family="sans-serif" dy="1.5625" font-size="25" fill="#2A2C34"/><text text-anchor="middle" pointer-events="none" x="0" y="5" font-size="10px" fill="#2A2C34" font-family="sans-serif"> 11/4/2015</text></g><g class="node" transform="translate(-14.557244200285893,132.14499461456018)"><circle class="outline" cx="0" cy="0" r="25" fill="#FFC454" stroke="#d7a013" stroke-width="2px"/><text text-anchor="middle" pointer-events="none" font-family="sans-serif" dy="1.5625" font-size="25" fill="#2A2C34"/><text text-anchor="middle" pointer-events="none" x="0" y="5" font-size="10px" fill="#2A2C34" font-family="sans-serif"> 11/29/20…</text></g><g class="node" transform="translate(41.57373579706932,-3.142565980074499)"><circle class="outline" cx="0" cy="0" r="25" fill="#FFC454" stroke="#d7a013" stroke-width="2px"/><text text-anchor="middle" pointer-events="none" font-family="sans-serif" dy="1.5625" font-size="25" fill="#2A2C34"/><text text-anchor="middle" pointer-events="none" x="0" y="5" font-size="10px" fill="#2A2C34" font-family="sans-serif"> 11/1/2015</text></g><g class="node" transform="translate(29.878618718923725,309.21913515535664)"><circle class="outline" cx="0" cy="0" r="25" fill="#FFC454" stroke="#d7a013" stroke-width="2px"/><text text-anchor="middle" pointer-events="none" font-family="sans-serif" dy="1.5625" font-size="25" fill="#2A2C34"/><text text-anchor="middle" pointer-events="none" x="0" y="5" font-size="10px" fill="#2A2C34" font-family="sans-serif"> 11/2/2015</text></g><g class="node" transform="translate(139.28797409582822,386.1314636604643)"><circle class="outline" cx="0" cy="0" r="25" fill="#FFC454" stroke="#d7a013" stroke-width="2px"/><text text-anchor="middle" pointer-events="none" font-family="sans-serif" dy="1.5625" font-size="25" fill="#2A2C34"/><text text-anchor="middle" pointer-events="none" x="0" y="5" font-size="10px" fill="#2A2C34" font-family="sans-serif"> 11/1/2015</text></g><g class="node" transform="translate(188.22189074311217,306.1972327338432)"><circle class="outline" cx="0" cy="0" r="25" fill="#FFC454" stroke="#d7a013" stroke-width="2px"/><text text-anchor="middle" pointer-events="none" font-family="sans-serif" dy="1.5625" font-size="25" fill="#2A2C34"/><text text-anchor="middle" pointer-events="none" x="0" y="5" font-size="10px" fill="#2A2C34" font-family="sans-serif"> 11/4/2015</text></g><g class="node" transform="translate(-300.84559341526585,25.55328920342163)"><circle class="outline" cx="0" cy="0" r="25" fill="#FFC454" stroke="#d7a013" stroke-width="2px"/><text text-anchor="middle" pointer-events="none" font-family="sans-serif" dy="1.5625" font-size="25" fill="#2A2C34"/><text text-anchor="middle" pointer-events="none" x="0" y="5" font-size="10px" fill="#2A2C34" font-family="sans-serif"> 11/29/20…</text></g><g class="node" transform="translate(-176.49660512052117,-140.8261843167597)"><circle class="outline" cx="0" cy="0" r="25" fill="#FFC454" stroke="#d7a013" stroke-width="2px"/><text text-anchor="middle" pointer-events="none" font-family="sans-serif" dy="1.5625" font-size="25" fill="#2A2C34"/><text text-anchor="middle" pointer-events="none" x="0" y="5" font-size="10px" fill="#2A2C34" font-family="sans-serif"> 11/30/20…</text></g><g class="node" transform="translate(311.676813066495,27.23628084907978)"><circle class="outline" cx="0" cy="0" r="25" fill="#FFC454" stroke="#d7a013" stroke-width="2px"/><text text-anchor="middle" pointer-events="none" font-family="sans-serif" dy="1.5625" font-size="25" fill="#2A2C34"/><text text-anchor="middle" pointer-events="none" x="0" y="5" font-size="10px" fill="#2A2C34" font-family="sans-serif"> 11/30/20…</text></g><g class="node" transform="translate(-358.60983244122093,-205.93579029619417)"><circle class="outline" cx="0" cy="0" r="25" fill="#FFC454" stroke="#d7a013" stroke-width="2px"/><text text-anchor="middle" pointer-events="none" font-family="sans-serif" dy="1.5625" font-size="25" fill="#2A2C34"/><text text-anchor="middle" pointer-events="none" x="0" y="5" font-size="10px" fill="#2A2C34" font-family="sans-serif"> 11/29/20…</text></g><g class="node" transform="translate(-418.36925250725506,-22.92456973323406)"><circle class="outline" cx="0" cy="0" r="25" fill="#FFC454" stroke="#d7a013" stroke-width="2px"/><text text-anchor="middle" pointer-events="none" font-family="sans-serif" dy="1.5625" font-size="25" fill="#2A2C34"/><text text-anchor="middle" pointer-events="none" x="0" y="5" font-size="10px" fill="#2A2C34" font-family="sans-serif"> 11/29/20…</text></g></g></svg>