<svg xmlns="http://www.w3.org/2000/svg" width="329.58685302734375" height="329.46881103515625" viewBox="-49.20018005371094 -73.72109985351562 329.58685302734375 329.46881103515625"><title>Neo4j Graph Visualization</title><desc>Created using Neo4j (http://www.neo4j.com/)</desc><g class="layer relationships"><g class="relationship" transform="translate(251.3866622042704 226.74769888589697) rotate(231.69933166426097)"><path class="outline" fill="#A5ABB6" stroke="none" d="M 25 0.5 L 40.243183030770965 0.5 L 40.243183030770965 -0.5 L 25 -0.5 Z M 59.579120530770965 0.5 L 74.82230356154193 0.5 L 74.82230356154193 3.5 L 81.82230356154193 0 L 74.82230356154193 -3.5 L 74.82230356154193 -0.5 L 59.579120530770965 -0.5 Z"/><text text-anchor="middle" pointer-events="none" font-size="8px" fill="#000000" x="49.911151780770965" y="3" transform="rotate(180 49.911151780770965 0)" font-family="sans-serif">trek</text></g><g class="relationship" transform="translate(185.17946046600565 142.9168514836255) rotate(269.0582060201874)"><path class="outline" fill="#A5ABB6" stroke="none" d="M 25 0.5 L 45.37289673863169 0.5 L 45.37289673863169 -0.5 L 25 -0.5 Z M 64.70883423863168 0.5 L 85.08173097726338 0.5 L 85.08173097726338 3.5 L 92.08173097726338 0 L 85.08173097726338 -3.5 L 85.08173097726338 -0.5 L 64.70883423863168 -0.5 Z"/><text text-anchor="middle" pointer-events="none" font-size="8px" fill="#000000" x="55.04086548863169" y="3" transform="rotate(180 55.04086548863169 0)" font-family="sans-serif">trek</text></g><g class="relationship" transform="translate(183.25502720207774 25.850937207757106) rotate(216.53518625091596)"><path class="outline" fill="#A5ABB6" stroke="none" d="M 25 0.5 L 46.10475194387456 0.5 L 46.10475194387456 -0.5 L 25 -0.5 Z M 65.44068944387456 0.5 L 86.54544138774912 0.5 L 86.54544138774912 3.5 L 93.54544138774912 0 L 86.54544138774912 -3.5 L 86.54544138774912 -0.5 L 65.44068944387456 -0.5 Z"/><text text-anchor="middle" pointer-events="none" font-size="8px" fill="#000000" x="55.77272069387456" y="3" transform="rotate(180 55.77272069387456 0)" font-family="sans-serif">trek</text></g><g class="relationship" transform="translate(88.0047822962739 -44.72110059193135) rotate(511.6547141769128)"><path class="outline" fill="#A5ABB6" stroke="none" d="M 25 0.5 L 48.30497190814997 0.5 L 48.30497190814997 -0.5 L 25 -0.5 Z M 67.64090940814998 0.5 L 90.94588131629995 0.5 L 90.94588131629995 3.5 L 97.94588131629995 0 L 90.94588131629995 -3.5 L 90.94588131629995 -0.5 L 67.64090940814998 -0.5 Z"/><text text-anchor="middle" pointer-events="none" font-size="8px" fill="#000000" x="57.97294065814997" y="3" transform="rotate(180 57.97294065814997 0)" font-family="sans-serif">trek</text></g><g class="relationship selected" transform="translate(-20.20017867903967 13.651634079082477) rotate(449.8402457867743)"><path class="outline" fill="#A5ABB6" stroke="none" d="M 25 0.5 L 45.97668452860223 0.5 L 45.97668452860223 -0.5 L 25 -0.5 Z M 65.31262202860222 0.5 L 86.28930655720445 0.5 L 86.28930655720445 3.5 L 93.28930655720445 0 L 86.28930655720445 -3.5 L 86.28930655720445 -0.5 L 65.31262202860222 -0.5 Z"/><text text-anchor="middle" pointer-events="none" font-size="8px" fill="#000000" x="55.64465327860223" y="3" font-family="sans-serif">trek</text></g><g class="relationship" transform="translate(183.25502720207774 25.850937207757106) rotate(513.2952710084613)"><path class="outline" fill="#A5ABB6" stroke="none" d="M 25 0.5 L 44.14167977369464 0.5 L 44.14167977369464 -0.5 L 25 -0.5 Z M 63.47761727369464 0.5 L 82.61929704738928 0.5 L 82.61929704738928 3.5 L 89.61929704738928 0 L 82.61929704738928 -3.5 L 82.61929704738928 -0.5 L 63.47761727369464 -0.5 Z"/><text text-anchor="middle" pointer-events="none" font-size="8px" fill="#000000" x="53.80964852369464" y="3" transform="rotate(180 53.80964852369464 0)" font-family="sans-serif">trek</text></g><g class="relationship" transform="translate(80.86167769862143 77.36001634047608) rotate(511.5494740295702)"><path class="outline" fill="#A5ABB6" stroke="none" d="M 25 0.5 L 44.11634546478627 0.5 L 44.11634546478627 -0.5 L 25 -0.5 Z M 63.45228296478627 0.5 L 82.56862842957254 0.5 L 82.56862842957254 3.5 L 89.56862842957254 0 L 82.56862842957254 -3.5 L 82.56862842957254 -0.5 L 63.45228296478627 -0.5 Z"/><text text-anchor="middle" pointer-events="none" font-size="8px" fill="#000000" x="53.78431421478627" y="3" transform="rotate(180 53.78431421478627 0)" font-family="sans-serif">trek</text></g><g class="relationship" transform="translate(185.17946046600565 142.9168514836255) rotate(512.4640223354754)"><path class="outline" fill="#A5ABB6" stroke="none" d="M 25 0.5 L 47.9653432512687 0.5 L 47.9653432512687 -0.5 L 25 -0.5 Z M 67.3012807512687 0.5 L 90.2666240025374 0.5 L 90.2666240025374 3.5 L 97.2666240025374 0 L 90.2666240025374 -3.5 L 90.2666240025374 -0.5 L 67.3012807512687 -0.5 Z"/><text text-anchor="middle" pointer-events="none" font-size="8px" fill="#000000" x="57.6333120012687" y="3" transform="rotate(180 57.6333120012687 0)" font-family="sans-serif">trek</text></g><g class="relationship" transform="translate(76.76311243998535 199.4413844377216) rotate(214.93526467283664)"><path class="outline" fill="#A5ABB6" stroke="none" d="M 25 0.5 L 45.76928618490511 0.5 L 45.76928618490511 -0.5 L 25 -0.5 Z M 65.10522368490511 0.5 L 85.87450986981023 0.5 L 85.87450986981023 3.5 L 92.87450986981023 0 L 85.87450986981023 -3.5 L 85.87450986981023 -0.5 L 65.10522368490511 -0.5 Z"/><text text-anchor="middle" pointer-events="none" font-size="8px" fill="#000000" x="55.43725493490511" y="3" transform="rotate(180 55.43725493490511 0)" font-family="sans-serif">trek</text></g></g><g class="layer nodes"><g class="node" transform="translate(251.3866622042704,226.74769888589697)"><circle class="outline" cx="0" cy="0" r="25" fill="#D9C8AE" stroke="#c0a378" stroke-width="2px"/><text text-anchor="middle" pointer-events="none" font-family="sans-serif" dy="1.5625" font-size="25" fill="#2A2C34"/><text text-anchor="middle" pointer-events="none" x="0" y="5" font-size="10px" fill="#2A2C34" font-family="sans-serif"> Darjeeling</text></g><g class="node" transform="translate(185.17946046600565,142.9168514836255)"><circle class="outline" cx="0" cy="0" r="25" fill="#D9C8AE" stroke="#c0a378" stroke-width="2px"/><text text-anchor="middle" pointer-events="none" font-family="sans-serif" dy="1.5625" font-size="25" fill="#2A2C34"/><text text-anchor="middle" pointer-events="none" x="0" y="5" font-size="10px" fill="#2A2C34" font-family="sans-serif"> Rimbik</text></g><g class="node" transform="translate(183.25502720207774,25.850937207757106)"><circle class="outline" cx="0" cy="0" r="25" fill="#8DCC93" stroke="#5db665" stroke-width="2px"/><text text-anchor="middle" pointer-events="none" font-family="sans-serif" dy="1.5625" font-size="25" fill="#2A2C34"/><text text-anchor="middle" pointer-events="none" x="0" y="5" font-size="10px" fill="#2A2C34" font-family="sans-serif"> Sirikhola</text></g><g class="node" transform="translate(88.0047822962739,-44.72110059193135)"><circle class="outline" cx="0" cy="0" r="25" fill="#8DCC93" stroke="#5db665" stroke-width="2px"/><text text-anchor="middle" pointer-events="none" font-family="sans-serif" dy="1.5625" font-size="25" fill="#2A2C34"/><text text-anchor="middle" pointer-events="none" x="0" y="5" font-size="10px" fill="#2A2C34" font-family="sans-serif"> Rammam</text></g><g class="node" transform="translate(-20.20017867903967,13.651634079082477)"><circle class="outline" cx="0" cy="0" r="25" fill="#ECB5C9" stroke="#da7298" stroke-width="2px"/><text text-anchor="middle" pointer-events="none" font-family="sans-serif" dy="1.5625" font-size="25" fill="#2A2C34"/><text text-anchor="middle" pointer-events="none" x="0" y="5" font-size="10px" fill="#2A2C34" font-family="sans-serif"> Sabargr…</text></g><g class="node" transform="translate(-19.87036048340054,131.94048083033843)"><circle class="outline" cx="0" cy="0" r="25" fill="#ECB5C9" stroke="#da7298" stroke-width="2px"/><text text-anchor="middle" pointer-events="none" font-family="sans-serif" dy="1.5625" font-size="25" fill="#2A2C34"/><text text-anchor="middle" pointer-events="none" x="0" y="5" font-size="10px" fill="#2A2C34" font-family="sans-serif"> Sandak…</text></g><g class="node" transform="translate(80.86167769862143,77.36001634047608)"><circle class="outline" cx="0" cy="0" r="25" fill="#8DCC93" stroke="#5db665" stroke-width="2px"/><text text-anchor="middle" pointer-events="none" font-family="sans-serif" dy="1.5625" font-size="25" fill="#2A2C34"/><text text-anchor="middle" pointer-events="none" x="0" y="5" font-size="10px" fill="#2A2C34" font-family="sans-serif"> Gurdum</text></g><g class="node" transform="translate(76.76311243998535,199.4413844377216)"><circle class="outline" cx="0" cy="0" r="25" fill="#8DCC93" stroke="#5db665" stroke-width="2px"/><text text-anchor="middle" pointer-events="none" font-family="sans-serif" dy="1.5625" font-size="25" fill="#2A2C34"/><text text-anchor="middle" pointer-events="none" x="0" y="5" font-size="10px" fill="#2A2C34" font-family="sans-serif"> BhikeBh…</text></g></g></svg>