<svg xmlns="http://www.w3.org/2000/svg" width="221.38031005859375" height="240.5203094482422" viewBox="-15.023505210876465 -10.545675277709961 221.38031005859375 240.5203094482422"><title>Neo4j Graph Visualization</title><desc>Created using Neo4j (http://www.neo4j.com/)</desc><g class="layer relationships"><g class="relationship" transform="translate(177.35680559337868 24.46053200452699) rotate(183.25614740109734)"><path class="outline" fill="#A5ABB6" stroke="none" d="M 21.40063509461097,12.933012701892217 L 21.90063509461097,12.06698729810778 A 58.16869775800647 58.16869775800647 0 0 0 39.65201923778034,18.745438307362242 L 39.457189970964336,19.726275478758154 A 59.16869775800647 59.16869775800647 0 0 1 21.40063509461097,12.933012701892217 Z M 58.86027299093162,20.333676988145314 L 58.72717408364239,19.34257422814592 A 58.16869775800647 58.16869775800647 0 0 0 76.86152104571035,13.787503828887946 L 75.52696114995261,11.100693473720485 L 83.35317185706072,11.121332464647802 L 78.640934240054,17.369917635777895 L 77.30637434429626,14.683107280610432 A 59.16869775800647 59.16869775800647 0 0 1 58.86027299093162,20.333676988145314"/><text text-anchor="middle" pointer-events="none" font-size="8px" fill="#000000" x="49.149295922333906" y="23.33138958903144" transform="rotate(180 49.149295922333906 20.33138958903144)" font-family="sans-serif">trek</text></g><g class="relationship" transform="translate(71.78426125136852 18.45432476885618) rotate(483.29345236353424)"><path class="outline" fill="#A5ABB6" stroke="none" d="M 25 0.5 L 39.487243097614204 0.5 L 39.487243097614204 -0.5 L 25 -0.5 Z M 58.823180597614204 0.5 L 73.31042369522841 0.5 L 73.31042369522841 3.5 L 80.31042369522841 0 L 73.31042369522841 -3.5 L 73.31042369522841 -0.5 L 58.823180597614204 -0.5 Z"/><text text-anchor="middle" pointer-events="none" font-size="8px" fill="#000000" x="49.155211847614204" y="3" transform="rotate(180 49.155211847614204 0)" font-family="sans-serif">trek</text></g><g class="relationship" transform="translate(13.9764946920891 106.48015884213481) rotate(423.3475754343479)"><path class="outline" fill="#A5ABB6" stroke="none" d="M 25 0.5 L 39.696421858357425 0.5 L 39.696421858357425 -0.5 L 25 -0.5 Z M 59.032359358357425 0.5 L 73.72878121671485 0.5 L 73.72878121671485 3.5 L 80.72878121671485 0 L 73.72878121671485 -3.5 L 73.72878121671485 -0.5 L 59.032359358357425 -0.5 Z"/><text text-anchor="middle" pointer-events="none" font-size="8px" fill="#000000" x="49.364390608357425" y="3" font-family="sans-serif">trek</text></g><g class="relationship" transform="translate(177.35680559337868 24.46053200452699) rotate(183.25614740109734)"><path class="outline" fill="#A5ABB6" stroke="none" d="M 25 0.5 L 38.365769700061435 0.5 L 38.365769700061435 -0.5 L 25 -0.5 Z M 60.377488450061435 0.5 L 73.74325815012287 0.5 L 73.74325815012287 3.5 L 80.74325815012287 0 L 73.74325815012287 -3.5 L 73.74325815012287 -0.5 L 60.377488450061435 -0.5 Z"/><text text-anchor="middle" pointer-events="none" font-size="8px" fill="#000000" x="49.371629075061435" y="3" transform="rotate(180 49.371629075061435 0)" font-family="sans-serif">road</text></g><g class="relationship" transform="translate(177.35680559337868 24.46053200452699) rotate(183.25614740109734)"><path class="outline" fill="#A5ABB6" stroke="none" d="M 21.40063509461097,-12.933012701892217 L 21.90063509461097,-12.06698729810778 A 58.16869775800647 58.16869775800647 0 0 1 22.687346622035907,-12.5130772758339 L 22.200871276321582,-13.38677158050352 A 59.16869775800647 59.16869775800647 0 0 0 21.40063509461097,-12.933012701892217 Z M 76.47932356378169,-15.085924947660416 L 76.04844810841108,-14.183513543721418 A 58.16869775800647 58.16869775800647 0 0 1 76.86152104571035,-13.787503828887946 L 75.52696114995261,-11.100693473720485 L 83.35317185706072,-11.121332464647802 L 78.640934240054,-17.369917635777895 L 77.30637434429626,-14.683107280610432 A 59.16869775800647 59.16869775800647 0 0 0 76.47932356378169,-15.085924947660416"/><text text-anchor="middle" pointer-events="none" font-size="8px" fill="#000000" x="49.14929592233389" y="-17.33138958903144" transform="rotate(180 49.14929592233389 -20.33138958903144)" font-family="sans-serif">PublicTrans…</text></g></g><g class="layer nodes"><g class="node" transform="translate(61.40399785087676,200.9746408064016)"><circle class="outline" cx="0" cy="0" r="25" fill="#ECB5C9" stroke="#da7298" stroke-width="2px"/><text text-anchor="middle" pointer-events="none" font-family="sans-serif" dy="1.5625" font-size="25" fill="#2A2C34"/><text text-anchor="middle" pointer-events="none" x="0" y="5" font-size="10px" fill="#2A2C34" font-family="sans-serif"> Sandak…</text></g><g class="node" transform="translate(177.35680559337868,24.46053200452699)"><circle class="outline" cx="0" cy="0" r="25" fill="#D9C8AE" stroke="#c0a378" stroke-width="2px"/><text text-anchor="middle" pointer-events="none" font-family="sans-serif" dy="1.5625" font-size="25" fill="#2A2C34"/><text text-anchor="middle" pointer-events="none" x="0" y="5" font-size="10px" fill="#2A2C34" font-family="sans-serif"> Darjeeling</text></g><g class="node" transform="translate(71.78426125136852,18.45432476885618)"><circle class="outline" cx="0" cy="0" r="25" fill="#D9C8AE" stroke="#c0a378" stroke-width="2px"/><text text-anchor="middle" pointer-events="none" font-family="sans-serif" dy="1.5625" font-size="25" fill="#2A2C34"/><text text-anchor="middle" pointer-events="none" x="0" y="5" font-size="10px" fill="#2A2C34" font-family="sans-serif"> Rimbik</text></g><g class="node" transform="translate(13.9764946920891,106.48015884213481)"><circle class="outline" cx="0" cy="0" r="25" fill="#8DCC93" stroke="#5db665" stroke-width="2px"/><text text-anchor="middle" pointer-events="none" font-family="sans-serif" dy="1.5625" font-size="25" fill="#2A2C34"/><text text-anchor="middle" pointer-events="none" x="0" y="5" font-size="10px" fill="#2A2C34" font-family="sans-serif"> BhikeBh…</text></g></g></svg>