<svg xmlns="http://www.w3.org/2000/svg" width="221.76222229003906" height="240.52561950683594" viewBox="-15.066390991210938 -10.691282272338867 221.76222229003906 240.52561950683594"><title>Neo4j Graph Visualization</title><desc>Created using Neo4j (http://www.neo4j.com/)</desc><g class="layer relationships"><g class="relationship" transform="translate(177.695847098098 24.702001866889805) rotate(183.46543458641094)"><path class="outline" fill="#A5ABB6" stroke="none" d="M 21.40063509461097,12.933012701892217 L 21.90063509461097,12.06698729810778 A 58.194181548908354 58.194181548908354 0 0 0 39.66427284180984,18.749253195730013 L 39.46952050187478,19.73010564441423 A 59.194181548908354 59.194181548908354 0 0 1 21.40063509461097,12.933012701892217 Z M 58.87261288921255,20.337373800401707 L 58.7395780737275,19.346262435383196 A 58.194181548908354 58.194181548908354 0 0 0 76.88631676450622,13.7879013074222 L 75.55171989211873,11.101109319155613 L 83.37793088252617,11.121640603229139 L 78.66577926102288,17.37029062511098 L 77.33118238863538,14.683498636844394 A 59.194181548908354 59.194181548908354 0 0 1 58.87261288921255,20.337373800401707"/><text text-anchor="middle" pointer-events="none" font-size="8px" fill="#000000" x="49.16164414055656" y="23.334803927960124" transform="rotate(180 49.16164414055656 20.334803927960124)" font-family="sans-serif">trek</text></g><g class="relationship" transform="translate(72.12138521354909 18.308718055827804) rotate(483.5377017782288)"><path class="outline" fill="#A5ABB6" stroke="none" d="M 25 0.5 L 39.49202663594781 0.5 L 39.49202663594781 -0.5 L 25 -0.5 Z M 58.82796413594781 0.5 L 73.31999077189562 0.5 L 73.31999077189562 3.5 L 80.31999077189562 0 L 73.31999077189562 -3.5 L 73.31999077189562 -0.5 L 58.82796413594781 -0.5 Z"/><text text-anchor="middle" pointer-events="none" font-size="8px" fill="#000000" x="49.15999538594781" y="3" transform="rotate(180 49.15999538594781 0)" font-family="sans-serif">trek</text></g><g class="relationship" transform="translate(13.933609082577137 106.09529541890802) rotate(423.63974478469044)"><path class="outline" fill="#A5ABB6" stroke="none" d="M 25 0.5 L 39.698621432136335 0.5 L 39.698621432136335 -0.5 L 25 -0.5 Z M 59.034558932136335 0.5 L 73.73318036427267 0.5 L 73.73318036427267 3.5 L 80.73318036427267 0 L 73.73318036427267 -3.5 L 73.73318036427267 -0.5 L 59.034558932136335 -0.5 Z"/><text text-anchor="middle" pointer-events="none" font-size="8px" fill="#000000" x="49.366590182136335" y="3" font-family="sans-serif">trek</text></g><g class="relationship" transform="translate(177.695847098098 24.702001866889805) rotate(183.46543458641094)"><path class="outline" fill="#A5ABB6" stroke="none" d="M 25 0.5 L 38.378072684040525 0.5 L 38.378072684040525 -0.5 L 25 -0.5 Z M 60.389791434040525 0.5 L 73.76786411808105 0.5 L 73.76786411808105 3.5 L 80.76786411808105 0 L 73.76786411808105 -3.5 L 73.76786411808105 -0.5 L 60.389791434040525 -0.5 Z"/><text text-anchor="middle" pointer-events="none" font-size="8px" fill="#000000" x="49.383932059040525" y="3" transform="rotate(180 49.383932059040525 0)" font-family="sans-serif">road</text></g><g class="relationship" transform="translate(177.695847098098 24.702001866889805) rotate(183.46543458641094)"><path class="outline" fill="#A5ABB6" stroke="none" d="M 21.40063509461097,-12.933012701892217 L 21.90063509461097,-12.06698729810778 A 58.194181548908354 58.194181548908354 0 0 1 22.698566379382147,-12.519326468894924 L 22.21227790970242,-13.393124800466083 A 59.194181548908354 59.194181548908354 0 0 0 21.40063509461097,-12.933012701892217 Z M 76.49235555244748,-15.091955172395757 L 76.06166069331985,-14.189457561140728 A 58.194181548908354 58.194181548908354 0 0 1 76.88631676450622,-13.7879013074222 L 75.55171989211873,-11.101109319155613 L 83.37793088252617,-11.121640603229139 L 78.66577926102288,-17.37029062511098 L 77.33118238863538,-14.683498636844394 A 59.194181548908354 59.194181548908354 0 0 0 76.49235555244748,-15.091955172395757"/><text text-anchor="middle" pointer-events="none" font-size="8px" fill="#000000" x="49.161644140556554" y="-17.334803927960124" transform="rotate(180 49.161644140556554 -20.334803927960124)" font-family="sans-serif">PublicTrans…</text></g></g><g class="layer nodes"><g class="node" transform="translate(60.880593652198115,200.834337369751)"><circle class="outline" cx="0" cy="0" r="25" fill="#ECB5C9" stroke="#da7298" stroke-width="2px"/><text text-anchor="middle" pointer-events="none" font-family="sans-serif" dy="1.5625" font-size="25" fill="#2A2C34"/><text text-anchor="middle" pointer-events="none" x="0" y="5" font-size="10px" fill="#2A2C34" font-family="sans-serif"> Sandak…</text></g><g class="node" transform="translate(177.695847098098,24.702001866889805)"><circle class="outline" cx="0" cy="0" r="25" fill="#D9C8AE" stroke="#c0a378" stroke-width="2px"/><text text-anchor="middle" pointer-events="none" font-family="sans-serif" dy="1.5625" font-size="25" fill="#2A2C34"/><text text-anchor="middle" pointer-events="none" x="0" y="5" font-size="10px" fill="#2A2C34" font-family="sans-serif"> Darjeeling</text></g><g class="node" transform="translate(72.12138521354909,18.308718055827804)"><circle class="outline" cx="0" cy="0" r="25" fill="#D9C8AE" stroke="#c0a378" stroke-width="2px"/><text text-anchor="middle" pointer-events="none" font-family="sans-serif" dy="1.5625" font-size="25" fill="#2A2C34"/><text text-anchor="middle" pointer-events="none" x="0" y="5" font-size="10px" fill="#2A2C34" font-family="sans-serif"> Rimbik</text></g><g class="node" transform="translate(13.933609082577137,106.09529541890802)"><circle class="outline" cx="0" cy="0" r="25" fill="#8DCC93" stroke="#5db665" stroke-width="2px"/><text text-anchor="middle" pointer-events="none" font-family="sans-serif" dy="1.5625" font-size="25" fill="#2A2C34"/><text text-anchor="middle" pointer-events="none" x="0" y="5" font-size="10px" fill="#2A2C34" font-family="sans-serif"> BhikeBh…</text></g></g></svg>