<svg xmlns="http://www.w3.org/2000/svg" width="568.19873046875" height="869.06982421875" viewBox="-161.46554565429688 -245.89535522460938 568.19873046875 869.06982421875"><title>Neo4j Graph Visualization</title><desc>Created using Neo4j (http://www.neo4j.com/)</desc><g class="layer relationships"><g class="relationship" transform="translate(100.43971432966586 72.69306971012242) rotate(364.0074721769031)"><path class="outline" fill="#A5ABB6" stroke="none" d="M 25 0.5 L 31.70898900613294 0.5 L 31.70898900613294 -0.5 L 25 -0.5 Z M 91.48633275613294 0.5 L 98.19532176226588 0.5 L 98.19532176226588 3.5 L 105.19532176226588 0 L 98.19532176226588 -3.5 L 98.19532176226588 -0.5 L 91.48633275613294 -0.5 Z"/><text text-anchor="middle" pointer-events="none" font-size="8px" fill="#000000" x="61.59766088113294" y="3" font-family="sans-serif">CONNECTION</text></g><g class="relationship" transform="translate(230.31670131084752 81.79197412053988) rotate(375.1093640320021)"><path class="outline" fill="#A5ABB6" stroke="none" d="M 25 0.5 L 42.95888135387476 0.5 L 42.95888135387476 -0.5 L 25 -0.5 Z M 102.73622510387476 0.5 L 120.69510645774952 0.5 L 120.69510645774952 3.5 L 127.69510645774952 0 L 120.69510645774952 -3.5 L 120.69510645774952 -0.5 L 102.73622510387476 -0.5 Z"/><text text-anchor="middle" pointer-events="none" font-size="8px" fill="#000000" x="72.84755322887476" y="3" font-family="sans-serif">CONNECTION</text></g><g class="relationship" transform="translate(377.7331444893625 121.59383107143016) rotate(513.4780930960167)"><path class="outline" fill="#A5ABB6" stroke="none" d="M 25 0.5 L 54.782045084270294 0.5 L 54.782045084270294 -0.5 L 25 -0.5 Z M 114.5593888342703 0.5 L 144.3414339185406 0.5 L 144.3414339185406 3.5 L 151.3414339185406 0 L 144.3414339185406 -3.5 L 144.3414339185406 -0.5 L 114.5593888342703 -0.5 Z"/><text text-anchor="middle" pointer-events="none" font-size="8px" fill="#000000" x="84.6707169592703" y="3" transform="rotate(180 84.6707169592703 0)" font-family="sans-serif">CONNECTION</text></g><g class="relationship" transform="translate(219.94923175463265 200.33732730169783) rotate(226.88513439823504)"><path class="outline" fill="#A5ABB6" stroke="none" d="M 25 0.5 L 54.04070140888683 0.5 L 54.04070140888683 -0.5 L 25 -0.5 Z M 113.81804515888683 0.5 L 142.85874656777366 0.5 L 142.85874656777366 3.5 L 149.85874656777366 0 L 142.85874656777366 -3.5 L 142.85874656777366 -0.5 L 113.81804515888683 -0.5 Z"/><text text-anchor="middle" pointer-events="none" font-size="8px" fill="#000000" x="83.92937328388683" y="3" transform="rotate(180 83.92937328388683 0)" font-family="sans-serif">CONNECTION</text></g><g class="relationship" transform="translate(100.43971432966586 72.69306971012242) rotate(468.5551865141949)"><path class="outline" fill="#A5ABB6" stroke="none" d="M 25 0.5 L 51.20250955518874 0.5 L 51.20250955518874 -0.5 L 25 -0.5 Z M 110.97985330518874 0.5 L 137.18236286037748 0.5 L 137.18236286037748 3.5 L 144.18236286037748 0 L 137.18236286037748 -3.5 L 137.18236286037748 -0.5 L 110.97985330518874 -0.5 Z"/><text text-anchor="middle" pointer-events="none" font-size="8px" fill="#000000" x="81.09118143018874" y="3" transform="rotate(180 81.09118143018874 0)" font-family="sans-serif">CONNECTION</text></g><g class="relationship" transform="translate(46.60285446546853 233.08092593054582) rotate(533.1979129033092)"><path class="outline" fill="#A5ABB6" stroke="none" d="M 25 0.5 L 52.430851622979986 0.5 L 52.430851622979986 -0.5 L 25 -0.5 Z M 112.20819537297999 0.5 L 139.63904699595997 0.5 L 139.63904699595997 3.5 L 146.63904699595997 0 L 139.63904699595997 -3.5 L 139.63904699595997 -0.5 L 112.20819537297999 -0.5 Z"/><text text-anchor="middle" pointer-events="none" font-size="8px" fill="#000000" x="82.31952349797999" y="3" transform="rotate(180 82.31952349797999 0)" font-family="sans-serif">CONNECTION</text></g><g class="relationship" transform="translate(100.43971432966586 72.69306971012242) rotate(391.44920144274204)"><path class="outline" fill="#A5ABB6" stroke="none" d="M 25 0.5 L 69.3715394456512 0.5 L 69.3715394456512 -0.5 L 25 -0.5 Z M 129.1488831956512 0.5 L 173.5204226413024 0.5 L 173.5204226413024 3.5 L 180.5204226413024 0 L 173.5204226413024 -3.5 L 173.5204226413024 -0.5 L 129.1488831956512 -0.5 Z"/><text text-anchor="middle" pointer-events="none" font-size="8px" fill="#000000" x="99.2602113206512" y="3" font-family="sans-serif">CONNECTION</text></g><g class="relationship" transform="translate(275.7698193725909 179.92178968894353) rotate(330.22835340142285)"><path class="outline" fill="#A5ABB6" stroke="none" d="M 25 0.5 L 25.345199156447457 0.5 L 25.345199156447457 -0.5 L 25 -0.5 Z M 85.12254290644745 0.5 L 85.46774206289491 0.5 L 85.46774206289491 3.5 L 92.46774206289491 0 L 85.46774206289491 -3.5 L 85.46774206289491 -0.5 L 85.12254290644745 -0.5 Z"/><text text-anchor="middle" pointer-events="none" font-size="8px" fill="#000000" x="55.23387103144746" y="3" font-family="sans-serif">CONNECTION</text></g><g class="relationship" transform="translate(100.43971432966586 72.69306971012242) rotate(513.0851375416735)"><path class="outline" fill="#A5ABB6" stroke="none" d="M 25 0.5 L 34.357222235649715 0.5 L 34.357222235649715 -0.5 L 25 -0.5 Z M 94.13456598564972 0.5 L 103.49178822129943 0.5 L 103.49178822129943 3.5 L 110.49178822129943 0 L 103.49178822129943 -3.5 L 103.49178822129943 -0.5 L 94.13456598564972 -0.5 Z"/><text text-anchor="middle" pointer-events="none" font-size="8px" fill="#000000" x="64.24589411064972" y="3" transform="rotate(180 64.24589411064972 0)" font-family="sans-serif">CONNECTION</text></g><g class="relationship" transform="translate(-20.375622166263245 134.02559894853613) rotate(490.9105627069024)"><path class="outline" fill="#A5ABB6" stroke="none" d="M 25 0.5 L 45.597106603974055 0.5 L 45.597106603974055 -0.5 L 25 -0.5 Z M 105.37445035397405 0.5 L 125.97155695794811 0.5 L 125.97155695794811 3.5 L 132.9715569579481 0 L 125.97155695794811 -3.5 L 125.97155695794811 -0.5 L 105.37445035397405 -0.5 Z"/><text text-anchor="middle" pointer-events="none" font-size="8px" fill="#000000" x="75.48577847897405" y="3" transform="rotate(180 75.48577847897405 0)" font-family="sans-serif">CONNECTION</text></g><g class="relationship" transform="translate(100.43971432966586 72.69306971012242) rotate(218.8225544032427)"><path class="outline" fill="#A5ABB6" stroke="none" d="M 25 0.5 L 64.59571056391343 0.5 L 64.59571056391343 -0.5 L 25 -0.5 Z M 124.37305431391343 0.5 L 163.96876487782686 0.5 L 163.96876487782686 3.5 L 170.96876487782686 0 L 163.96876487782686 -3.5 L 163.96876487782686 -0.5 L 124.37305431391343 -0.5 Z"/><text text-anchor="middle" pointer-events="none" font-size="8px" fill="#000000" x="94.48438243891343" y="3" transform="rotate(180 94.48438243891343 0)" font-family="sans-serif">CONNECTION</text></g><g class="relationship" transform="translate(-52.23783425751969 -50.16181609076289) rotate(217.97201631389294)"><path class="outline" fill="#A5ABB6" stroke="none" d="M 25 0.5 L 25.94048727389385 0.5 L 25.94048727389385 -0.5 L 25 -0.5 Z M 68.83111227389385 0.5 L 69.7715995477877 0.5 L 69.7715995477877 3.5 L 76.7715995477877 0 L 69.7715995477877 -3.5 L 69.7715995477877 -0.5 L 68.83111227389385 -0.5 Z"/><text text-anchor="middle" pointer-events="none" font-size="8px" fill="#000000" x="47.38579977389385" y="3" transform="rotate(180 47.38579977389385 0)" font-family="sans-serif">CONNE…</text></g><g class="relationship" transform="translate(100.43971432966586 72.69306971012242) rotate(484.48166859412294)"><path class="outline" fill="#A5ABB6" stroke="none" d="M 25 0.5 L 66.54583395129885 0.5 L 66.54583395129885 -0.5 L 25 -0.5 Z M 126.32317770129885 0.5 L 167.8690116525977 0.5 L 167.8690116525977 3.5 L 174.8690116525977 0 L 167.8690116525977 -3.5 L 167.8690116525977 -0.5 L 126.32317770129885 -0.5 Z"/><text text-anchor="middle" pointer-events="none" font-size="8px" fill="#000000" x="96.43450582629885" y="3" transform="rotate(180 96.43450582629885 0)" font-family="sans-serif">CONNECTION</text></g><g class="relationship" transform="translate(-12.714634438139283 237.44656792463726) rotate(531.8244404448353)"><path class="outline" fill="#A5ABB6" stroke="none" d="M 25 0.5 L 25.849789442480223 0.5 L 25.849789442480223 -0.5 L 25 -0.5 Z M 79.40447694248022 0.5 L 80.25426638496045 0.5 L 80.25426638496045 3.5 L 87.25426638496045 0 L 80.25426638496045 -3.5 L 80.25426638496045 -0.5 L 79.40447694248022 -0.5 Z"/><text text-anchor="middle" pointer-events="none" font-size="8px" fill="#000000" x="52.62713319248022" y="3" transform="rotate(180 52.62713319248022 0)" font-family="sans-serif">CONNECT…</text></g><g class="relationship" transform="translate(100.43971432966586 72.69306971012242) rotate(236.46019032071138)"><path class="outline" fill="#A5ABB6" stroke="none" d="M 25 0.5 L 55.81937874462025 0.5 L 55.81937874462025 -0.5 L 25 -0.5 Z M 115.59672249462025 0.5 L 146.4161012392405 0.5 L 146.4161012392405 3.5 L 153.4161012392405 0 L 146.4161012392405 -3.5 L 146.4161012392405 -0.5 L 115.59672249462025 -0.5 Z"/><text text-anchor="middle" pointer-events="none" font-size="8px" fill="#000000" x="85.70805061962025" y="3" transform="rotate(180 85.70805061962025 0)" font-family="sans-serif">CONNECTION</text></g><g class="relationship" transform="translate(1.8619201631363074 -76.01713060805427) rotate(195.3057647508781)"><path class="outline" fill="#A5ABB6" stroke="none" d="M 25 0.5 L 36.24490168820536 0.5 L 36.24490168820536 -0.5 L 25 -0.5 Z M 96.02224543820536 0.5 L 107.26714712641072 0.5 L 107.26714712641072 3.5 L 114.26714712641072 0 L 107.26714712641072 -3.5 L 107.26714712641072 -0.5 L 96.02224543820536 -0.5 Z"/><text text-anchor="middle" pointer-events="none" font-size="8px" fill="#000000" x="66.13357356320536" y="3" transform="rotate(180 66.13357356320536 0)" font-family="sans-serif">CONNECTION</text></g><g class="relationship" transform="translate(100.43971432966586 72.69306971012242) rotate(488.1740880292344)"><path class="outline" fill="#A5ABB6" stroke="none" d="M 25 0.5 L 37.1006859440694 0.5 L 37.1006859440694 -0.5 L 25 -0.5 Z M 96.8780296940694 0.5 L 108.9787156381388 0.5 L 108.9787156381388 3.5 L 115.9787156381388 0 L 108.9787156381388 -3.5 L 108.9787156381388 -0.5 L 96.8780296940694 -0.5 Z"/><text text-anchor="middle" pointer-events="none" font-size="8px" fill="#000000" x="66.9893578190694" y="3" transform="rotate(180 66.9893578190694 0)" font-family="sans-serif">CONNECTION</text></g><g class="relationship" transform="translate(13.307406206700346 183.52158203499212) rotate(512.9952613009045)"><path class="outline" fill="#A5ABB6" stroke="none" d="M 25 0.5 L 43.56993663753882 0.5 L 43.56993663753882 -0.5 L 25 -0.5 Z M 103.34728038753882 0.5 L 121.91721702507763 0.5 L 121.91721702507763 3.5 L 128.91721702507763 0 L 121.91721702507763 -3.5 L 121.91721702507763 -0.5 L 103.34728038753882 -0.5 Z"/><text text-anchor="middle" pointer-events="none" font-size="8px" fill="#000000" x="73.45860851253882" y="3" transform="rotate(180 73.45860851253882 0)" font-family="sans-serif">CONNECTION</text></g><g class="relationship" transform="translate(100.43971432966586 72.69306971012242) rotate(220.66571858103453)"><path class="outline" fill="#A5ABB6" stroke="none" d="M 25 0.5 L 34.97221025760993 0.5 L 34.97221025760993 -0.5 L 25 -0.5 Z M 94.74955400760993 0.5 L 104.72176426521986 0.5 L 104.72176426521986 3.5 L 111.72176426521986 0 L 104.72176426521986 -3.5 L 104.72176426521986 -0.5 L 94.74955400760993 -0.5 Z"/><text text-anchor="middle" pointer-events="none" font-size="8px" fill="#000000" x="64.86088213260993" y="3" transform="rotate(180 64.86088213260993 0)" font-family="sans-serif">CONNECTION</text></g><g class="relationship" transform="translate(-3.2670752769391846 -16.400940264093624) rotate(216.72194046813502)"><path class="outline" fill="#A5ABB6" stroke="none" d="M 25 0.5 L 47.204549162527 0.5 L 47.204549162527 -0.5 L 25 -0.5 Z M 106.981892912527 0.5 L 129.186442075054 0.5 L 129.186442075054 3.5 L 136.186442075054 0 L 129.186442075054 -3.5 L 129.186442075054 -0.5 L 106.981892912527 -0.5 Z"/><text text-anchor="middle" pointer-events="none" font-size="8px" fill="#000000" x="77.093221037527" y="3" transform="rotate(180 77.093221037527 0)" font-family="sans-serif">CONNECTION</text></g><g class="relationship" transform="translate(100.43971432966586 72.69306971012242) rotate(356.46578258005184)"><path class="outline" fill="#A5ABB6" stroke="none" d="M 25 0.5 L 59.78593973920546 0.5 L 59.78593973920546 -0.5 L 25 -0.5 Z M 119.56328348920546 0.5 L 154.34922322841092 0.5 L 154.34922322841092 3.5 L 161.34922322841092 0 L 154.34922322841092 -3.5 L 154.34922322841092 -0.5 L 119.56328348920546 -0.5 Z"/><text text-anchor="middle" pointer-events="none" font-size="8px" fill="#000000" x="89.67461161420546" y="3" font-family="sans-serif">CONNECTION</text></g><g class="relationship" transform="translate(286.4345314934387 61.20564240689971) rotate(393.4820847812032)"><path class="outline" fill="#A5ABB6" stroke="none" d="M 25 0.5 L 26.89756517633826 0.5 L 26.89756517633826 -0.5 L 25 -0.5 Z M 75.56553392633826 0.5 L 77.46309910267652 0.5 L 77.46309910267652 3.5 L 84.46309910267652 0 L 77.46309910267652 -3.5 L 77.46309910267652 -0.5 L 75.56553392633826 -0.5 Z"/><text text-anchor="middle" pointer-events="none" font-size="8px" fill="#000000" x="51.23154955133826" y="3" font-family="sans-serif">CONNEC…</text></g><g class="relationship" transform="translate(100.43971432966586 72.69306971012242) rotate(440.05952729334143)"><path class="outline" fill="#A5ABB6" stroke="none" d="M 25 0.5 L 60.78800462881911 0.5 L 60.78800462881911 -0.5 L 25 -0.5 Z M 120.56534837881911 0.5 L 156.35335300763822 0.5 L 156.35335300763822 3.5 L 163.35335300763822 0 L 156.35335300763822 -3.5 L 156.35335300763822 -0.5 L 120.56534837881911 -0.5 Z"/><text text-anchor="middle" pointer-events="none" font-size="8px" fill="#000000" x="90.67667650381911" y="3" font-family="sans-serif">CONNECTION</text></g><g class="relationship" transform="translate(132.95419697726953 258.21879301386986) rotate(444.73054917403806)"><path class="outline" fill="#A5ABB6" stroke="none" d="M 25 0.5 L 50.136831453161705 0.5 L 50.136831453161705 -0.5 L 25 -0.5 Z M 109.9141752031617 0.5 L 135.0510066563234 0.5 L 135.0510066563234 3.5 L 142.0510066563234 0 L 135.0510066563234 -3.5 L 135.0510066563234 -0.5 L 109.9141752031617 -0.5 Z"/><text text-anchor="middle" pointer-events="none" font-size="8px" fill="#000000" x="80.0255033281617" y="3" font-family="sans-serif">CONNECTION</text></g><g class="relationship" transform="translate(100.43971432966586 72.69306971012242) rotate(301.2067704369415)"><path class="outline" fill="#A5ABB6" stroke="none" d="M 25 0.5 L 57.41250395855937 0.5 L 57.41250395855937 -0.5 L 25 -0.5 Z M 117.18984770855937 0.5 L 149.60235166711874 0.5 L 149.60235166711874 3.5 L 156.60235166711874 0 L 149.60235166711874 -3.5 L 149.60235166711874 -0.5 L 117.18984770855937 -0.5 Z"/><text text-anchor="middle" pointer-events="none" font-size="8px" fill="#000000" x="87.30117583355937" y="3" font-family="sans-serif">CONNECTION</text></g><g class="relationship" transform="translate(194.53299231957774 -82.6319738860119) rotate(259.9736451409095)"><path class="outline" fill="#A5ABB6" stroke="none" d="M 25 0.5 L 34.78416846398652 0.5 L 34.78416846398652 -0.5 L 25 -0.5 Z M 94.56151221398652 0.5 L 104.34568067797304 0.5 L 104.34568067797304 3.5 L 111.34568067797304 0 L 104.34568067797304 -3.5 L 104.34568067797304 -0.5 L 94.56151221398652 -0.5 Z"/><text text-anchor="middle" pointer-events="none" font-size="8px" fill="#000000" x="64.67284033898652" y="3" transform="rotate(180 64.67284033898652 0)" font-family="sans-serif">CONNECTION</text></g><g class="relationship" transform="translate(100.43971432966586 72.69306971012242) rotate(201.31876278117)"><path class="outline" fill="#A5ABB6" stroke="none" d="M 25 0.5 L 54.94893792719891 0.5 L 54.94893792719891 -0.5 L 25 -0.5 Z M 114.72628167719891 0.5 L 144.67521960439782 0.5 L 144.67521960439782 3.5 L 151.67521960439782 0 L 144.67521960439782 -3.5 L 144.67521960439782 -0.5 L 114.72628167719891 -0.5 Z"/><text text-anchor="middle" pointer-events="none" font-size="8px" fill="#000000" x="84.83760980219891" y="3" transform="rotate(180 84.83760980219891 0)" font-family="sans-serif">CONNECTION</text></g><g class="relationship" transform="translate(-64.14601273073136 8.461678083732934) rotate(240.5986943751277)"><path class="outline" fill="#A5ABB6" stroke="none" d="M 25 0.5 L 36.19397603912569 0.5 L 36.19397603912569 -0.5 L 25 -0.5 Z M 95.97131978912569 0.5 L 107.16529582825137 0.5 L 107.16529582825137 3.5 L 114.16529582825137 0 L 107.16529582825137 -3.5 L 107.16529582825137 -0.5 L 95.97131978912569 -0.5 Z"/><text text-anchor="middle" pointer-events="none" font-size="8px" fill="#000000" x="66.08264791412569" y="3" transform="rotate(180 66.08264791412569 0)" font-family="sans-serif">CONNECTION</text></g><g class="relationship" transform="translate(100.43971432966586 72.69306971012242) rotate(518.5324922367917)"><path class="outline" fill="#A5ABB6" stroke="none" d="M 25 0.5 L 69.42097645383757 0.5 L 69.42097645383757 -0.5 L 25 -0.5 Z M 129.19832020383757 0.5 L 173.61929665767514 0.5 L 173.61929665767514 3.5 L 180.61929665767514 0 L 173.61929665767514 -3.5 L 173.61929665767514 -0.5 L 129.19832020383757 -0.5 Z"/><text text-anchor="middle" pointer-events="none" font-size="8px" fill="#000000" x="99.30964832883757" y="3" transform="rotate(180 99.30964832883757 0)" font-family="sans-serif">CONNECTION</text></g><g class="relationship" transform="translate(-90.91479706865246 147.94428980327353) rotate(467.33188124040663)"><path class="outline" fill="#A5ABB6" stroke="none" d="M 25 0.5 L 27.40701755863266 0.5 L 27.40701755863266 -0.5 L 25 -0.5 Z M 76.07498630863266 0.5 L 78.48200386726532 0.5 L 78.48200386726532 3.5 L 85.48200386726532 0 L 78.48200386726532 -3.5 L 78.48200386726532 -0.5 L 76.07498630863266 -0.5 Z"/><text text-anchor="middle" pointer-events="none" font-size="8px" fill="#000000" x="51.74100193363266" y="3" transform="rotate(180 51.74100193363266 0)" font-family="sans-serif">CONNEC…</text></g><g class="relationship" transform="translate(100.43971432966586 72.69306971012242) rotate(375.08910633662265)"><path class="outline" fill="#A5ABB6" stroke="none" d="M 25 0.5 L 57.54983566129059 0.5 L 57.54983566129059 -0.5 L 25 -0.5 Z M 117.32717941129059 0.5 L 149.87701507258117 0.5 L 149.87701507258117 3.5 L 156.87701507258117 0 L 149.87701507258117 -3.5 L 149.87701507258117 -0.5 L 117.32717941129059 -0.5 Z"/><text text-anchor="middle" pointer-events="none" font-size="8px" fill="#000000" x="87.43850753629059" y="3" font-family="sans-serif">CONNECTION</text></g><g class="relationship" transform="translate(276.0459997262616 120.03946493638318) rotate(360.87574180801255)"><path class="outline" fill="#A5ABB6" stroke="none" d="M 25 0.5 L 25.904199454771053 0.5 L 25.904199454771053 -0.5 L 25 -0.5 Z M 68.79482445477106 0.5 L 69.6990239095421 0.5 L 69.6990239095421 3.5 L 76.6990239095421 0 L 69.6990239095421 -3.5 L 69.6990239095421 -0.5 L 68.79482445477106 -0.5 Z"/><text text-anchor="middle" pointer-events="none" font-size="8px" fill="#000000" x="47.34951195477105" y="3" font-family="sans-serif">CONNE…</text></g><g class="relationship" transform="translate(100.43971432966586 72.69306971012242) rotate(532.5326279818664)"><path class="outline" fill="#A5ABB6" stroke="none" d="M 25 0.5 L 50.116794142231655 0.5 L 50.116794142231655 -0.5 L 25 -0.5 Z M 109.89413789223165 0.5 L 135.0109320344633 0.5 L 135.0109320344633 3.5 L 142.0109320344633 0 L 135.0109320344633 -3.5 L 135.0109320344633 -0.5 L 109.89413789223165 -0.5 Z"/><text text-anchor="middle" pointer-events="none" font-size="8px" fill="#000000" x="80.00546601723165" y="3" transform="rotate(180 80.00546601723165 0)" font-family="sans-serif">CONNECTION</text></g><g class="relationship" transform="translate(-65.15480313454145 94.39807385240405) rotate(470.2533946921823)"><path class="outline" fill="#A5ABB6" stroke="none" d="M 25 0.5 L 51.35698423350371 0.5 L 51.35698423350371 -0.5 L 25 -0.5 Z M 111.13432798350371 0.5 L 137.49131221700742 0.5 L 137.49131221700742 3.5 L 144.49131221700742 0 L 137.49131221700742 -3.5 L 137.49131221700742 -0.5 L 111.13432798350371 -0.5 Z"/><text text-anchor="middle" pointer-events="none" font-size="8px" fill="#000000" x="81.24565610850371" y="3" transform="rotate(180 81.24565610850371 0)" font-family="sans-serif">CONNECTION</text></g><g class="relationship" transform="translate(100.43971432966586 72.69306971012242) rotate(286.73913078924363)"><path class="outline" fill="#A5ABB6" stroke="none" d="M 25 0.5 L 35.02981723328875 0.5 L 35.02981723328875 -0.5 L 25 -0.5 Z M 94.80716098328875 0.5 L 104.8369782165775 0.5 L 104.8369782165775 3.5 L 111.8369782165775 0 L 104.8369782165775 -3.5 L 104.8369782165775 -0.5 L 94.80716098328875 -0.5 Z"/><text text-anchor="middle" pointer-events="none" font-size="8px" fill="#000000" x="64.91848910828875" y="3" font-family="sans-serif">CONNECTION</text></g><g class="relationship" transform="translate(139.8507630112106 -58.34558050142782) rotate(281.0436375948183)"><path class="outline" fill="#A5ABB6" stroke="none" d="M 25 0.5 L 47.3819590338165 0.5 L 47.3819590338165 -0.5 L 25 -0.5 Z M 107.1593027838165 0.5 L 129.541261817633 0.5 L 129.541261817633 3.5 L 136.541261817633 0 L 129.541261817633 -3.5 L 129.541261817633 -0.5 L 107.1593027838165 -0.5 Z"/><text text-anchor="middle" pointer-events="none" font-size="8px" fill="#000000" x="77.2706309088165" y="3" font-family="sans-serif">CONNECTION</text></g><g class="relationship" transform="translate(100.43971432966586 72.69306971012242) rotate(501.91212778724173)"><path class="outline" fill="#A5ABB6" stroke="none" d="M 25 0.5 L 59.82901752085709 0.5 L 59.82901752085709 -0.5 L 25 -0.5 Z M 119.6063612708571 0.5 L 154.4353787917142 0.5 L 154.4353787917142 3.5 L 161.4353787917142 0 L 154.4353787917142 -3.5 L 154.4353787917142 -0.5 L 119.6063612708571 -0.5 Z"/><text text-anchor="middle" pointer-events="none" font-size="8px" fill="#000000" x="89.7176893958571" y="3" transform="rotate(180 89.7176893958571 0)" font-family="sans-serif">CONNECTION</text></g><g class="relationship" transform="translate(-46.29716121533391 187.6993296288816) rotate(499.7173850059778)"><path class="outline" fill="#A5ABB6" stroke="none" d="M 25 0.5 L 25.870325554974684 0.5 L 25.870325554974684 -0.5 L 25 -0.5 Z M 68.76095055497468 0.5 L 69.63127610994937 0.5 L 69.63127610994937 3.5 L 76.63127610994937 0 L 69.63127610994937 -3.5 L 69.63127610994937 -0.5 L 68.76095055497468 -0.5 Z"/><text text-anchor="middle" pointer-events="none" font-size="8px" fill="#000000" x="47.315638054974684" y="3" transform="rotate(180 47.315638054974684 0)" font-family="sans-serif">CONNE…</text></g><g class="relationship" transform="translate(377.7331444893625 121.59383107143016) rotate(533.0482610107916)"><path class="outline" fill="#A5ABB6" stroke="none" d="M 25 0.5 L 46.069370566098314 0.5 L 46.069370566098314 -0.5 L 25 -0.5 Z M 105.84671431609831 0.5 L 126.91608488219663 0.5 L 126.91608488219663 3.5 L 133.91608488219663 0 L 126.91608488219663 -3.5 L 126.91608488219663 -0.5 L 105.84671431609831 -0.5 Z"/><text text-anchor="middle" pointer-events="none" font-size="8px" fill="#000000" x="75.95804244109831" y="3" transform="rotate(180 75.95804244109831 0)" font-family="sans-serif">CONNECTION</text></g><g class="relationship" transform="translate(219.98533887680745 140.82796371912391) rotate(209.68092913439648)"><path class="outline" fill="#A5ABB6" stroke="none" d="M 25 0.5 L 35.410892313270864 0.5 L 35.410892313270864 -0.5 L 25 -0.5 Z M 95.18823606327086 0.5 L 105.59912837654173 0.5 L 105.59912837654173 3.5 L 112.59912837654173 0 L 105.59912837654173 -3.5 L 105.59912837654173 -0.5 L 95.18823606327086 -0.5 Z"/><text text-anchor="middle" pointer-events="none" font-size="8px" fill="#000000" x="65.29956418827086" y="3" transform="rotate(180 65.29956418827086 0)" font-family="sans-serif">CONNECTION</text></g><g class="relationship" transform="translate(377.7331444893625 121.59383107143016) rotate(215.68010144761615)"><path class="outline" fill="#A5ABB6" stroke="none" d="M 25 0.5 L 51.15626949719339 0.5 L 51.15626949719339 -0.5 L 25 -0.5 Z M 110.93361324719339 0.5 L 137.08988274438678 0.5 L 137.08988274438678 3.5 L 144.08988274438678 0 L 137.08988274438678 -3.5 L 137.08988274438678 -0.5 L 110.93361324719339 -0.5 Z"/><text text-anchor="middle" pointer-events="none" font-size="8px" fill="#000000" x="81.04494137219339" y="3" transform="rotate(180 81.04494137219339 0)" font-family="sans-serif">CONNECTION</text></g><g class="relationship" transform="translate(240.3837764896947 22.970610901926953) rotate(520.4397529061233)"><path class="outline" fill="#A5ABB6" stroke="none" d="M 25 0.5 L 40.86875779332125 0.5 L 40.86875779332125 -0.5 L 25 -0.5 Z M 100.64610154332125 0.5 L 116.5148593366425 0.5 L 116.5148593366425 3.5 L 123.5148593366425 0 L 116.5148593366425 -3.5 L 116.5148593366425 -0.5 L 100.64610154332125 -0.5 Z"/><text text-anchor="middle" pointer-events="none" font-size="8px" fill="#000000" x="70.75742966832125" y="3" transform="rotate(180 70.75742966832125 0)" font-family="sans-serif">CONNECTION</text></g><g class="relationship" transform="translate(377.7331444893625 121.59383107143016) rotate(235.6799237868537)"><path class="outline" fill="#A5ABB6" stroke="none" d="M 25 0.5 L 38.81742298376871 0.5 L 38.81742298376871 -0.5 L 25 -0.5 Z M 98.59476673376871 0.5 L 112.41218971753742 0.5 L 112.41218971753742 3.5 L 119.41218971753742 0 L 112.41218971753742 -3.5 L 112.41218971753742 -0.5 L 98.59476673376871 -0.5 Z"/><text text-anchor="middle" pointer-events="none" font-size="8px" fill="#000000" x="68.70609485876871" y="3" transform="rotate(180 68.70609485876871 0)" font-family="sans-serif">CONNECTION</text></g><g class="relationship" transform="translate(296.3113170190691 2.323690003299443) rotate(520.2385250071341)"><path class="outline" fill="#A5ABB6" stroke="none" d="M 25 0.5 L 70.67565239181883 0.5 L 70.67565239181883 -0.5 L 25 -0.5 Z M 130.45299614181883 0.5 L 176.12864853363766 0.5 L 176.12864853363766 3.5 L 183.12864853363766 0 L 176.12864853363766 -3.5 L 176.12864853363766 -0.5 L 130.45299614181883 -0.5 Z"/><text text-anchor="middle" pointer-events="none" font-size="8px" fill="#000000" x="100.56432426681883" y="3" transform="rotate(180 100.56432426681883 0)" font-family="sans-serif">CONNECTION</text></g><g class="relationship" transform="translate(148.29610633388216 424.56380989800886) rotate(458.35191480457956)"><path class="outline" fill="#A5ABB6" stroke="none" d="M 25 0.5 L 28.388531952241017 0.5 L 28.388531952241017 -0.5 L 25 -0.5 Z M 88.16587570224101 0.5 L 91.55440765448203 0.5 L 91.55440765448203 3.5 L 98.55440765448203 0 L 91.55440765448203 -3.5 L 91.55440765448203 -0.5 L 88.16587570224101 -0.5 Z"/><text text-anchor="middle" pointer-events="none" font-size="8px" fill="#000000" x="58.27720382724102" y="3" transform="rotate(180 58.27720382724102 0)" font-family="sans-serif">CONNECTION</text></g><g class="relationship" transform="translate(130.34949065460845 546.8078716618032) rotate(385.5050956203334)"><path class="outline" fill="#A5ABB6" stroke="none" d="M 25 0.5 L 27.16776101751541 0.5 L 27.16776101751541 -0.5 L 25 -0.5 Z M 75.8357297675154 0.5 L 78.00349078503082 0.5 L 78.00349078503082 3.5 L 85.00349078503082 0 L 78.00349078503082 -3.5 L 78.00349078503082 -0.5 L 75.8357297675154 -0.5 Z"/><text text-anchor="middle" pointer-events="none" font-size="8px" fill="#000000" x="51.50174539251541" y="3" font-family="sans-serif">CONNEC…</text></g><g class="relationship" transform="translate(170.79505248463482 -216.89535255619293) rotate(465.23261845946513)"><path class="outline" fill="#A5ABB6" stroke="none" d="M 25 0.5 L 26.477286086350723 0.5 L 26.477286086350723 -0.5 L 25 -0.5 Z M 69.36791108635072 0.5 L 70.84519717270145 0.5 L 70.84519717270145 3.5 L 77.84519717270145 0 L 70.84519717270145 -3.5 L 70.84519717270145 -0.5 L 69.36791108635072 -0.5 Z"/><text text-anchor="middle" pointer-events="none" font-size="8px" fill="#000000" x="47.92259858635072" y="3" transform="rotate(180 47.92259858635072 0)" font-family="sans-serif">CONNE…</text></g><g class="relationship" transform="translate(143.77365763715963 -117.66340809278599) rotate(462.82461597740047)"><path class="outline" fill="#A5ABB6" stroke="none" d="M 25 0.5 L 64.22462036036393 0.5 L 64.22462036036393 -0.5 L 25 -0.5 Z M 124.00196411036393 0.5 L 163.22658447072786 0.5 L 163.22658447072786 3.5 L 170.22658447072786 0 L 163.22658447072786 -3.5 L 163.22658447072786 -0.5 L 124.00196411036393 -0.5 Z"/><text text-anchor="middle" pointer-events="none" font-size="8px" fill="#000000" x="94.11329223536393" y="3" transform="rotate(180 94.11329223536393 0)" font-family="sans-serif">CONNECTION</text></g><g class="relationship" transform="translate(170.79505248463482 -216.89535255619293) rotate(485.9259507931175)"><path class="outline" fill="#A5ABB6" stroke="none" d="M 25 0.5 L 38.497767940909796 0.5 L 38.497767940909796 -0.5 L 25 -0.5 Z M 98.2751116909098 0.5 L 111.77287963181959 0.5 L 111.77287963181959 3.5 L 118.77287963181959 0 L 111.77287963181959 -3.5 L 111.77287963181959 -0.5 L 98.2751116909098 -0.5 Z"/><text text-anchor="middle" pointer-events="none" font-size="8px" fill="#000000" x="68.3864398159098" y="3" transform="rotate(180 68.3864398159098 0)" font-family="sans-serif">CONNECTION</text></g><g class="relationship" transform="translate(86.4378701014803 -100.47152897183847) rotate(445.37720168947493)"><path class="outline" fill="#A5ABB6" stroke="none" d="M 25 0.5 L 53.476208655734254 0.5 L 53.476208655734254 -0.5 L 25 -0.5 Z M 113.25355240573425 0.5 L 141.7297610614685 0.5 L 141.7297610614685 3.5 L 148.7297610614685 0 L 141.7297610614685 -3.5 L 141.7297610614685 -0.5 L 113.25355240573425 -0.5 Z"/><text text-anchor="middle" pointer-events="none" font-size="8px" fill="#000000" x="83.36488053073425" y="3" font-family="sans-serif">CONNECTION</text></g></g><g class="layer nodes"><g class="node" transform="translate(100.43971432966586,72.69306971012242)"><circle class="outline" cx="0" cy="0" r="25" fill="#4C8EDA" stroke="#2870c2" stroke-width="2px"/><text text-anchor="middle" pointer-events="none" font-family="sans-serif" dy="1.5625" font-size="25" fill="#FFFFFF"/><text text-anchor="middle" pointer-events="none" x="0" y="5" font-size="10px" fill="#FFFFFF" font-family="sans-serif"> LAX</text></g><g class="node" transform="translate(377.7331444893625,121.59383107143016)"><circle class="outline" cx="0" cy="0" r="25" fill="#4C8EDA" stroke="#2870c2" stroke-width="2px"/><text text-anchor="middle" pointer-events="none" font-family="sans-serif" dy="1.5625" font-size="25" fill="#FFFFFF"/><text text-anchor="middle" pointer-events="none" x="0" y="5" font-size="10px" fill="#FFFFFF" font-family="sans-serif"> FAT</text></g><g class="node" transform="translate(219.94923175463265,200.33732730169783)"><circle class="outline" cx="0" cy="0" r="25" fill="#FFC454" stroke="#d7a013" stroke-width="2px"/><text text-anchor="middle" pointer-events="none" font-family="sans-serif" dy="1.5625" font-size="25" fill="#2A2C34"/><text text-anchor="middle" pointer-events="none" x="0" y="5" font-size="10px" fill="#2A2C34" font-family="sans-serif"> 11/4/2015</text></g><g class="node" transform="translate(-123.82805864203021,253.4098784619865)"><circle class="outline" cx="0" cy="0" r="25" fill="#4C8EDA" stroke="#2870c2" stroke-width="2px"/><text text-anchor="middle" pointer-events="none" font-family="sans-serif" dy="1.5625" font-size="25" fill="#FFFFFF"/><text text-anchor="middle" pointer-events="none" x="0" y="5" font-size="10px" fill="#FFFFFF" font-family="sans-serif"> ABQ</text></g><g class="node" transform="translate(275.7698193725909,179.92178968894353)"><circle class="outline" cx="0" cy="0" r="25" fill="#FFC454" stroke="#d7a013" stroke-width="2px"/><text text-anchor="middle" pointer-events="none" font-family="sans-serif" dy="1.5625" font-size="25" fill="#2A2C34"/><text text-anchor="middle" pointer-events="none" x="0" y="5" font-size="10px" fill="#2A2C34" font-family="sans-serif"> 11/2/2015</text></g><g class="node" transform="translate(-132.46554162098198,-112.77949287390393)"><circle class="outline" cx="0" cy="0" r="25" fill="#4C8EDA" stroke="#2870c2" stroke-width="2px"/><text text-anchor="middle" pointer-events="none" font-family="sans-serif" dy="1.5625" font-size="25" fill="#FFFFFF"/><text text-anchor="middle" pointer-events="none" x="0" y="5" font-size="10px" fill="#FFFFFF" font-family="sans-serif"> SMF</text></g><g class="node" transform="translate(286.4345314934387,61.20564240689971)"><circle class="outline" cx="0" cy="0" r="25" fill="#FFC454" stroke="#d7a013" stroke-width="2px"/><text text-anchor="middle" pointer-events="none" font-family="sans-serif" dy="1.5625" font-size="25" fill="#2A2C34"/><text text-anchor="middle" pointer-events="none" x="0" y="5" font-size="10px" fill="#2A2C34" font-family="sans-serif"> 11/1/2015</text></g><g class="node" transform="translate(148.29610633388216,424.56380989800886)"><circle class="outline" cx="0" cy="0" r="25" fill="#4C8EDA" stroke="#2870c2" stroke-width="2px"/><text text-anchor="middle" pointer-events="none" font-family="sans-serif" dy="1.5625" font-size="25" fill="#FFFFFF"/><text text-anchor="middle" pointer-events="none" x="0" y="5" font-size="10px" fill="#FFFFFF" font-family="sans-serif"> LAS</text></g><g class="node" transform="translate(170.79505248463482,-216.89535255619293)"><circle class="outline" cx="0" cy="0" r="25" fill="#4C8EDA" stroke="#2870c2" stroke-width="2px"/><text text-anchor="middle" pointer-events="none" font-family="sans-serif" dy="1.5625" font-size="25" fill="#FFFFFF"/><text text-anchor="middle" pointer-events="none" x="0" y="5" font-size="10px" fill="#FFFFFF" font-family="sans-serif"> TUS</text></g><g class="node" transform="translate(276.0459997262616,120.03946493638318)"><circle class="outline" cx="0" cy="0" r="25" fill="#FFC454" stroke="#d7a013" stroke-width="2px"/><text text-anchor="middle" pointer-events="none" font-family="sans-serif" dy="1.5625" font-size="25" fill="#2A2C34"/><text text-anchor="middle" pointer-events="none" x="0" y="5" font-size="10px" fill="#2A2C34" font-family="sans-serif"> 11/3/2015</text></g><g class="node" transform="translate(219.98533887680745,140.82796371912391)"><circle class="outline" cx="0" cy="0" r="25" fill="#FFC454" stroke="#d7a013" stroke-width="2px"/><text text-anchor="middle" pointer-events="none" font-family="sans-serif" dy="1.5625" font-size="25" fill="#2A2C34"/><text text-anchor="middle" pointer-events="none" x="0" y="5" font-size="10px" fill="#2A2C34" font-family="sans-serif"> 11/3/2015</text></g><g class="node" transform="translate(240.3837764896947,22.970610901926953)"><circle class="outline" cx="0" cy="0" r="25" fill="#FFC454" stroke="#d7a013" stroke-width="2px"/><text text-anchor="middle" pointer-events="none" font-family="sans-serif" dy="1.5625" font-size="25" fill="#2A2C34"/><text text-anchor="middle" pointer-events="none" x="0" y="5" font-size="10px" fill="#2A2C34" font-family="sans-serif"> 11/1/2015</text></g><g class="node" transform="translate(296.3113170190691,2.323690003299443)"><circle class="outline" cx="0" cy="0" r="25" fill="#FFC454" stroke="#d7a013" stroke-width="2px"/><text text-anchor="middle" pointer-events="none" font-family="sans-serif" dy="1.5625" font-size="25" fill="#2A2C34"/><text text-anchor="middle" pointer-events="none" x="0" y="5" font-size="10px" fill="#2A2C34" font-family="sans-serif"> 11/2/2015</text></g><g class="node" transform="translate(230.31670131084752,81.79197412053988)"><circle class="outline" cx="0" cy="0" r="25" fill="#FFC454" stroke="#d7a013" stroke-width="2px"/><text text-anchor="middle" pointer-events="none" font-family="sans-serif" dy="1.5625" font-size="25" fill="#2A2C34"/><text text-anchor="middle" pointer-events="none" x="0" y="5" font-size="10px" fill="#2A2C34" font-family="sans-serif"> 11/4/2015</text></g><g class="node" transform="translate(229.63281049582253,594.1744251167418)"><circle class="outline" cx="0" cy="0" r="25" fill="#4C8EDA" stroke="#2870c2" stroke-width="2px"/><text text-anchor="middle" pointer-events="none" font-family="sans-serif" dy="1.5625" font-size="25" fill="#FFFFFF"/><text text-anchor="middle" pointer-events="none" x="0" y="5" font-size="10px" fill="#FFFFFF" font-family="sans-serif"> DEN</text></g><g class="node" transform="translate(143.77365763715963,-117.66340809278599)"><circle class="outline" cx="0" cy="0" r="25" fill="#FFC454" stroke="#d7a013" stroke-width="2px"/><text text-anchor="middle" pointer-events="none" font-family="sans-serif" dy="1.5625" font-size="25" fill="#2A2C34"/><text text-anchor="middle" pointer-events="none" x="0" y="5" font-size="10px" fill="#2A2C34" font-family="sans-serif"> 11/1/2015</text></g><g class="node" transform="translate(86.4378701014803,-100.47152897183847)"><circle class="outline" cx="0" cy="0" r="25" fill="#FFC454" stroke="#d7a013" stroke-width="2px"/><text text-anchor="middle" pointer-events="none" font-family="sans-serif" dy="1.5625" font-size="25" fill="#2A2C34"/><text text-anchor="middle" pointer-events="none" x="0" y="5" font-size="10px" fill="#2A2C34" font-family="sans-serif"> 11/2/2015</text></g><g class="node" transform="translate(46.60285446546853,233.08092593054582)"><circle class="outline" cx="0" cy="0" r="25" fill="#FFC454" stroke="#d7a013" stroke-width="2px"/><text text-anchor="middle" pointer-events="none" font-family="sans-serif" dy="1.5625" font-size="25" fill="#2A2C34"/><text text-anchor="middle" pointer-events="none" x="0" y="5" font-size="10px" fill="#2A2C34" font-family="sans-serif"> 11/3/2015</text></g><g class="node" transform="translate(-20.375622166263245,134.02559894853613)"><circle class="outline" cx="0" cy="0" r="25" fill="#FFC454" stroke="#d7a013" stroke-width="2px"/><text text-anchor="middle" pointer-events="none" font-family="sans-serif" dy="1.5625" font-size="25" fill="#2A2C34"/><text text-anchor="middle" pointer-events="none" x="0" y="5" font-size="10px" fill="#2A2C34" font-family="sans-serif"> 11/3/2015</text></g><g class="node" transform="translate(-52.23783425751969,-50.16181609076289)"><circle class="outline" cx="0" cy="0" r="25" fill="#FFC454" stroke="#d7a013" stroke-width="2px"/><text text-anchor="middle" pointer-events="none" font-family="sans-serif" dy="1.5625" font-size="25" fill="#2A2C34"/><text text-anchor="middle" pointer-events="none" x="0" y="5" font-size="10px" fill="#2A2C34" font-family="sans-serif"> 11/2/2015</text></g><g class="node" transform="translate(-12.714634438139283,237.44656792463726)"><circle class="outline" cx="0" cy="0" r="25" fill="#FFC454" stroke="#d7a013" stroke-width="2px"/><text text-anchor="middle" pointer-events="none" font-family="sans-serif" dy="1.5625" font-size="25" fill="#2A2C34"/><text text-anchor="middle" pointer-events="none" x="0" y="5" font-size="10px" fill="#2A2C34" font-family="sans-serif"> 11/2/2015</text></g><g class="node" transform="translate(1.8619201631363074,-76.01713060805427)"><circle class="outline" cx="0" cy="0" r="25" fill="#FFC454" stroke="#d7a013" stroke-width="2px"/><text text-anchor="middle" pointer-events="none" font-family="sans-serif" dy="1.5625" font-size="25" fill="#2A2C34"/><text text-anchor="middle" pointer-events="none" x="0" y="5" font-size="10px" fill="#2A2C34" font-family="sans-serif"> 11/3/2015</text></g><g class="node" transform="translate(13.307406206700346,183.52158203499212)"><circle class="outline" cx="0" cy="0" r="25" fill="#FFC454" stroke="#d7a013" stroke-width="2px"/><text text-anchor="middle" pointer-events="none" font-family="sans-serif" dy="1.5625" font-size="25" fill="#2A2C34"/><text text-anchor="middle" pointer-events="none" x="0" y="5" font-size="10px" fill="#2A2C34" font-family="sans-serif"> 11/1/2015</text></g><g class="node" transform="translate(-3.2670752769391846,-16.400940264093624)"><circle class="outline" cx="0" cy="0" r="25" fill="#FFC454" stroke="#d7a013" stroke-width="2px"/><text text-anchor="middle" pointer-events="none" font-family="sans-serif" dy="1.5625" font-size="25" fill="#2A2C34"/><text text-anchor="middle" pointer-events="none" x="0" y="5" font-size="10px" fill="#2A2C34" font-family="sans-serif"> 11/4/2015</text></g><g class="node" transform="translate(132.95419697726953,258.21879301386986)"><circle class="outline" cx="0" cy="0" r="25" fill="#FFC454" stroke="#d7a013" stroke-width="2px"/><text text-anchor="middle" pointer-events="none" font-family="sans-serif" dy="1.5625" font-size="25" fill="#2A2C34"/><text text-anchor="middle" pointer-events="none" x="0" y="5" font-size="10px" fill="#2A2C34" font-family="sans-serif"> 11/29/20…</text></g><g class="node" transform="translate(194.53299231957774,-82.6319738860119)"><circle class="outline" cx="0" cy="0" r="25" fill="#FFC454" stroke="#d7a013" stroke-width="2px"/><text text-anchor="middle" pointer-events="none" font-family="sans-serif" dy="1.5625" font-size="25" fill="#2A2C34"/><text text-anchor="middle" pointer-events="none" x="0" y="5" font-size="10px" fill="#2A2C34" font-family="sans-serif"> 11/2/2015</text></g><g class="node" transform="translate(-64.14601273073136,8.461678083732934)"><circle class="outline" cx="0" cy="0" r="25" fill="#FFC454" stroke="#d7a013" stroke-width="2px"/><text text-anchor="middle" pointer-events="none" font-family="sans-serif" dy="1.5625" font-size="25" fill="#2A2C34"/><text text-anchor="middle" pointer-events="none" x="0" y="5" font-size="10px" fill="#2A2C34" font-family="sans-serif"> 11/1/2015</text></g><g class="node" transform="translate(-90.91479706865246,147.94428980327353)"><circle class="outline" cx="0" cy="0" r="25" fill="#FFC454" stroke="#d7a013" stroke-width="2px"/><text text-anchor="middle" pointer-events="none" font-family="sans-serif" dy="1.5625" font-size="25" fill="#2A2C34"/><text text-anchor="middle" pointer-events="none" x="0" y="5" font-size="10px" fill="#2A2C34" font-family="sans-serif"> 11/2/2015</text></g><g class="node" transform="translate(-65.15480313454145,94.39807385240405)"><circle class="outline" cx="0" cy="0" r="25" fill="#FFC454" stroke="#d7a013" stroke-width="2px"/><text text-anchor="middle" pointer-events="none" font-family="sans-serif" dy="1.5625" font-size="25" fill="#2A2C34"/><text text-anchor="middle" pointer-events="none" x="0" y="5" font-size="10px" fill="#2A2C34" font-family="sans-serif"> 11/1/2015</text></g><g class="node" transform="translate(139.8507630112106,-58.34558050142782)"><circle class="outline" cx="0" cy="0" r="25" fill="#FFC454" stroke="#d7a013" stroke-width="2px"/><text text-anchor="middle" pointer-events="none" font-family="sans-serif" dy="1.5625" font-size="25" fill="#2A2C34"/><text text-anchor="middle" pointer-events="none" x="0" y="5" font-size="10px" fill="#2A2C34" font-family="sans-serif"> 11/1/2015</text></g><g class="node" transform="translate(-46.29716121533391,187.6993296288816)"><circle class="outline" cx="0" cy="0" r="25" fill="#FFC454" stroke="#d7a013" stroke-width="2px"/><text text-anchor="middle" pointer-events="none" font-family="sans-serif" dy="1.5625" font-size="25" fill="#2A2C34"/><text text-anchor="middle" pointer-events="none" x="0" y="5" font-size="10px" fill="#2A2C34" font-family="sans-serif"> 11/4/2015</text></g><g class="node" transform="translate(130.34949065460845,546.8078716618032)"><circle class="outline" cx="0" cy="0" r="25" fill="#FFC454" stroke="#d7a013" stroke-width="2px"/><text text-anchor="middle" pointer-events="none" font-family="sans-serif" dy="1.5625" font-size="25" fill="#2A2C34"/><text text-anchor="middle" pointer-events="none" x="0" y="5" font-size="10px" fill="#2A2C34" font-family="sans-serif"> 11/29/20…</text></g></g></svg>